<svg width="1280" height="80" viewBox="0 0 1280 80" fill="none" xmlns="http://www.w3.org/2000/svg">
<path d="M1264 0H16C7.16344 0 0 4.47715 0 10V70C0 75.5229 7.16344 80 16 80H1264C1272.84 80 1280 75.5229 1280 70V10C1280 4.47715 1272.84 0 1264 0Z" fill="#1D1D1D"/>
<path d="M53.385 22.5H52.615C51.6867 22.5 50.7965 22.8687 50.1401 23.5251C49.4838 24.1815 49.115 25.0717 49.115 26V26.315C49.1144 26.9288 48.9524 27.5316 48.6452 28.063C48.338 28.5943 47.8965 29.0356 47.365 29.3425L46.6125 29.78C46.0804 30.0872 45.4769 30.2489 44.8625 30.2489C44.2481 30.2489 43.6446 30.0872 43.1125 29.78L42.85 29.64C42.0469 29.1767 41.0927 29.051 40.197 29.2905C39.3013 29.5301 38.5372 30.1152 38.0725 30.9175L37.6875 31.5825C37.2242 32.3856 37.0985 33.3398 37.338 34.2355C37.5776 35.1312 38.1627 35.8953 38.965 36.36L39.2275 36.535C39.7565 36.8404 40.1963 37.2789 40.5033 37.807C40.8103 38.335 40.9738 38.9342 40.9775 39.545V40.4375C40.98 41.0542 40.8194 41.6607 40.5121 42.1954C40.2048 42.7301 39.7616 43.1741 39.2275 43.4825L38.965 43.64C38.1627 44.1047 37.5776 44.8688 37.338 45.7645C37.0985 46.6602 37.2242 47.6144 37.6875 48.4175L38.0725 49.0825C38.5372 49.8848 39.3013 50.4699 40.197 50.7095C41.0927 50.949 42.0469 50.8233 42.85 50.36L43.1125 50.22C43.6446 49.9128 44.2481 49.7511 44.8625 49.7511C45.4769 49.7511 46.0804 49.9128 46.6125 50.22L47.365 50.6575C47.8965 50.9644 48.338 51.4057 48.6452 51.937C48.9524 52.4684 49.1144 53.0712 49.115 53.685V54C49.115 54.9283 49.4838 55.8185 50.1401 56.4749C50.7965 57.1313 51.6867 57.5 52.615 57.5H53.385C54.3133 57.5 55.2035 57.1313 55.8599 56.4749C56.5163 55.8185 56.885 54.9283 56.885 54V53.685C56.8856 53.0712 57.0477 52.4684 57.3548 51.937C57.662 51.4057 58.1035 50.9644 58.635 50.6575L59.3875 50.22C59.9196 49.9128 60.5231 49.7511 61.1375 49.7511C61.7519 49.7511 62.3554 49.9128 62.8875 50.22L63.15 50.36C63.9531 50.8233 64.9073 50.949 65.803 50.7095C66.6987 50.4699 67.4628 49.8848 67.9275 49.0825L68.3125 48.4C68.7758 47.5969 68.9015 46.6427 68.662 45.747C68.4225 44.8513 67.8373 44.0872 67.035 43.6225L66.7725 43.4825C66.2384 43.1741 65.7952 42.7301 65.4879 42.1954C65.1806 41.6607 65.0201 41.0542 65.0225 40.4375V39.5625C65.0201 38.9458 65.1806 38.3393 65.4879 37.8046C65.7952 37.2699 66.2384 36.8259 66.7725 36.5175L67.035 36.36C67.8373 35.8953 68.4225 35.1312 68.662 34.2355C68.9015 33.3398 68.7758 32.3856 68.3125 31.5825L67.9275 30.9175C67.4628 30.1152 66.6987 29.5301 65.803 29.2905C64.9073 29.051 63.9531 29.1767 63.15 29.64L62.8875 29.78C62.3554 30.0872 61.7519 30.2489 61.1375 30.2489C60.5231 30.2489 59.9196 30.0872 59.3875 29.78L58.635 29.3425C58.1035 29.0356 57.662 28.5943 57.3548 28.063C57.0477 27.5316 56.8856 26.9288 56.885 26.315V26C56.885 25.0717 56.5163 24.1815 55.8599 23.5251C55.2035 22.8687 54.3133 22.5 53.385 22.5Z" stroke="#D40101" stroke-width="2" stroke-linecap="round" stroke-linejoin="round"/>
<path d="M53 45.25C55.8995 45.25 58.25 42.8995 58.25 40C58.25 37.1005 55.8995 34.75 53 34.75C50.1005 34.75 47.75 37.1005 47.75 40C47.75 42.8995 50.1005 45.25 53 45.25Z" stroke="#D40101" stroke-width="2" stroke-linecap="round" stroke-linejoin="round"/>
<path d="M104.788 53H98.8565L107.895 26.8182H115.028L124.054 53H118.122L111.564 32.8011H111.359L104.788 53ZM104.418 42.7088H118.429V47.0298H104.418V42.7088ZM133.425 53.3196C131.933 53.3196 130.582 52.9361 129.372 52.169C128.17 51.3935 127.216 50.2557 126.509 48.7557C125.81 47.2472 125.46 45.3977 125.46 43.2074C125.46 40.9574 125.822 39.0866 126.547 37.5952C127.271 36.0952 128.234 34.9744 129.436 34.233C130.646 33.483 131.972 33.108 133.412 33.108C134.511 33.108 135.428 33.2955 136.161 33.6705C136.902 34.0369 137.499 34.4972 137.95 35.0511C138.411 35.5966 138.76 36.1335 138.999 36.6619H139.165V26.8182H144.598V53H139.229V49.8551H138.999C138.743 50.4006 138.381 50.9418 137.912 51.4787C137.452 52.0071 136.851 52.446 136.109 52.7955C135.376 53.1449 134.482 53.3196 133.425 53.3196ZM135.151 48.9858C136.028 48.9858 136.77 48.7472 137.375 48.2699C137.989 47.7841 138.457 47.1065 138.781 46.2372C139.114 45.3679 139.28 44.3494 139.28 43.1818C139.28 42.0142 139.118 41 138.794 40.1392C138.47 39.2784 138.001 38.6136 137.388 38.1449C136.774 37.6761 136.028 37.4418 135.151 37.4418C134.256 37.4418 133.501 37.6847 132.888 38.1705C132.274 38.6562 131.81 39.3295 131.494 40.1903C131.179 41.0511 131.021 42.0483 131.021 43.1818C131.021 44.3239 131.179 45.3338 131.494 46.2116C131.818 47.081 132.283 47.7628 132.888 48.2571C133.501 48.7429 134.256 48.9858 135.151 48.9858ZM149.076 53V33.3636H154.266V36.8281H154.496C154.905 35.6776 155.587 34.7699 156.542 34.1051C157.496 33.4403 158.638 33.108 159.968 33.108C161.314 33.108 162.461 33.4446 163.407 34.1179C164.353 34.7827 164.983 35.6861 165.299 36.8281H165.503C165.904 35.7031 166.628 34.804 167.676 34.1307C168.733 33.4489 169.982 33.108 171.422 33.108C173.255 33.108 174.742 33.6918 175.884 34.8594C177.034 36.0185 177.61 37.6634 177.61 39.794V53H172.176V40.8679C172.176 39.777 171.887 38.9588 171.307 38.4134C170.728 37.8679 170.003 37.5952 169.134 37.5952C168.145 37.5952 167.374 37.9105 166.82 38.5412C166.266 39.1634 165.989 39.9858 165.989 41.0085V53H160.709V40.7528C160.709 39.7898 160.432 39.0227 159.878 38.4517C159.333 37.8807 158.613 37.5952 157.718 37.5952C157.113 37.5952 156.567 37.7486 156.081 38.0554C155.604 38.3537 155.225 38.7756 154.944 39.321C154.662 39.858 154.522 40.4886 154.522 41.2131V53H149.076ZM181.912 53V33.3636H187.358V53H181.912ZM184.647 30.8324C183.838 30.8324 183.143 30.5639 182.564 30.027C181.993 29.4815 181.707 28.8295 181.707 28.071C181.707 27.321 181.993 26.6776 182.564 26.1406C183.143 25.5952 183.838 25.3224 184.647 25.3224C185.457 25.3224 186.147 25.5952 186.718 26.1406C187.298 26.6776 187.588 27.321 187.588 28.071C187.588 28.8295 187.298 29.4815 186.718 30.027C186.147 30.5639 185.457 30.8324 184.647 30.8324ZM197.166 41.6477V53H191.72V33.3636H196.911V36.8281H197.141C197.575 35.6861 198.304 34.7827 199.327 34.1179C200.349 33.4446 201.589 33.108 203.047 33.108C204.411 33.108 205.599 33.4062 206.614 34.0028C207.628 34.5994 208.416 35.4517 208.979 36.5597C209.541 37.6591 209.822 38.9716 209.822 40.4972V53H204.376V41.4688C204.385 40.267 204.078 39.3295 203.456 38.6562C202.834 37.9744 201.977 37.6335 200.886 37.6335C200.153 37.6335 199.506 37.7912 198.943 38.1065C198.389 38.4219 197.955 38.8821 197.639 39.4872C197.332 40.0838 197.175 40.804 197.166 41.6477ZM231.293 60.7727C229.529 60.7727 228.016 60.5298 226.755 60.044C225.502 59.5668 224.505 58.9148 223.763 58.0881C223.022 57.2614 222.54 56.3324 222.319 55.3011L227.356 54.6236C227.509 55.0156 227.752 55.3821 228.085 55.723C228.417 56.0639 228.856 56.3366 229.401 56.5412C229.955 56.7543 230.629 56.8608 231.421 56.8608C232.606 56.8608 233.582 56.571 234.349 55.9915C235.124 55.4205 235.512 54.4616 235.512 53.1151V49.5227H235.282C235.043 50.0682 234.685 50.5838 234.208 51.0696C233.731 51.5554 233.117 51.9517 232.367 52.2585C231.617 52.5653 230.722 52.7188 229.683 52.7188C228.208 52.7188 226.866 52.3778 225.656 51.696C224.454 51.0057 223.495 49.9531 222.779 48.5384C222.072 47.1151 221.718 45.3168 221.718 43.1435C221.718 40.919 222.08 39.0611 222.805 37.5696C223.529 36.0781 224.492 34.9616 225.694 34.2202C226.904 33.4787 228.229 33.108 229.67 33.108C230.769 33.108 231.69 33.2955 232.431 33.6705C233.173 34.0369 233.769 34.4972 234.221 35.0511C234.681 35.5966 235.035 36.1335 235.282 36.6619H235.487V33.3636H240.894V53.1918C240.894 54.8622 240.485 56.2599 239.667 57.3849C238.849 58.5099 237.715 59.3537 236.266 59.9162C234.826 60.4872 233.168 60.7727 231.293 60.7727ZM231.408 48.6278C232.286 48.6278 233.028 48.4105 233.633 47.9759C234.246 47.5327 234.715 46.902 235.039 46.0838C235.371 45.2571 235.538 44.2685 235.538 43.1179C235.538 41.9673 235.376 40.9702 235.052 40.1264C234.728 39.2741 234.259 38.6136 233.646 38.1449C233.032 37.6761 232.286 37.4418 231.408 37.4418C230.513 37.4418 229.759 37.6847 229.146 38.1705C228.532 38.6477 228.067 39.3125 227.752 40.1648C227.437 41.017 227.279 42.0014 227.279 43.1179C227.279 44.2514 227.437 45.2315 227.752 46.0582C228.076 46.8764 228.54 47.5114 229.146 47.9631C229.759 48.4062 230.513 48.6278 231.408 48.6278ZM257.82 44.6392V33.3636H263.266V53H258.038V49.4332H257.833C257.39 50.5838 256.653 51.5085 255.621 52.2074C254.599 52.9062 253.35 53.2557 251.876 53.2557C250.563 53.2557 249.408 52.9574 248.411 52.3608C247.414 51.7642 246.634 50.9162 246.072 49.8168C245.518 48.7173 245.237 47.4006 245.228 45.8665V33.3636H250.674V44.8949C250.683 46.054 250.994 46.9702 251.607 47.6435C252.221 48.3168 253.043 48.6534 254.075 48.6534C254.731 48.6534 255.344 48.5043 255.915 48.206C256.487 47.8991 256.947 47.4474 257.296 46.8509C257.654 46.2543 257.829 45.517 257.82 44.6392ZM267.623 53V33.3636H273.069V53H267.623ZM270.358 30.8324C269.549 30.8324 268.854 30.5639 268.275 30.027C267.703 29.4815 267.418 28.8295 267.418 28.071C267.418 27.321 267.703 26.6776 268.275 26.1406C268.854 25.5952 269.549 25.3224 270.358 25.3224C271.168 25.3224 271.858 25.5952 272.429 26.1406C273.009 26.6776 273.299 27.321 273.299 28.071C273.299 28.8295 273.009 29.4815 272.429 30.027C271.858 30.5639 271.168 30.8324 270.358 30.8324ZM284.667 53.3196C283.175 53.3196 281.825 52.9361 280.614 52.169C279.413 51.3935 278.458 50.2557 277.751 48.7557C277.052 47.2472 276.702 45.3977 276.702 43.2074C276.702 40.9574 277.065 39.0866 277.789 37.5952C278.513 36.0952 279.477 34.9744 280.678 34.233C281.888 33.483 283.214 33.108 284.654 33.108C285.754 33.108 286.67 33.2955 287.403 33.6705C288.144 34.0369 288.741 34.4972 289.192 35.0511C289.653 35.5966 290.002 36.1335 290.241 36.6619H290.407V26.8182H295.84V53H290.471V49.8551H290.241C289.985 50.4006 289.623 50.9418 289.154 51.4787C288.694 52.0071 288.093 52.446 287.352 52.7955C286.619 53.1449 285.724 53.3196 284.667 53.3196ZM286.393 48.9858C287.271 48.9858 288.012 48.7472 288.617 48.2699C289.231 47.7841 289.7 47.1065 290.023 46.2372C290.356 45.3679 290.522 44.3494 290.522 43.1818C290.522 42.0142 290.36 41 290.036 40.1392C289.712 39.2784 289.244 38.6136 288.63 38.1449C288.016 37.6761 287.271 37.4418 286.393 37.4418C285.498 37.4418 284.744 37.6847 284.13 38.1705C283.516 38.6562 283.052 39.3295 282.737 40.1903C282.421 41.0511 282.263 42.0483 282.263 43.1818C282.263 44.3239 282.421 45.3338 282.737 46.2116C283.06 47.081 283.525 47.7628 284.13 48.2571C284.744 48.7429 285.498 48.9858 286.393 48.9858ZM309.267 53.3835C307.247 53.3835 305.508 52.9744 304.051 52.1562C302.602 51.3295 301.485 50.1619 300.701 48.6534C299.917 47.1364 299.525 45.3423 299.525 43.2713C299.525 41.2514 299.917 39.4787 300.701 37.9531C301.485 36.4276 302.589 35.2386 304.012 34.3864C305.444 33.5341 307.123 33.108 309.049 33.108C310.345 33.108 311.551 33.3168 312.667 33.7344C313.792 34.1435 314.772 34.7614 315.608 35.5881C316.451 36.4148 317.108 37.4545 317.576 38.7074C318.045 39.9517 318.279 41.4091 318.279 43.0795V44.5753H301.699V41.2003H313.153C313.153 40.4162 312.983 39.7216 312.642 39.1165C312.301 38.5114 311.828 38.0384 311.223 37.6974C310.626 37.348 309.931 37.1733 309.139 37.1733C308.312 37.1733 307.579 37.3651 306.94 37.7486C306.309 38.1236 305.815 38.6307 305.457 39.2699C305.099 39.9006 304.916 40.6037 304.907 41.3793V44.5881C304.907 45.5597 305.086 46.3991 305.444 47.1065C305.811 47.8139 306.326 48.3594 306.991 48.7429C307.656 49.1264 308.444 49.3182 309.356 49.3182C309.961 49.3182 310.515 49.233 311.018 49.0625C311.521 48.892 311.951 48.6364 312.309 48.2955C312.667 47.9545 312.94 47.5369 313.127 47.0426L318.164 47.375C317.909 48.5852 317.385 49.642 316.592 50.5455C315.808 51.4403 314.794 52.1392 313.549 52.642C312.314 53.1364 310.886 53.3835 309.267 53.3835Z" fill="white"/>
</svg>
