<svg width="1280" height="80" viewBox="0 0 1280 80" fill="none" xmlns="http://www.w3.org/2000/svg">
<path d="M1264 0H16C7.16344 0 0 4.47715 0 10V70C0 75.5229 7.16344 80 16 80H1264C1272.84 80 1280 75.5229 1280 70V10C1280 4.47715 1272.84 0 1264 0Z" fill="#1D1D1D"/>
<path d="M67 22.5H39C37.067 22.5 35.5 24.067 35.5 26V33C35.5 34.933 37.067 36.5 39 36.5H67C68.933 36.5 70.5 34.933 70.5 33V26C70.5 24.067 68.933 22.5 67 22.5Z" stroke="#D40101" stroke-width="2" stroke-linecap="round" stroke-linejoin="round"/>
<path d="M67 43.5H39C37.067 43.5 35.5 45.067 35.5 47V54C35.5 55.933 37.067 57.5 39 57.5H67C68.933 57.5 70.5 55.933 70.5 54V47C70.5 45.067 68.933 43.5 67 43.5Z" stroke="#D40101" stroke-width="2" stroke-linecap="round" stroke-linejoin="round"/>
<path d="M42.5 29.5H42.5175" stroke="#D40101" stroke-width="2" stroke-linecap="round" stroke-linejoin="round"/>
<path d="M42.5 50.5H42.5175" stroke="#D40101" stroke-width="2" stroke-linecap="round" stroke-linejoin="round"/>
<path d="M100.276 53V26.8182H105.811V37.6207H117.048V26.8182H122.571V53H117.048V42.1847H105.811V53H100.276ZM135.905 53.3835C133.919 53.3835 132.202 52.9616 130.753 52.1179C129.313 51.2656 128.2 50.081 127.416 48.5639C126.632 47.0384 126.24 45.2699 126.24 43.2585C126.24 41.2301 126.632 39.4574 127.416 37.9403C128.2 36.4148 129.313 35.2301 130.753 34.3864C132.202 33.5341 133.919 33.108 135.905 33.108C137.891 33.108 139.604 33.5341 141.044 34.3864C142.493 35.2301 143.609 36.4148 144.393 37.9403C145.178 39.4574 145.57 41.2301 145.57 43.2585C145.57 45.2699 145.178 47.0384 144.393 48.5639C143.609 50.081 142.493 51.2656 141.044 52.1179C139.604 52.9616 137.891 53.3835 135.905 53.3835ZM135.93 49.1648C136.834 49.1648 137.588 48.9091 138.193 48.3977C138.798 47.8778 139.254 47.1705 139.561 46.2756C139.876 45.3807 140.034 44.3622 140.034 43.2202C140.034 42.0781 139.876 41.0597 139.561 40.1648C139.254 39.2699 138.798 38.5625 138.193 38.0426C137.588 37.5227 136.834 37.2628 135.93 37.2628C135.018 37.2628 134.251 37.5227 133.629 38.0426C133.016 38.5625 132.551 39.2699 132.236 40.1648C131.929 41.0597 131.776 42.0781 131.776 43.2202C131.776 44.3622 131.929 45.3807 132.236 46.2756C132.551 47.1705 133.016 47.8778 133.629 48.3977C134.251 48.9091 135.018 49.1648 135.93 49.1648ZM165.449 38.9631L160.463 39.2699C160.378 38.8437 160.195 38.4602 159.913 38.1193C159.632 37.7699 159.261 37.4929 158.801 37.2884C158.349 37.0753 157.808 36.9688 157.178 36.9688C156.334 36.9688 155.622 37.1477 155.043 37.5057C154.463 37.8551 154.173 38.3239 154.173 38.9119C154.173 39.3807 154.361 39.777 154.736 40.1009C155.111 40.4247 155.754 40.6847 156.666 40.8807L160.22 41.5966C162.129 41.9886 163.553 42.6193 164.49 43.4886C165.428 44.358 165.896 45.5 165.896 46.9148C165.896 48.2017 165.517 49.331 164.759 50.3026C164.009 51.2741 162.977 52.0327 161.665 52.5781C160.361 53.1151 158.857 53.3835 157.152 53.3835C154.553 53.3835 152.482 52.8423 150.939 51.7599C149.405 50.669 148.506 49.1861 148.241 47.3111L153.598 47.0298C153.76 47.8224 154.152 48.4276 154.774 48.8452C155.396 49.2543 156.193 49.4588 157.165 49.4588C158.119 49.4588 158.886 49.2756 159.466 48.9091C160.054 48.5341 160.352 48.0526 160.361 47.4645C160.352 46.9702 160.143 46.5653 159.734 46.25C159.325 45.9261 158.695 45.679 157.842 45.5085L154.442 44.831C152.524 44.4474 151.097 43.7827 150.159 42.8366C149.23 41.8906 148.766 40.6847 148.766 39.2188C148.766 37.9574 149.107 36.8707 149.788 35.9588C150.479 35.0469 151.446 34.3438 152.69 33.8494C153.943 33.3551 155.409 33.108 157.088 33.108C159.568 33.108 161.52 33.6321 162.943 34.6804C164.375 35.7287 165.21 37.1562 165.449 38.9631ZM179.77 33.3636V37.4545H167.945V33.3636H179.77ZM170.63 28.6591H176.076V46.9659C176.076 47.4687 176.152 47.8608 176.306 48.142C176.459 48.4148 176.672 48.6065 176.945 48.7173C177.226 48.8281 177.55 48.8835 177.917 48.8835C178.172 48.8835 178.428 48.8622 178.684 48.8196C178.939 48.7685 179.135 48.7301 179.272 48.7045L180.128 52.7571C179.855 52.8423 179.472 52.9403 178.978 53.0511C178.483 53.1705 177.882 53.2429 177.175 53.2685C175.863 53.3196 174.712 53.1449 173.723 52.7443C172.743 52.3437 171.98 51.7216 171.435 50.8778C170.89 50.0341 170.621 48.9687 170.63 47.6818V28.6591ZM183.318 53V33.3636H188.764V53H183.318ZM186.054 30.8324C185.244 30.8324 184.549 30.5639 183.97 30.027C183.399 29.4815 183.113 28.8295 183.113 28.071C183.113 27.321 183.399 26.6776 183.97 26.1406C184.549 25.5952 185.244 25.3224 186.054 25.3224C186.863 25.3224 187.554 25.5952 188.125 26.1406C188.704 26.6776 188.994 27.321 188.994 28.071C188.994 28.8295 188.704 29.4815 188.125 30.027C187.554 30.5639 186.863 30.8324 186.054 30.8324ZM198.572 41.6477V53H193.126V33.3636H198.317V36.8281H198.547C198.982 35.6861 199.71 34.7827 200.733 34.1179C201.756 33.4446 202.996 33.108 204.453 33.108C205.817 33.108 207.006 33.4062 208.02 34.0028C209.034 34.5994 209.822 35.4517 210.385 36.5597C210.947 37.6591 211.229 38.9716 211.229 40.4972V53H205.783V41.4688C205.791 40.267 205.484 39.3295 204.862 38.6562C204.24 37.9744 203.384 37.6335 202.293 37.6335C201.56 37.6335 200.912 37.7912 200.349 38.1065C199.795 38.4219 199.361 38.8821 199.045 39.4872C198.739 40.0838 198.581 40.804 198.572 41.6477ZM224.368 60.7727C222.603 60.7727 221.091 60.5298 219.829 60.044C218.576 59.5668 217.579 58.9148 216.838 58.0881C216.096 57.2614 215.615 56.3324 215.393 55.3011L220.43 54.6236C220.583 55.0156 220.826 55.3821 221.159 55.723C221.491 56.0639 221.93 56.3366 222.475 56.5412C223.029 56.7543 223.703 56.8608 224.495 56.8608C225.68 56.8608 226.656 56.571 227.423 55.9915C228.199 55.4205 228.586 54.4616 228.586 53.1151V49.5227H228.356C228.118 50.0682 227.76 50.5838 227.282 51.0696C226.805 51.5554 226.191 51.9517 225.441 52.2585C224.691 52.5653 223.797 52.7188 222.757 52.7188C221.282 52.7188 219.94 52.3778 218.73 51.696C217.528 51.0057 216.569 49.9531 215.853 48.5384C215.146 47.1151 214.792 45.3168 214.792 43.1435C214.792 40.919 215.154 39.0611 215.879 37.5696C216.603 36.0781 217.566 34.9616 218.768 34.2202C219.978 33.4787 221.304 33.108 222.744 33.108C223.843 33.108 224.764 33.2955 225.505 33.6705C226.247 34.0369 226.843 34.4972 227.295 35.0511C227.755 35.5966 228.109 36.1335 228.356 36.6619H228.561V33.3636H233.968V53.1918C233.968 54.8622 233.559 56.2599 232.741 57.3849C231.923 58.5099 230.789 59.3537 229.341 59.9162C227.9 60.4872 226.243 60.7727 224.368 60.7727ZM224.483 48.6278C225.36 48.6278 226.102 48.4105 226.707 47.9759C227.321 47.5327 227.789 46.902 228.113 46.0838C228.446 45.2571 228.612 44.2685 228.612 43.1179C228.612 41.9673 228.45 40.9702 228.126 40.1264C227.802 39.2741 227.333 38.6136 226.72 38.1449C226.106 37.6761 225.36 37.4418 224.483 37.4418C223.588 37.4418 222.833 37.6847 222.22 38.1705C221.606 38.6477 221.142 39.3125 220.826 40.1648C220.511 41.017 220.353 42.0014 220.353 43.1179C220.353 44.2514 220.511 45.2315 220.826 46.0582C221.15 46.8764 221.615 47.5114 222.22 47.9631C222.833 48.4062 223.588 48.6278 224.483 48.6278ZM255.481 60.7727C253.717 60.7727 252.204 60.5298 250.942 60.044C249.69 59.5668 248.692 58.9148 247.951 58.0881C247.21 57.2614 246.728 56.3324 246.506 55.3011L251.543 54.6236C251.697 55.0156 251.94 55.3821 252.272 55.723C252.604 56.0639 253.043 56.3366 253.589 56.5412C254.143 56.7543 254.816 56.8608 255.609 56.8608C256.793 56.8608 257.769 56.571 258.536 55.9915C259.312 55.4205 259.7 54.4616 259.7 53.1151V49.5227H259.469C259.231 50.0682 258.873 50.5838 258.396 51.0696C257.918 51.5554 257.305 51.9517 256.555 52.2585C255.805 52.5653 254.91 52.7188 253.87 52.7188C252.396 52.7188 251.053 52.3778 249.843 51.696C248.641 51.0057 247.683 49.9531 246.967 48.5384C246.259 47.1151 245.906 45.3168 245.906 43.1435C245.906 40.919 246.268 39.0611 246.992 37.5696C247.717 36.0781 248.68 34.9616 249.881 34.2202C251.092 33.4787 252.417 33.108 253.857 33.108C254.957 33.108 255.877 33.2955 256.619 33.6705C257.36 34.0369 257.957 34.4972 258.408 35.0511C258.869 35.5966 259.222 36.1335 259.469 36.6619H259.674V33.3636H265.082V53.1918C265.082 54.8622 264.673 56.2599 263.854 57.3849C263.036 58.5099 261.903 59.3537 260.454 59.9162C259.013 60.4872 257.356 60.7727 255.481 60.7727ZM255.596 48.6278C256.474 48.6278 257.215 48.4105 257.82 47.9759C258.434 47.5327 258.903 46.902 259.227 46.0838C259.559 45.2571 259.725 44.2685 259.725 43.1179C259.725 41.9673 259.563 40.9702 259.239 40.1264C258.915 39.2741 258.447 38.6136 257.833 38.1449C257.219 37.6761 256.474 37.4418 255.596 37.4418C254.701 37.4418 253.947 37.6847 253.333 38.1705C252.719 38.6477 252.255 39.3125 251.94 40.1648C251.624 41.017 251.467 42.0014 251.467 43.1179C251.467 44.2514 251.624 45.2315 251.94 46.0582C252.263 46.8764 252.728 47.5114 253.333 47.9631C253.947 48.4062 254.701 48.6278 255.596 48.6278ZM282.008 44.6392V33.3636H287.454V53H282.225V49.4332H282.021C281.577 50.5838 280.84 51.5085 279.809 52.2074C278.786 52.9062 277.538 53.2557 276.063 53.2557C274.751 53.2557 273.596 52.9574 272.599 52.3608C271.602 51.7642 270.822 50.9162 270.259 49.8168C269.705 48.7173 269.424 47.4006 269.415 45.8665V33.3636H274.862V44.8949C274.87 46.054 275.181 46.9702 275.795 47.6435C276.408 48.3168 277.231 48.6534 278.262 48.6534C278.918 48.6534 279.532 48.5043 280.103 48.206C280.674 47.8991 281.134 47.4474 281.484 46.8509C281.842 46.2543 282.016 45.517 282.008 44.6392ZM291.81 53V33.3636H297.256V53H291.81ZM294.546 30.8324C293.736 30.8324 293.042 30.5639 292.462 30.027C291.891 29.4815 291.605 28.8295 291.605 28.071C291.605 27.321 291.891 26.6776 292.462 26.1406C293.042 25.5952 293.736 25.3224 294.546 25.3224C295.355 25.3224 296.046 25.5952 296.617 26.1406C297.196 26.6776 297.486 27.321 297.486 28.071C297.486 28.8295 297.196 29.4815 296.617 30.027C296.046 30.5639 295.355 30.8324 294.546 30.8324ZM308.854 53.3196C307.363 53.3196 306.012 52.9361 304.802 52.169C303.6 51.3935 302.646 50.2557 301.938 48.7557C301.239 47.2472 300.89 45.3977 300.89 43.2074C300.89 40.9574 301.252 39.0866 301.977 37.5952C302.701 36.0952 303.664 34.9744 304.866 34.233C306.076 33.483 307.401 33.108 308.842 33.108C309.941 33.108 310.857 33.2955 311.59 33.6705C312.332 34.0369 312.928 34.4972 313.38 35.0511C313.84 35.5966 314.19 36.1335 314.428 36.6619H314.594V26.8182H320.028V53H314.658V49.8551H314.428C314.173 50.4006 313.81 50.9418 313.342 51.4787C312.881 52.0071 312.281 52.446 311.539 52.7955C310.806 53.1449 309.911 53.3196 308.854 53.3196ZM310.58 48.9858C311.458 48.9858 312.2 48.7472 312.805 48.2699C313.418 47.7841 313.887 47.1065 314.211 46.2372C314.543 45.3679 314.71 44.3494 314.71 43.1818C314.71 42.0142 314.548 41 314.224 40.1392C313.9 39.2784 313.431 38.6136 312.817 38.1449C312.204 37.6761 311.458 37.4418 310.58 37.4418C309.685 37.4418 308.931 37.6847 308.317 38.1705C307.704 38.6562 307.239 39.3295 306.924 40.1903C306.609 41.0511 306.451 42.0483 306.451 43.1818C306.451 44.3239 306.609 45.3338 306.924 46.2116C307.248 47.081 307.712 47.7628 308.317 48.2571C308.931 48.7429 309.685 48.9858 310.58 48.9858ZM333.454 53.3835C331.434 53.3835 329.696 52.9744 328.238 52.1562C326.789 51.3295 325.673 50.1619 324.889 48.6534C324.105 47.1364 323.713 45.3423 323.713 43.2713C323.713 41.2514 324.105 39.4787 324.889 37.9531C325.673 36.4276 326.777 35.2386 328.2 34.3864C329.632 33.5341 331.311 33.108 333.237 33.108C334.532 33.108 335.738 33.3168 336.855 33.7344C337.98 34.1435 338.96 34.7614 339.795 35.5881C340.639 36.4148 341.295 37.4545 341.764 38.7074C342.233 39.9517 342.467 41.4091 342.467 43.0795V44.5753H325.886V41.2003H337.341C337.341 40.4162 337.17 39.7216 336.829 39.1165C336.488 38.5114 336.015 38.0384 335.41 37.6974C334.814 37.348 334.119 37.1733 333.326 37.1733C332.5 37.1733 331.767 37.3651 331.127 37.7486C330.497 38.1236 330.002 38.6307 329.645 39.2699C329.287 39.9006 329.103 40.6037 329.095 41.3793V44.5881C329.095 45.5597 329.274 46.3991 329.632 47.1065C329.998 47.8139 330.514 48.3594 331.179 48.7429C331.843 49.1264 332.632 49.3182 333.544 49.3182C334.149 49.3182 334.703 49.233 335.206 49.0625C335.708 48.892 336.139 48.6364 336.497 48.2955C336.855 47.9545 337.127 47.5369 337.315 47.0426L342.352 47.375C342.096 48.5852 341.572 49.642 340.779 50.5455C339.995 51.4403 338.981 52.1392 337.737 52.642C336.501 53.1364 335.074 53.3835 333.454 53.3835Z" fill="white"/>
</svg>
