<svg width="1280" height="80" viewBox="0 0 1280 80" fill="none" xmlns="http://www.w3.org/2000/svg">
<path d="M1264 0H16C7.16344 0 0 4.47715 0 10V70C0 75.5229 7.16344 80 16 80H1264C1272.84 80 1280 75.5229 1280 70V10C1280 4.47715 1272.84 0 1264 0Z" fill="#1D1D1D"/>
<path d="M65.2501 55.75V52.25C65.2501 50.3935 64.5126 48.613 63.1998 47.3003C61.8871 45.9875 60.1066 45.25 58.2501 45.25H47.7501C45.8935 45.25 44.1131 45.9875 42.8003 47.3003C41.4876 48.613 40.7501 50.3935 40.7501 52.25V55.75" stroke="#D40101" stroke-width="3" stroke-linecap="round" stroke-linejoin="round"/>
<path d="M53.0001 38.25C56.8661 38.25 60.0001 35.116 60.0001 31.25C60.0001 27.384 56.8661 24.25 53.0001 24.25C49.1341 24.25 46.0001 27.384 46.0001 31.25C46.0001 35.116 49.1341 38.25 53.0001 38.25Z" stroke="#D40101" stroke-width="3" stroke-linecap="round" stroke-linejoin="round"/>
<path d="M116.447 26.8182H121.983V43.821C121.983 45.7301 121.527 47.4006 120.615 48.8324C119.712 50.2642 118.446 51.3807 116.818 52.1818C115.19 52.9744 113.294 53.3707 111.129 53.3707C108.956 53.3707 107.055 52.9744 105.428 52.1818C103.8 51.3807 102.534 50.2642 101.631 48.8324C100.727 47.4006 100.276 45.7301 100.276 43.821V26.8182H105.811V43.348C105.811 44.3452 106.028 45.2315 106.463 46.0071C106.906 46.7827 107.528 47.392 108.33 47.8352C109.131 48.2784 110.064 48.5 111.129 48.5C112.203 48.5 113.136 48.2784 113.929 47.8352C114.73 47.392 115.348 46.7827 115.783 46.0071C116.226 45.2315 116.447 44.3452 116.447 43.348V26.8182ZM142.773 38.9631L137.787 39.2699C137.702 38.8437 137.519 38.4602 137.238 38.1193C136.956 37.7699 136.586 37.4929 136.125 37.2884C135.674 37.0753 135.132 36.9688 134.502 36.9688C133.658 36.9688 132.946 37.1477 132.367 37.5057C131.787 37.8551 131.498 38.3239 131.498 38.9119C131.498 39.3807 131.685 39.777 132.06 40.1009C132.435 40.4247 133.078 40.6847 133.99 40.8807L137.544 41.5966C139.453 41.9886 140.877 42.6193 141.814 43.4886C142.752 44.358 143.221 45.5 143.221 46.9148C143.221 48.2017 142.841 49.331 142.083 50.3026C141.333 51.2741 140.301 52.0327 138.989 52.5781C137.685 53.1151 136.181 53.3835 134.476 53.3835C131.877 53.3835 129.806 52.8423 128.263 51.7599C126.729 50.669 125.83 49.1861 125.566 47.3111L130.922 47.0298C131.084 47.8224 131.476 48.4276 132.098 48.8452C132.721 49.2543 133.517 49.4588 134.489 49.4588C135.444 49.4588 136.211 49.2756 136.79 48.9091C137.378 48.5341 137.676 48.0526 137.685 47.4645C137.676 46.9702 137.468 46.5653 137.059 46.25C136.65 45.9261 136.019 45.679 135.167 45.5085L131.766 44.831C129.848 44.4474 128.421 43.7827 127.483 42.8366C126.554 41.8906 126.09 40.6847 126.09 39.2188C126.09 37.9574 126.431 36.8707 127.113 35.9588C127.803 35.0469 128.77 34.3438 130.015 33.8494C131.267 33.3551 132.733 33.108 134.412 33.108C136.892 33.108 138.844 33.6321 140.267 34.6804C141.699 35.7287 142.534 37.1562 142.773 38.9631ZM155.599 53.3835C153.579 53.3835 151.84 52.9744 150.383 52.1562C148.934 51.3295 147.817 50.1619 147.033 48.6534C146.249 47.1364 145.857 45.3423 145.857 43.2713C145.857 41.2514 146.249 39.4787 147.033 37.9531C147.817 36.4276 148.921 35.2386 150.344 34.3864C151.776 33.5341 153.455 33.108 155.381 33.108C156.677 33.108 157.883 33.3168 158.999 33.7344C160.124 34.1435 161.104 34.7614 161.94 35.5881C162.783 36.4148 163.44 37.4545 163.908 38.7074C164.377 39.9517 164.612 41.4091 164.612 43.0795V44.5753H148.031V41.2003H159.485C159.485 40.4162 159.315 39.7216 158.974 39.1165C158.633 38.5114 158.16 38.0384 157.555 37.6974C156.958 37.348 156.263 37.1733 155.471 37.1733C154.644 37.1733 153.911 37.3651 153.272 37.7486C152.641 38.1236 152.147 38.6307 151.789 39.2699C151.431 39.9006 151.248 40.6037 151.239 41.3793V44.5881C151.239 45.5597 151.418 46.3991 151.776 47.1065C152.143 47.8139 152.658 48.3594 153.323 48.7429C153.988 49.1264 154.776 49.3182 155.688 49.3182C156.293 49.3182 156.847 49.233 157.35 49.0625C157.853 48.892 158.283 48.6364 158.641 48.2955C158.999 47.9545 159.272 47.5369 159.46 47.0426L164.496 47.375C164.241 48.5852 163.717 49.642 162.924 50.5455C162.14 51.4403 161.126 52.1392 159.881 52.642C158.646 53.1364 157.218 53.3835 155.599 53.3835ZM168.165 53V33.3636H173.445V36.7898H173.65C174.008 35.571 174.609 34.6506 175.452 34.0284C176.296 33.3977 177.268 33.0824 178.367 33.0824C178.64 33.0824 178.934 33.0994 179.249 33.1335C179.565 33.1676 179.842 33.2145 180.08 33.2741V38.1065C179.825 38.0298 179.471 37.9616 179.019 37.902C178.567 37.8423 178.154 37.8125 177.779 37.8125C176.978 37.8125 176.262 37.9872 175.631 38.3366C175.009 38.6776 174.515 39.1548 174.148 39.7685C173.79 40.3821 173.612 41.0895 173.612 41.8906V53H168.165ZM200.075 60.7727C198.31 60.7727 196.798 60.5298 195.536 60.044C194.283 59.5668 193.286 58.9148 192.545 58.0881C191.803 57.2614 191.322 56.3324 191.1 55.3011L196.137 54.6236C196.29 55.0156 196.533 55.3821 196.866 55.723C197.198 56.0639 197.637 56.3366 198.183 56.5412C198.737 56.7543 199.41 56.8608 200.202 56.8608C201.387 56.8608 202.363 56.571 203.13 55.9915C203.906 55.4205 204.293 54.4616 204.293 53.1151V49.5227H204.063C203.825 50.0682 203.467 50.5838 202.989 51.0696C202.512 51.5554 201.898 51.9517 201.148 52.2585C200.398 52.5653 199.504 52.7188 198.464 52.7188C196.989 52.7188 195.647 52.3778 194.437 51.696C193.235 51.0057 192.276 49.9531 191.56 48.5384C190.853 47.1151 190.499 45.3168 190.499 43.1435C190.499 40.919 190.862 39.0611 191.586 37.5696C192.31 36.0781 193.273 34.9616 194.475 34.2202C195.685 33.4787 197.011 33.108 198.451 33.108C199.55 33.108 200.471 33.2955 201.212 33.6705C201.954 34.0369 202.55 34.4972 203.002 35.0511C203.462 35.5966 203.816 36.1335 204.063 36.6619H204.268V33.3636H209.675V53.1918C209.675 54.8622 209.266 56.2599 208.448 57.3849C207.63 58.5099 206.496 59.3537 205.048 59.9162C203.607 60.4872 201.95 60.7727 200.075 60.7727ZM200.19 48.6278C201.067 48.6278 201.809 48.4105 202.414 47.9759C203.028 47.5327 203.496 46.902 203.82 46.0838C204.153 45.2571 204.319 44.2685 204.319 43.1179C204.319 41.9673 204.157 40.9702 203.833 40.1264C203.509 39.2741 203.04 38.6136 202.427 38.1449C201.813 37.6761 201.067 37.4418 200.19 37.4418C199.295 37.4418 198.54 37.6847 197.927 38.1705C197.313 38.6477 196.849 39.3125 196.533 40.1648C196.218 41.017 196.06 42.0014 196.06 43.1179C196.06 44.2514 196.218 45.2315 196.533 46.0582C196.857 46.8764 197.322 47.5114 197.927 47.9631C198.54 48.4062 199.295 48.6278 200.19 48.6278ZM226.602 44.6392V33.3636H232.048V53H226.819V49.4332H226.614C226.171 50.5838 225.434 51.5085 224.403 52.2074C223.38 52.9062 222.131 53.2557 220.657 53.2557C219.344 53.2557 218.19 52.9574 217.192 52.3608C216.195 51.7642 215.415 50.9162 214.853 49.8168C214.299 48.7173 214.018 47.4006 214.009 45.8665V33.3636H219.455V44.8949C219.464 46.054 219.775 46.9702 220.388 47.6435C221.002 48.3168 221.825 48.6534 222.856 48.6534C223.512 48.6534 224.126 48.5043 224.697 48.206C225.268 47.8991 225.728 47.4474 226.077 46.8509C226.435 46.2543 226.61 45.517 226.602 44.6392ZM236.404 53V33.3636H241.85V53H236.404ZM239.14 30.8324C238.33 30.8324 237.635 30.5639 237.056 30.027C236.485 29.4815 236.199 28.8295 236.199 28.071C236.199 27.321 236.485 26.6776 237.056 26.1406C237.635 25.5952 238.33 25.3224 239.14 25.3224C239.949 25.3224 240.64 25.5952 241.211 26.1406C241.79 26.6776 242.08 27.321 242.08 28.071C242.08 28.8295 241.79 29.4815 241.211 30.027C240.64 30.5639 239.949 30.8324 239.14 30.8324ZM253.448 53.3196C251.957 53.3196 250.606 52.9361 249.396 52.169C248.194 51.3935 247.239 50.2557 246.532 48.7557C245.833 47.2472 245.484 45.3977 245.484 43.2074C245.484 40.9574 245.846 39.0866 246.57 37.5952C247.295 36.0952 248.258 34.9744 249.46 34.233C250.67 33.483 251.995 33.108 253.435 33.108C254.535 33.108 255.451 33.2955 256.184 33.6705C256.925 34.0369 257.522 34.4972 257.974 35.0511C258.434 35.5966 258.783 36.1335 259.022 36.6619H259.188V26.8182H264.621V53H259.252V49.8551H259.022C258.766 50.4006 258.404 50.9418 257.935 51.4787C257.475 52.0071 256.874 52.446 256.133 52.7955C255.4 53.1449 254.505 53.3196 253.448 53.3196ZM255.174 48.9858C256.052 48.9858 256.793 48.7472 257.398 48.2699C258.012 47.7841 258.481 47.1065 258.805 46.2372C259.137 45.3679 259.303 44.3494 259.303 43.1818C259.303 42.0142 259.141 41 258.817 40.1392C258.494 39.2784 258.025 38.6136 257.411 38.1449C256.798 37.6761 256.052 37.4418 255.174 37.4418C254.279 37.4418 253.525 37.6847 252.911 38.1705C252.298 38.6562 251.833 39.3295 251.518 40.1903C251.202 41.0511 251.045 42.0483 251.045 43.1818C251.045 44.3239 251.202 45.3338 251.518 46.2116C251.842 47.081 252.306 47.7628 252.911 48.2571C253.525 48.7429 254.279 48.9858 255.174 48.9858ZM278.048 53.3835C276.028 53.3835 274.289 52.9744 272.832 52.1562C271.383 51.3295 270.267 50.1619 269.483 48.6534C268.699 47.1364 268.306 45.3423 268.306 43.2713C268.306 41.2514 268.699 39.4787 269.483 37.9531C270.267 36.4276 271.37 35.2386 272.794 34.3864C274.225 33.5341 275.904 33.108 277.831 33.108C279.126 33.108 280.332 33.3168 281.449 33.7344C282.574 34.1435 283.554 34.7614 284.389 35.5881C285.233 36.4148 285.889 37.4545 286.358 38.7074C286.826 39.9517 287.061 41.4091 287.061 43.0795V44.5753H270.48V41.2003H281.934C281.934 40.4162 281.764 39.7216 281.423 39.1165C281.082 38.5114 280.609 38.0384 280.004 37.6974C279.407 37.348 278.713 37.1733 277.92 37.1733C277.093 37.1733 276.36 37.3651 275.721 37.7486C275.091 38.1236 274.596 38.6307 274.238 39.2699C273.88 39.9006 273.697 40.6037 273.689 41.3793V44.5881C273.689 45.5597 273.868 46.3991 274.225 47.1065C274.592 47.8139 275.108 48.3594 275.772 48.7429C276.437 49.1264 277.225 49.3182 278.137 49.3182C278.743 49.3182 279.297 49.233 279.799 49.0625C280.302 48.892 280.733 48.6364 281.091 48.2955C281.449 47.9545 281.721 47.5369 281.909 47.0426L286.946 47.375C286.69 48.5852 286.166 49.642 285.373 50.5455C284.589 51.4403 283.575 52.1392 282.331 52.642C281.095 53.1364 279.667 53.3835 278.048 53.3835Z" fill="white"/>
</svg>
