<svg
  viewBox="0 0 12 12"
  xmlns="http://www.w3.org/2000/svg"
  fill="none"
  height="20"
>
  <path
    fill-rule="evenodd"
    clip-rule="evenodd"
    d="M6 0C2.686 0 0 2.754 0 6.152c0 2.718 1.719 5.024 4.103 5.837.3.057.41-.133.41-.296 0-.146-.005-.533-.008-1.046-1.67.371-2.021-.825-2.021-.825-.273-.711-.667-.9-.667-.9-.544-.382.042-.374.042-.374.602.043.919.634.919.634.535.94 1.404.668 1.746.51.054-.396.21-.668.38-.821-1.332-.156-2.732-.683-2.732-3.04 0-.673.234-1.221.617-1.651-.061-.156-.267-.781.06-1.629 0 0 .503-.165 1.65.63A5.629 5.629 0 0 1 6 2.976c.51.002 1.023.07 1.502.207 1.146-.796 1.649-.63 1.649-.63.327.847.121 1.472.06 1.628.384.43.616.978.616 1.65 0 2.364-1.403 2.884-2.74 3.036.216.19.408.565.408 1.14 0 .821-.007 1.485-.007 1.687 0 .164.108.356.412.296 2.383-.816 4.1-3.12 4.1-5.837C12 2.754 9.313 0 6 0"
    fill="#ffffff"
  ></path>
</svg>
