<svg viewBox="0 0 20 20" xmlns="http://www.w3.org/2000/svg" fill="none">
  <path
    d="M4.805 3.089c0 1.175-.884 2.115-2.304 2.115h-.026c-1.367 0-2.251-.94-2.251-2.115 0-1.2.91-2.113 2.304-2.113 1.393 0 2.25.913 2.277 2.113Zm-.268 3.785V19.11H.465V6.874h4.072ZM19.224 19.11v-7.016c0-3.758-2.01-5.507-4.689-5.507-2.162 0-3.13 1.187-3.67 2.02V6.874H6.791c.053 1.148 0 12.236 0 12.236h4.072v-6.833c0-.366.027-.73.135-.993.294-.73.964-1.487 2.09-1.487 1.473 0 2.063 1.122 2.063 2.767v6.546h4.072Z"
    fill="#ffffff"
  />
</svg>
