<svg xmlns="http://www.w3.org/2000/svg" fill="none" viewBox="0 0 22 23">
  <path fill="#ffffff" fill-rule="evenodd" d="M15.335 17.404c2.756-.33 5.156-2.028 5.458-3.58.475-2.444.436-5.965.436-5.965 0-4.773-3.127-6.172-3.127-6.172C16.526.963 13.818.66 11.006.636h-.07C8.125.659 5.42.963 3.843 1.687c0 0-3.127 1.4-3.127 6.172l-.003.91c-.004.88-.01 1.856.016 2.875.114 4.667.856 9.267 5.171 10.41 1.99.526 3.698.636 5.074.56 2.495-.138 3.895-.89 3.895-.89l-.082-1.81s-1.783.562-3.785.493c-1.984-.068-4.078-.213-4.4-2.65a4.994 4.994 0 0 1-.044-.682s1.948.476 4.416.589c1.509.07 2.924-.088 4.361-.26Zm2.206-3.396v-5.78c0-1.18-.301-2.119-.905-2.813-.623-.694-1.439-1.05-2.451-1.05-1.172 0-2.06.45-2.646 1.35l-.57.957-.57-.956c-.587-.901-1.474-1.351-2.646-1.351-1.012 0-1.828.356-2.45 1.05-.605.694-.905 1.633-.905 2.814v5.779h2.289v-5.61c0-1.182.497-1.782 1.492-1.782 1.1 0 1.652.712 1.652 2.12v3.07h2.276v-3.07c0-1.408.551-2.12 1.652-2.12.995 0 1.492.6 1.492 1.783v5.609h2.29Z" clip-rule="evenodd"/>
</svg>
