<svg xmlns="http://www.w3.org/2000/svg" fill="none" viewBox="0 0 35 35">
  <path fill="#ffffff" d="M13.148 17.043c-.974 0-1.765.791-1.765 1.765 0 .974.791 1.785 1.765 1.765a1.766 1.766 0 0 0 0-3.53Zm3.915 7.75c.67 0 2.982-.082 4.2-1.299a.494.494 0 0 0 0-.65.454.454 0 0 0-.65 0c-.75.772-2.393 1.035-3.55 1.035-1.156 0-2.779-.263-3.55-1.034a.454.454 0 0 0-.65 0 .454.454 0 0 0 0 .65c1.198 1.196 3.51 1.298 4.2 1.298Zm2.11-5.965c0 .974.791 1.765 1.765 1.765a1.78 1.78 0 0 0 1.765-1.765 1.766 1.766 0 0 0-3.53 0Z"/>
  <path fill="#ffffff" fill-rule="evenodd" d="M34.043 17.043c0 9.389-7.611 17-17 17s-17-7.611-17-17 7.611-17 17-17 17 7.611 17 17Zm-8.135-2.475a2.472 2.472 0 0 1 2.475 2.475 2.5 2.5 0 0 1-1.46 2.272c.04.243.06.507.06.75 0 3.835-4.442 6.918-9.92 6.918-5.477 0-9.92-3.104-9.92-6.917 0-.264.02-.508.061-.75a2.472 2.472 0 0 1 1.014-4.727c.67 0 1.278.263 1.725.69 1.724-1.238 4.098-2.03 6.735-2.11l1.258-5.924a.393.393 0 0 1 .182-.284c.081-.061.203-.082.325-.061l4.118.872a1.764 1.764 0 0 1 1.582-.994 1.766 1.766 0 1 1-1.765 1.846l-3.692-.791-1.136 5.315c2.597.101 4.93.893 6.634 2.11a2.491 2.491 0 0 1 1.724-.69Z" clip-rule="evenodd"/>
</svg>
