<svg viewBox="0 0 24 20" xmlns="http://www.w3.org/2000/svg" fill="none">
  <path
    d="m11.558 5.658.049.81-.82-.099C7.806 5.99 5.2 4.7 2.989 2.532L1.907 1.456l-.279.794c-.59 1.77-.213 3.64 1.016 4.897.655.695.508.794-.623.38-.393-.132-.737-.231-.77-.182-.114.116.279 1.621.59 2.217.426.827 1.295 1.638 2.245 2.117l.803.38-.95.017c-.918 0-.95.017-.853.364.328 1.076 1.623 2.217 3.065 2.713l1.015.348-.884.529a9.226 9.226 0 0 1-4.392 1.224c-.737.017-1.343.083-1.343.133 0 .165 1.999 1.091 3.162 1.455 3.49 1.075 7.636.612 10.749-1.224 2.212-1.307 4.424-3.904 5.456-6.418.557-1.34 1.115-3.788 1.115-4.963 0-.76.049-.86.966-1.77.541-.53 1.049-1.108 1.147-1.274.164-.314.148-.314-.688-.033-1.393.496-1.59.43-.901-.314.508-.53 1.114-1.489 1.114-1.77 0-.05-.246.033-.524.182-.295.165-.95.413-1.442.562l-.885.281-.803-.545c-.442-.298-1.065-.629-1.393-.728-.835-.232-2.113-.199-2.867.066-2.048.744-3.343 2.663-3.195 4.764Z"
    fill="#ffffff"
  />
</svg>
