<svg viewBox="0 0 26 18" xmlns="http://www.w3.org/2000/svg" fill="none">
  <path
    d="M25.338 4.026s-.21-1.776-1.046-2.508C23.352.473 22.308.473 21.785.473c-3.554-.21-8.78-.21-8.78-.21s-5.225 0-8.78.21c-.522.104-1.567.104-2.508 1.045C.985 2.25.671 4.026.671 4.026S.462 6.012.462 8.103v1.88c0 1.987.21 4.077.21 4.077s.208 1.777 1.044 2.509c.941 1.045 2.195.94 2.718 1.045 1.986.209 8.57.209 8.57.209s5.226 0 8.78-.314c.523-.104 1.568-.104 2.509-1.045.731-.732 1.045-2.508 1.045-2.508s.209-1.986.209-4.077V8c0-1.987-.21-3.973-.21-3.973Zm-14.946 8.257V5.281l6.793 3.553-6.793 3.45Z"
    fill="#ffffff"
  />
</svg>
