<svg xmlns="http://www.w3.org/2000/svg" fill="none" viewBox="0 0 581 103">
  <path
    fill="#fff"
    d="M15.68 68.5h9.6c6.37 0 10.78-1.38 13.42-4.04 2.65-2.66 3.92-7.19 3.92-13.4s-1.18-10.25-3.63-12.71c-2.45-2.66-6.57-3.84-12.54-3.84H15.68V68.5ZM0 21.58h30.18c9.11 0 16.17 2.66 21.26 8.08 5.1 5.42 7.64 12.91 7.64 22.47 0 3.94-.49 7.59-1.57 10.84s-2.65 6.31-4.8 8.97c-2.55 3.25-5.68 5.62-9.21 7.1-3.63 1.38-8.33 2.07-14.31 2.07H15.68v21.58H0V21.58Zm90.64 47.61h19.6V56.87H91.82c-3.63 0-6.17.49-7.55 1.48-1.37.99-2.06 2.76-2.06 5.22 0 2.07.59 3.55 1.67 4.44 1.08.79 3.33 1.18 6.76 1.18Zm11.27-47.6c8.13 0 14.21 1.87 18.32 5.62 4.12 3.75 6.17 9.26 6.17 16.66v37.35H84.26c-5.88 0-10.49-1.48-13.62-4.43-3.14-2.96-4.7-7.19-4.7-12.71 0-6.8 1.76-11.63 5.39-14.59 3.63-2.96 9.7-4.43 18.23-4.43h20.58v-1.48c0-3.55-1.08-6.01-3.14-7.49-2.06-1.48-5.68-2.17-11.07-2.17H69.86V21.6l32.05-.01Zm37.24 47.2h33.02c2.94 0 5.1-.49 6.37-1.38 1.37-.89 2.06-2.37 2.06-4.43 0-2.06-.69-3.55-2.06-4.44-1.37-.99-3.53-1.48-6.37-1.48h-13.52c-8.04 0-13.43-1.28-16.27-3.75-2.84-2.46-4.21-6.9-4.21-13.11 0-6.21 1.67-11.14 5.1-14.19 3.43-3.06 8.72-4.53 15.78-4.53h33.61V33.9h-27.63c-4.51 0-7.45.39-8.82 1.18-1.37.79-2.06 2.17-2.06 4.24 0 1.87.59 3.25 1.76 4.04 1.18.89 3.14 1.28 5.68 1.28h14.21c6.47 0 11.47 1.58 14.8 4.63 3.43 3.06 5.1 7.39 5.1 13.11s-1.57 10.05-4.61 13.5c-3.04 3.45-6.86 5.22-11.66 5.22h-40.28V68.79Zm99.85 0c2.94 0 5.1-.49 6.37-1.38 1.37-.89 2.06-2.37 2.06-4.43 0-2.06-.69-3.55-2.06-4.44-1.37-.99-3.53-1.48-6.37-1.48h-13.52c-8.04 0-13.43-1.28-16.27-3.75-2.84-2.46-4.21-6.9-4.21-13.11 0-6.21 1.67-11.14 5.1-14.19 3.43-3.06 8.72-4.53 15.78-4.53h33.61V33.9h-27.63c-4.51 0-7.45.39-8.82 1.18-1.37.79-2.06 2.17-2.06 4.24 0 1.87.59 3.25 1.76 4.04 1.18.89 3.14 1.28 5.68 1.28h14.21c6.47 0 11.47 1.58 14.8 4.63 3.43 3.06 5.1 7.39 5.1 13.11s-1.57 10.05-4.61 13.5c-3.04 3.45-6.86 5.22-11.66 5.22h-40.47V68.78l33.21.01Zm50.47-47.21h13.43c5.98 0 10.68.69 14.31 2.17 3.63 1.38 6.66 3.75 9.21 7 2.16 2.76 3.72 5.72 4.8 9.07 1.08 3.25 1.57 6.9 1.57 10.84 0 9.56-2.55 17.05-7.64 22.47-5.1 5.42-12.15 8.08-21.26 8.08h-30.18V0h15.78l-.02 21.58Zm9.51 12.92h-9.6v34h10.78c5.98 0 10.19-1.28 12.54-3.75 2.45-2.56 3.63-6.8 3.63-12.91s-1.37-10.64-4.02-13.31c-2.55-2.76-7.06-4.03-13.33-4.03Zm55.95 16.95c0 5.72 1.27 10.05 3.92 13.31 2.65 3.15 6.27 4.73 11.07 4.73 4.8 0 8.33-1.58 11.07-4.73 2.64-3.15 4.02-7.59 4.02-13.31 0-5.72-1.37-10.05-4.02-13.21-2.65-3.15-6.27-4.73-11.07-4.73-4.8 0-8.33 1.58-11.07 4.73-2.65 3.15-3.92 7.59-3.92 13.21Zm46.45 0c0 9.36-2.84 16.85-8.53 22.47-5.69 5.52-13.23 8.38-22.83 8.38-9.6 0-17.25-2.76-22.93-8.38-5.68-5.62-8.53-13.01-8.53-22.37 0-9.36 2.84-16.85 8.53-22.47 5.68-5.62 13.33-8.48 22.93-8.48s17.15 2.86 22.83 8.48c5.68 5.52 8.53 13.01 8.53 22.37Zm25.67 29.76h-16.27V0h16.27v81.21Zm18.62-59.63V0h15.68v21.58h16.56v11.93h-16.56v24.05c0 4.44.78 7.49 2.25 9.26 1.47 1.68 4.12 2.56 7.84 2.56h6.47v11.93H463.5c-5.78 0-10.19-1.58-13.33-4.83-3.04-3.25-4.61-7.88-4.61-13.9V33.51h-11.07V21.58h11.18Z"
  />
  <path
    fill="#E10600"
    d="m542.98 7.19 35.08 33.02c3.33 3.25 3.33 8.58 0 11.73l-34.98 33.02c-3.14 2.86-7.94 2.86-10.98 0l-22.15-20.8c5.89-2.07 10.39-7 12.06-13.11h13.23v6.41c0 1.48 1.17 2.76 2.74 2.76h7.54c1.47 0 2.74-1.18 2.74-2.76v-6.41h3.43c1.47 0 2.74-1.18 2.74-2.76v-4.53c0-1.48-1.17-2.76-2.74-2.76H521.9c-1.66-6.01-6.17-10.84-11.95-13.01L532 7.19c3.14-2.86 7.94-2.86 10.98 0Z"
  />
  <path
    fill="#E10600"
    d="M499.38 37.95c1.27-.6 2.64-.99 4.11-.99v-.01c5 0 9.11 4.14 8.92 9.07 0 5.03-4.02 9.07-9.02 9.07-1.57 0-3.04-.39-4.31-1.08-2.84-1.57-4.7-4.43-4.7-7.98 0-3.55 2.06-6.6 5-8.08Z"
  />
</svg>
