<svg xmlns="http://www.w3.org/2000/svg" width="48" height="48" fill="none" viewBox="0 0 48 48">
  <path fill="#86DA2F" d="M44.135 27.055c2.045-.157 3.696 1.181 3.854 3.227.157 2.125-1.337 3.856-3.382 4.014-1.967.157-3.697-1.338-3.854-3.306-.158-2.124 1.258-3.698 3.382-3.934Z"/>
  <path fill="#24C2FF" d="M19.28 43.818c0-2.046 1.573-3.62 3.461-3.62s3.697 1.731 3.697 3.699c0 1.888-1.573 3.54-3.382 3.62-2.281 0-3.776-1.417-3.776-3.7Z"/>
  <path fill="#FFCB12" d="M24.865 20.839c-.314.157-.472-.08-.55-.315-2.91-5.43-2.045-12.277 3.067-16.37 1.337-1.1 3.854-1.337 4.955-.235.472.393.55.866.63 1.416.157 1.18.392 2.361 1.179 3.306.865 1.023 1.966 1.416 3.225 1.337 1.1 0 2.202-.157 2.91 1.102.393.709.236 3.463-.393 4.014-.315.236-.551.078-.787 0-1.809-.708-3.697-.708-5.584-.394-.63.079-.944-.078-.944-.787-.079-1.18-.315-2.282-.944-3.305-1.18-2.125-3.382-2.203-4.798-.236-1.18 1.574-1.494 3.463-1.809 5.351-.314 1.653-.236 3.384-.157 5.116 0 0-.079 0 0 0Z"/>
  <path fill="#86DA2F" d="M26.831 22.02c-.157-.237-.078-.473.158-.63 4.483-4.093 11.168-4.88 16.36-.866 1.336 1.102 2.202 3.384 1.494 4.722-.315.55-.708.787-1.18.944-1.101.472-2.124.944-2.832 1.967-.708 1.023-.865 2.204-.55 3.463.236 1.023.629 2.125-.393 3.07-.551.55-3.225 1.022-3.933.55-.315-.236-.236-.472-.157-.787.236-1.967-.236-3.777-.944-5.509-.236-.63-.157-.944.472-1.101 1.1-.315 2.123-.866 2.91-1.653 1.73-1.652 1.337-3.777-.944-4.722-1.809-.787-3.697-.63-5.506-.472-1.73.079-3.382.551-4.955 1.023Z"/>
  <path fill="#24C2FF" d="M25.809 24.065c.236-.236.393-.157.629 0 5.19 3.148 7.865 9.365 5.506 15.424-.63 1.574-2.675 3.148-4.17 2.755-.628-.157-.943-.472-1.258-.866-.707-.944-1.494-1.81-2.674-2.203-1.258-.394-2.36-.158-3.46.472-.944.55-1.888 1.259-3.068.55-.708-.393-1.887-2.832-1.652-3.62.158-.314.472-.314.787-.314 1.966-.315 3.54-1.26 5.034-2.518.472-.394.865-.394 1.258.157.63.944 1.416 1.731 2.438 2.282 2.045 1.18 4.012.158 4.248-2.203.236-1.968-.472-3.699-1.101-5.43-.708-1.574-1.574-3.07-2.517-4.486Z"/>
  <path fill="#0069DA" d="M23.292 24.537c-.315 1.574-1.022 3.07-1.966 4.407-2.832 4.25-6.922 5.981-11.955 5.509-1.81-.158-3.304-1.653-3.461-3.148-.079-.63.079-1.102.472-1.574.55-.708 1.022-1.338 1.258-2.204.472-1.73-.157-3.147-1.415-4.407-1.73-1.73-1.495-3.305.55-4.564.236-.157.55-.315.865-.472.472-.236.866-.236 1.023.315.708 1.81 2.123 3.148 3.697 4.25.55.471.55.786.078 1.337a5.845 5.845 0 0 0-1.573 3.699c-.157 1.731.865 2.833 2.596 2.833 1.1 0 2.123-.393 3.067-.866 2.438-1.259 4.326-3.069 6.135-4.958.236-.078.314-.236.63-.157Z"/>
  <path fill="#FF4649" d="M10.393 8.011c.157 0 .55.079.944.157 2.91.551 4.719-.472 5.663-3.226.629-1.81 1.966-2.361 3.696-1.417.079 0 .079.08.158.08 1.809 1.022 1.809 1.18.707 2.753-.943 1.26-1.415 2.676-1.651 4.171-.157.866-.472 1.023-1.259.709-1.258-.473-2.595-.473-3.932 0-1.495.472-2.124 1.81-1.652 3.305.63 1.967 2.36 2.833 3.854 3.856 1.495 1.023 3.225 1.574 4.877 2.282.235.079.629.079.55.472-.079.236-.393.236-.708.236-3.54.158-6.921-.393-9.674-2.754-2.596-2.125-4.483-4.722-4.169-8.342.236-1.18 1.102-2.046 2.596-2.282Z"/>
  <path fill="#0069DA" d="M3.943 30.125C2.056 30.36.168 28.787.011 26.819c-.157-1.888 1.416-3.777 3.225-3.934 2.045-.237 3.932 1.18 4.09 3.069.078 1.81-1.102 4.013-3.383 4.17Z"/>
  <path fill="#FFCB12" d="M36.977 2.109c1.967-.157 3.854 1.417 4.012 3.384.157 1.889-1.416 3.699-3.304 3.856-2.045.157-3.854-1.338-4.011-3.305-.157-1.968 1.258-3.778 3.303-3.935Z"/>
  <path fill="#FF4649" d="M16.449 3.604c.236 2.046-1.18 3.777-3.304 4.092-1.809.236-3.696-1.259-3.932-2.99C8.977 2.424 10.235.77 12.359.535c1.966-.236 3.854 1.259 4.09 3.069Z"/>
</svg>