<?xml version="1.0" encoding="UTF-8" standalone="no"?><!-- Generator: Gravit.io --><svg xmlns="http://www.w3.org/2000/svg" xmlns:xlink="http://www.w3.org/1999/xlink" style="isolation:isolate" viewBox="0 0 300 300" width="300pt" height="300pt"><g><path d=" M 189.799 235.099 L 243.822 235.099 L 243.822 166.895 L 189.799 166.895 L 189.799 235.099 Z  M 56.184 235.099 L 110.214 235.099 L 110.214 166.895 L 56.184 166.895 L 56.184 235.099 Z  M 122.992 235.099 L 177.021 235.099 L 177.021 166.895 L 122.992 166.895 L 122.992 235.099 Z  M 250.211 154.574 L 49.796 154.574 C 46.263 154.574 43.407 157.334 43.407 160.735 L 43.407 241.26 C 43.407 244.66 46.263 247.42 49.796 247.42 L 250.211 247.42 C 253.737 247.42 256.6 244.66 256.6 241.26 L 256.6 160.735 C 256.6 157.334 253.737 154.574 250.211 154.574 L 250.211 154.574 Z  M 189.799 122.367 L 243.822 122.367 L 243.822 70.267 L 189.799 70.267 L 189.799 122.367 Z  M 56.184 122.367 L 110.214 122.367 L 110.214 70.267 L 56.184 70.267 L 56.184 122.367 Z  M 122.992 122.367 L 177.021 122.367 L 177.021 70.267 L 122.992 70.267 L 122.992 122.367 Z  M 250.211 57.945 L 49.796 57.945 C 46.263 57.945 43.407 60.705 43.407 64.106 L 43.407 128.527 C 43.407 131.928 46.263 134.688 49.796 134.688 L 250.211 134.688 C 253.737 134.688 256.6 131.928 256.6 128.527 L 256.6 64.106 C 256.6 60.705 253.737 57.945 250.211 57.945 L 250.211 57.945 Z  M 277.222 245.277 C 277.222 260.388 264.477 272.679 248.812 272.679 L 51.195 272.679 C 35.523 272.679 22.778 260.388 22.778 245.277 L 22.778 54.723 C 22.778 39.612 35.523 27.321 51.195 27.321 L 248.812 27.321 C 264.477 27.321 277.222 39.612 277.222 54.723 L 277.222 245.277 Z  M 248.812 15 L 51.195 15 C 28.483 15 10 32.816 10 54.723 L 10 245.277 C 10 267.177 28.483 285 51.195 285 L 248.812 285 C 271.524 285 290 267.177 290 245.277 L 290 54.723 C 290 32.816 271.524 15 248.812 15 L 248.812 15 Z " fill-rule="evenodd" fill="rgb(237,113,0)"/></g></svg>