<svg xmlns="http://www.w3.org/2000/svg" width="48" height="48" fill="none" viewBox="0 0 49 49">
  <path fill="#932279" d="m20.716 22.26 1.736 1.753-1.736 1.721H8.5v5.756l-7.456-7.476 7.456-7.38v5.602l12.216.024Z"/>
  <path fill="#EFA724" d="M26.252 20.228 24.5 21.964l-1.72-1.736V8.005h-5.728L24.5.545l7.376 7.46h-5.6l-.024 12.223Z"/>
  <path fill="#262577" d="m28.284 25.767-1.736-1.753 1.736-1.721H40.5V16.56l7.456 7.453-7.456 7.38V25.79l-12.216-.024Z"/>
  <path fill="#9CCD2A" d="m22.748 27.8 1.752-1.737 1.72 1.737v12.223h5.752l-7.472 7.46-7.376-7.46h5.6V27.8h.024ZM8.06 7.564H22.9v14.849H8.06V7.564Z"/>
  <path fill="#fff" d="M7.532 7.036h15.904V22.95H7.532V7.036Zm1.056 14.856H22.38v-13.8H8.588v13.8Z"/>
  <path fill="#932279" d="M26.1 7.564h14.84v14.849H26.1V7.564Z"/>
  <path fill="#fff" d="M25.564 7.036h15.904V22.95H25.564V7.036Zm1.056 14.856h13.793v-13.8H26.62v13.8Z"/>
  <path fill="#EFA724" d="M26.1 25.614h14.84v14.849H26.1V25.614Z"/>
  <path fill="#fff" d="M25.564 25.078h15.904v15.913H25.564V25.078Zm1.056 14.857h13.793v-13.8H26.62v13.8Z"/>
  <path fill="#262577" d="M8.06 25.614H22.9v14.849H8.06V25.614Z"/>
  <path fill="#fff" d="M7.532 25.078h15.904v15.913H7.532V25.078Zm1.056 14.857H22.38v-13.8H8.588v13.8Z"/>
  <path fill="#fff" d="M11.748 35.268.5 24.014l11.248-11.255 11.256 11.255-11.256 11.254ZM2.004 24.014l9.744 9.757 9.752-9.757-9.752-9.758-9.744 9.758ZM24.5 22.517 13.252 11.254 24.5 0l11.248 11.254L24.5 22.517Zm-9.752-11.263 9.752 9.758 9.752-9.758-9.752-9.75-9.752 9.75Zm22.504 24.014L26.004 24.014l11.248-11.255L48.5 24.014 37.252 35.268ZM27.5 24.014l9.752 9.757 9.744-9.757-9.744-9.758-9.752 9.758Zm-3 24.013L13.252 36.773 24.5 25.518l11.248 11.255L24.5 48.027Zm-9.752-11.254 9.752 9.75 9.752-9.75-9.752-9.758-9.752 9.758Z"/>
</svg>