<svg xmlns="http://www.w3.org/2000/svg" width="40" height="49" fill="none" viewBox="0 0 40 49">
  <path fill="#CE4B56" fill-rule="evenodd" d="M23.755 25.394c-.797 0 .15.424 1.179.576.31-.232.534-.464.797-.656a5.558 5.558 0 0 1-1.985.08h.009ZM28.026 24.322c.469-.618.783-1.34.917-2.105a5.695 5.695 0 0 1-.646 1.489c-1.49.92-.151-.576 0-1.145-1.594 2.025-.23 1.225-.27 1.76ZM29.596 20.225c.072-1.425-.31-.96-.422-.424.151.072.263.992.422.424ZM20.742.675c.454.08.917.12.877.232.454-.112.534-.192-.877-.232ZM21.619.908l-.31.04h.27l.04-.04Z" clip-rule="evenodd"/>
  <path fill="#CE4B56" fill-rule="evenodd" d="M34.784 20.833c.04 1.264-.382 1.88-.797 2.993l-.685.344c-.534 1.112.072.688-.343 1.6-.876.8-2.638 2.457-3.188 2.609-.414-.04.271-.496.383-.688-1.18.8-.948 1.224-2.741 1.68l-.04-.112c-4.431 2.105-10.576-2.032-10.496-7.666-.04.344-.111.272-.231.384-.119-1.43.2-2.863.91-4.108a7.056 7.056 0 0 1 3.075-2.862 6.63 6.63 0 0 1 7.443.953 6.516 6.516 0 0 0-2.393-1.966 6.487 6.487 0 0 0-3.026-.635 6.15 6.15 0 0 0-3.05.866 6.182 6.182 0 0 0-2.218 2.27c-1.18.801-1.33 2.913-1.865 3.338-.693 5.177 1.331 7.434 4.782 10.074.534.352.151.424.231.696a9.446 9.446 0 0 1-3.052-2.336 7.352 7.352 0 0 0 1.594 1.832c-1.108-.376-2.519-2.6-2.941-2.72 1.833 3.336 7.523 5.865 10.456 4.6a12.49 12.49 0 0 1-4.654-.535c-.646-.344-1.522-1.033-1.371-1.153 4.08 1.497 8.24 1.153 11.755-1.68.876-.696 1.864-1.88 2.135-1.88-.422.616.072.303-.27.8.916-1.417-.383-.569.916-2.449l.494.648c-.191-1.184 1.49-2.64 1.299-4.521.383-.576.422.616 0 1.953.574-1.489.151-1.72.303-2.945.176.427.33.862.462 1.304-.382-1.456.343-2.4.534-3.257-.191-.08-.574.648-.653-1.04 0-.728.23-.384.27-.576a3.288 3.288 0 0 1-.725-1.68c.152-.273.423.648.646.688-.112-.88-.383-1.537-.383-2.185-.645-1.376-.223.192-.757-.576-.725-2.185.566-.536.646-1.497a16.844 16.844 0 0 1 1.944 4.906 21.593 21.593 0 0 0-.908-3.553c.303.152-.542-2.457.414-.728-1.028-3.721-4.311-7.202-7.324-8.803.383.344.797.8.686.849-1.53-.92-1.26-1-1.45-1.345-1.22-.496-1.3.04-2.136 0-2.304-1.2-2.766-1.096-4.862-1.856l.072.464c-1.522-.536-1.753.192-3.435 0-.072-.08.534-.304 1.068-.384-1.482.192-1.41-.272-2.861.08.355-.242.725-.462 1.108-.656-1.18.08-2.861.728-2.391.152-1.945.88-5.42 2.112-7.404 3.945v-.416C8.836 5.125 5.816 7.309 5.6 8.686l-.23.08a16.26 16.26 0 0 0-1.156 2.464c-.606 1.033-.917.384-.797.577A34.35 34.35 0 0 0 1.09 18c.374.536 0 3.329.151 5.514C.628 34.477 8.868 45.119 17.873 47.52c1.626.388 3.296.555 4.965.496-1.984-.576-2.215-.304-4.16-.96-1.37-.664-1.681-1.417-2.67-2.217l.415.688c-1.945-.688-1.14-.88-2.702-1.344l.415-.568a3.63 3.63 0 0 1-1.945-1.6h-.645c-.845-1.033-1.26-1.761-1.228-2.337l-.223.424c-.27-.424-3.02-3.833-1.594-3.033a2.86 2.86 0 0 1-.988-1.104l.303-.344a5.842 5.842 0 0 1-1.26-2.4c.21.319.518.56.877.687-1.729-4.337-1.833-.272-3.14-4.417h.263a10.62 10.62 0 0 1-.55-1.072l.168-1.184c-1.26-1.457-.375-6.21-.167-8.803.12-1.032 1.075-2.176 1.76-3.945l-.445-.056c.796-1.416 4.654-5.753 6.447-5.521.845-1.072-.191 0-.343-.264 1.913-1.993 2.479-1.425 3.777-1.769 1.38-.8-1.179.312-.533-.304 2.39-.616 1.681-1.376 4.781-1.688.303.16-.797.272-1.036.504 1.985-.96 6.264-.728 9.085.568 3.244 1.496 6.87 6.018 7.021 10.235l.152.04c-.072 1.68.27 3.64-.343 5.441l.454-.84Z" clip-rule="evenodd"/>
  <path fill="#CE4B56" fill-rule="evenodd" d="m15.164 26.506-.12.537c.425.754.963 1.44 1.594 2.032-.494-.92-.837-1.304-1.483-2.569h.009ZM16.35 26.434a3.373 3.373 0 0 1-.613-1.032c.194.625.478 1.219.845 1.76l-.231-.728ZM38.1 21.681l-.112.304a12.84 12.84 0 0 1-1.37 4.401 12.889 12.889 0 0 0 1.481-4.705ZM20.934.3c.534-.193 1.29-.12 1.864-.273-.725.08-1.49.112-2.215.192l.35.08ZM2.118 10.334c.112 1.152-.877 1.6.231.8.566-1.304-.231-.344-.231-.8ZM.859 15.623c.23-.8.263-1.224.382-1.648-.693.88-.31 1.072-.382 1.649Z" clip-rule="evenodd"/>
</svg>