<svg xmlns="http://www.w3.org/2000/svg" width="53" height="37" fill="none" viewBox="0 0 53 37">
  <path fill="#0091E2" d="M52.002 12.71c-.143-.118-1.449-1.117-4.247-1.117-.736.005-1.47.072-2.195.2a8.274 8.274 0 0 0-1.268-3.209 8.242 8.242 0 0 0-2.464-2.408l-.746-.437-.485.699a10.448 10.448 0 0 0-1.325 3.12 7.39 7.39 0 0 0 .87 5.786 10.257 10.257 0 0 1-3.786.918H2.12A1.607 1.607 0 0 0 .621 17.27c-.08.199-.12.411-.118.626-.05 3.013.457 6.009 1.493 8.837 1.181 3.121 2.941 5.393 5.211 6.797 2.556 1.573 6.73 2.497 11.43 2.497 2.128 0 4.252-.195 6.344-.58a26.022 26.022 0 0 0 8.296-3.028 22.68 22.68 0 0 0 5.647-4.65 30.81 30.81 0 0 0 5.523-9.561h.484a7.923 7.923 0 0 0 5.809-2.197 6.493 6.493 0 0 0 1.549-2.278l.211-.624-.498-.4Z"/>
  <path fill="#0091E2" d="M4.805 16.754h4.583a.404.404 0 0 0 .41-.412v-4.113a.407.407 0 0 0-.41-.412H4.805a.404.404 0 0 0-.41.412v4.113a.425.425 0 0 0 .41.412ZM11.123 16.754h4.583a.404.404 0 0 0 .41-.412v-4.113a.407.407 0 0 0-.41-.412h-4.583a.402.402 0 0 0-.404.412v4.113a.42.42 0 0 0 .404.412ZM17.566 16.754h4.583a.403.403 0 0 0 .41-.412v-4.113a.407.407 0 0 0-.41-.412h-4.583a.404.404 0 0 0-.41.412v4.113a.393.393 0 0 0 .41.412ZM23.909 16.754h4.583a.404.404 0 0 0 .41-.412v-4.113a.409.409 0 0 0-.252-.382.404.404 0 0 0-.158-.03H23.91a.404.404 0 0 0-.41.412v4.113a.406.406 0 0 0 .41.412ZM11.123 10.874h4.583a.422.422 0 0 0 .41-.412V6.343a.406.406 0 0 0-.41-.412h-4.583a.402.402 0 0 0-.404.412v4.12a.438.438 0 0 0 .404.411ZM17.566 10.874h4.583a.422.422 0 0 0 .41-.412V6.343a.408.408 0 0 0-.252-.382.403.403 0 0 0-.158-.03h-4.583a.403.403 0 0 0-.41.412v4.12a.407.407 0 0 0 .41.411ZM23.909 10.874h4.583a.422.422 0 0 0 .41-.412V6.343a.426.426 0 0 0-.41-.412H23.91a.403.403 0 0 0-.41.412v4.12a.425.425 0 0 0 .41.411ZM23.909 4.964h4.583a.403.403 0 0 0 .41-.412V.439a.426.426 0 0 0-.41-.412H23.91a.403.403 0 0 0-.41.412v4.113a.425.425 0 0 0 .41.412ZM30.302 16.754h4.584a.403.403 0 0 0 .41-.412v-4.113a.407.407 0 0 0-.41-.412h-4.584a.404.404 0 0 0-.41.412v4.113a.425.425 0 0 0 .41.412Z"/>
</svg>