<svg xmlns="http://www.w3.org/2000/svg" width="48" height="48" fill="none" viewBox="0 0 48 48">
  <path fill="#51A2DA" d="M24.013.027C10.759.027.028 10.607.004 23.667H0v18.3h.004C.011 44.93 2.45 47.33 5.458 47.33h18.557C37.271 47.321 48 36.743 48 23.69 48 10.628 37.257.049 23.992.049l.02-.022Z"/>
  <path fill="#fff" d="M28.892 9.755c-3.744 0-7.052 2.776-7.51 6.418-.03.305-.04.525-.041.802l.004 14.892c0 2.857-2.17 4.802-4.883 4.802-2.717 0-4.905-2.138-4.905-4.806.044-2.929 2.424-4.786 5.2-4.867h.015l2.818-.026v-3.932l-2.818.021c-5.053-.045-9.063 3.852-9.21 8.806 0 4.818 4.02 8.745 8.898 8.745 4.602 0 8.433-3.541 8.851-7.973.06-1.508.03-3.498.03-3.498.01-.82-.012-.526-.004-2.153l3.496-.026c2.705.019 2.675-3.994-.03-3.94l-3.466.026c0-2.02.032-4.028 0-6.051.002-1.75 1.685-3.296 3.552-3.296s3.843.918 3.843 3.296c0 .34-.007.537-.026.663-.209 1.103.556 2.157 1.683 2.316 1.127.158 2.162-.644 2.274-1.76.064-.44.062-.83.062-1.219 0-4.193-3.805-7.233-7.836-7.233l.003-.007Z"/>
</svg>