<svg xmlns="http://www.w3.org/2000/svg" width="48" height="48" fill="none" viewBox="0 0 95 94">
  <circle cx="47.5" cy="47.5" r="46.5" fill="#fff"/>
  <path fill="#000" fillRule="evenodd" d="M47.5.044C21.256.044 0 21.301 0 47.544c0 21.02 13.597 38.772 32.478 45.066 2.375.416 3.266-1.01 3.266-2.256 0-1.128-.06-4.869-.06-8.847-11.934 2.197-15.021-2.91-15.971-5.581-.535-1.366-2.85-5.582-4.87-6.71-1.662-.89-4.037-3.087-.059-3.147 3.741-.059 6.413 3.444 7.303 4.87 4.276 7.184 11.104 5.165 13.835 3.918.416-3.088 1.662-5.166 3.028-6.353-10.569-1.188-21.613-5.285-21.613-23.453 0-5.166 1.841-9.44 4.87-12.766-.476-1.187-2.138-6.056.474-12.587 0 0 3.978-1.247 13.063 4.868 3.8-1.068 7.837-1.603 11.875-1.603 4.037 0 8.075.535 11.875 1.603 9.084-6.175 13.062-4.868 13.062-4.868 2.613 6.53.95 11.4.475 12.587 3.028 3.325 4.869 7.54 4.869 12.766 0 18.228-11.103 22.265-21.672 23.453 1.722 1.484 3.206 4.334 3.206 8.787 0 6.353-.059 11.46-.059 13.063 0 1.247.89 2.731 3.266 2.256C81.403 86.316 95 68.504 95 47.544 95 21.301 73.744.044 47.5.044Z" clipRule="evenodd"/>
</svg>