<svg xmlns="http://www.w3.org/2000/svg" width="47" height="46" fill="none" viewBox="0 0 47 46">
  <path fill="#326DE6" d="M42.722 10.348c-.266-.853-.906-1.547-1.707-1.972L24.765.595c-.428-.213-.906-.266-1.334-.266-.429 0-.906 0-1.331.106L5.846 8.27a2.868 2.868 0 0 0-1.6 1.972L.253 27.773c-.16.907.053 1.813.588 2.56L12.085 44.24c.64.641 1.547 1.066 2.45 1.119h17.902c.96.106 1.866-.319 2.45-1.119l11.244-13.906a3.638 3.638 0 0 0 .641-2.56l-4.05-17.425Z"/>
  <path fill="#fff" d="M40.242 26.666c-.053 0-.106 0-.106-.053s-.106-.053-.213-.053c-.212-.053-.424-.053-.64-.053-.107 0-.213 0-.319-.054h-.053a10.814 10.814 0 0 1-1.813-.318.641.641 0 0 1-.371-.372l-.425-.106c.212-1.547.106-3.144-.212-4.69a14.354 14.354 0 0 0-1.866-4.37l.318-.318v-.053c0-.16.053-.372.16-.478.477-.425.959-.747 1.49-1.066l.319-.159c.212-.106.371-.212.587-.318.053-.053.107-.053.16-.107.053-.053 0-.053 0-.106.477-.371.587-1.012.212-1.49a1.015 1.015 0 0 0-.747-.372 1.28 1.28 0 0 0-.747.266l-.053.053c-.053.053-.107.106-.16.106-.159.16-.318.319-.424.478-.053.106-.16.16-.213.212a7.021 7.021 0 0 1-1.33 1.172c-.107.053-.213.106-.32.106-.052 0-.158 0-.212-.053h-.053l-.425.266c-.424-.425-.906-.854-1.33-1.278-1.973-1.548-4.422-2.503-6.929-2.773l-.053-.424v.053c-.16-.106-.212-.266-.265-.425 0-.588 0-1.172.106-1.813v-.053c0-.106.053-.212.053-.318.053-.213.053-.425.106-.641v-.326c.053-.535-.372-1.066-.906-1.119-.319-.053-.641.106-.907.372a1.05 1.05 0 0 0-.318.747v.265c0 .213.053.425.106.641.053.106.053.212.053.319v.053c.106.588.106 1.172.106 1.812-.053.16-.106.319-.265.425v.106l-.053.425c-.588.053-1.172.16-1.813.265-2.503.535-4.797 1.866-6.553 3.732l-.319-.212h-.053c-.053 0-.106.053-.212.053s-.212-.053-.319-.106c-.477-.372-.959-.8-1.33-1.225-.054-.107-.16-.16-.213-.213-.16-.159-.265-.318-.425-.477-.053-.054-.106-.054-.159-.107l-.053-.053a1.27 1.27 0 0 0-.747-.265c-.319 0-.588.106-.747.371a1.147 1.147 0 0 0 .212 1.49c.053 0 .053.054.053.054s.106.106.16.106c.159.106.371.212.587.319l.319.159c.535.318 1.065.64 1.49 1.066.106.106.213.318.16.477v-.053l.318.319c-.053.106-.106.159-.16.265-1.653 2.613-2.343 5.704-1.865 8.741l-.425.107c0 .053-.053.053-.053.053-.053.159-.212.265-.371.371a9.942 9.942 0 0 1-1.813.319c-.106 0-.212 0-.319.053-.212 0-.424.053-.64.053-.054 0-.107.053-.213.053-.053 0-.053 0-.106.053a1.04 1.04 0 0 0-.853 1.225c.106.478.587.8 1.065.747.106 0 .16 0 .266-.053.053 0 .053 0 .053-.053s.16 0 .212 0c.213-.053.425-.16.588-.212.106-.054.212-.107.319-.107h.053a9.549 9.549 0 0 1 1.76-.477h.052c.16 0 .319.053.425.159.053 0 .053.053.053.053l.478-.053c.8 2.45 2.29 4.638 4.369 6.234.477.372.906.694 1.437.96l-.266.371c0 .053.053.053.053.053.107.16.107.372.053.535-.212.535-.534 1.066-.853 1.547v.053a.93.93 0 0 1-.212.266c-.106.106-.212.318-.372.535-.053.053-.053.106-.106.159 0 0 0 .053-.053.053-.265.535-.053 1.172.425 1.437a.984.984 0 0 0 .371.106c.425 0 .8-.265 1.013-.64 0 0 0-.054.053-.054 0-.053.053-.106.106-.159.053-.212.16-.372.212-.588l.107-.318c.159-.588.424-1.119.694-1.654a.826.826 0 0 1 .424-.318c.053 0 .053 0 .053-.053l.213-.425c1.49.588 3.037.853 4.634.853.96 0 1.919-.106 2.878-.371.588-.107 1.172-.319 1.707-.478l.212.371c.053 0 .053 0 .053.053.16.054.319.16.425.32.265.534.535 1.065.694 1.653v.053l.106.318c.053.212.106.425.212.588.054.053.054.106.107.16 0 0 0 .052.053.052.212.372.587.641 1.012.641.16 0 .266-.053.425-.106.212-.106.425-.319.478-.588a1.378 1.378 0 0 0-.053-.8c0-.053-.053-.053-.053-.053 0-.053-.054-.106-.107-.16a1.985 1.985 0 0 0-.371-.534c-.053-.106-.106-.16-.212-.266v-.106c-.372-.477-.641-1.012-.854-1.547a.638.638 0 0 1 .053-.535c0-.053.053-.053.053-.053l-.159-.424c2.72-1.654 4.797-4.21 5.757-7.247l.424.053c.053 0 .053-.053.053-.053a.603.603 0 0 1 .425-.16h.053a9 9 0 0 1 1.707.478h.053c.106.053.212.106.319.106.212.107.371.213.587.266.053 0 .107.053.213.053.053 0 .053 0 .106.053.106.053.16.053.265.053.478 0 .907-.319 1.066-.747a1.243 1.243 0 0 0-.952-1.111Zm-15.4-1.654-1.437.694-1.438-.694-.371-1.547 1.012-1.278h1.6l1.013 1.278-.38 1.547Zm8.684-3.462a10.23 10.23 0 0 1 .212 3.356l-5.062-1.437c-.478-.106-.747-.588-.641-1.066a.856.856 0 0 1 .212-.371l3.997-3.626c.588.96 1.017 2.026 1.282 3.144Zm-2.878-5.116-4.369 3.091c-.372.213-.906.16-1.172-.212a.482.482 0 0 1-.159-.372l-.319-5.381c2.344.265 4.422 1.278 6.019 2.874Zm-9.644-2.719 1.066-.212-.266 5.328c0 .478-.424.853-.906.853-.16 0-.265-.053-.425-.106l-4.421-3.143c1.38-1.332 3.086-2.291 4.952-2.72Zm-6.5 4.691 3.944 3.516a.858.858 0 0 1 .106 1.225c-.106.159-.212.212-.424.265l-5.17 1.49a11.16 11.16 0 0 1 1.544-6.496Zm-.906 9.007 5.275-.906c.425 0 .853.265.906.694a.638.638 0 0 1-.053.534l-2.025 4.904c-1.866-1.229-3.36-3.095-4.103-5.226Zm12.097 6.606c-.747.16-1.49.266-2.29.266-1.12 0-2.29-.213-3.357-.535l2.613-4.744c.266-.319.694-.425 1.066-.213.16.107.265.213.425.372l2.56 4.638c-.327.057-.645.11-1.017.216Zm6.5-4.634a10.21 10.21 0 0 1-3.197 3.197l-2.078-5.01c-.106-.424.106-.853.478-1.012.16-.053.318-.107.478-.107l5.328.907c-.262.743-.584 1.437-1.009 2.025Z"/>
</svg>