<svg xmlns="http://www.w3.org/2000/svg" width="52" height="34" fill="none" viewBox="0 0 52 34">
  <path fill="#2FB400" d="M42.69 6.684c.03-.769.351-1.482.913-2.006a2.87 2.87 0 0 1 2.065-.772 2.89 2.89 0 0 1 2.78 2.981 2.87 2.87 0 0 1-.913 2.004 2.85 2.85 0 0 1-2.067.774 2.889 2.889 0 0 1-2.776-2.981h-.001Zm7.695 2.834c.131-.086.227-.157.268-.173l.043-.069c-.11-.695-1.147-4.068-1.93-4.879-.216-.22-.39-.438-.74-.643-2.837-1.653-9.565-2.651-9.88-2.697l-.053.015-.02.049-.03 1.55c-.688-.23-5.684-1.844-10.367-2.007-3.972-.14-9.755-.653-17.42 4.06l-.228.141c-3.606 2.25-6.095 5.024-7.397 8.247-.408 1.014-.957 3.302-.413 5.456a8.417 8.417 0 0 0 1.26 2.733c1.332 1.913 3.566 3.183 5.973 3.397 3.396.304 5.969-1.222 6.883-4.08.63-1.97 0-4.864-2.411-6.34-1.962-1.2-4.07-.928-5.295-.118-1.061.704-1.662 1.797-1.652 2.999.024 2.13 1.859 3.263 3.178 3.266.384 0 .769-.066 1.203-.208.154-.047.3-.105.46-.204l.05-.03.031-.02-.01.005a1.086 1.086 0 0 0 .44-1.191 1.082 1.082 0 0 0-1.241-.765l-.075.017-.1.031-.147.05c-.304.075-.532.082-.58.083-.155-.01-.914-.237-.914-1.07v-.01c0-.306.122-.52.19-.637.236-.371.883-.735 1.757-.659 1.147.1 1.974.688 2.522 1.798.508 1.032.375 2.301-.343 3.23-.714.922-1.983 1.314-3.673 1.132a5.032 5.032 0 0 1-3.949-2.695c-.789-1.491-.832-3.26-.111-4.619 1.724-3.255 4.98-3.221 6.767-2.912 2.642.458 5.649 2.896 6.714 5.71.173.45.26.805.337 1.13l.115.486 2.986 1.458.039.03.072-.007.013-.086c-.018-.067-.062-.128-.13-.964-.057-.741-.173-2.77.849-3.777.397-.393 1.001-.744 1.479-.856 1.956-.478 4.25-.149 6.42 2.363 1.123 1.297 1.67 1.888 1.946 2.153l.095.087.113.084c.09.05 3.731 1.726 3.731 1.726l.075-.018.002-.078c-.024-.027-2.308-2.979-1.902-5.408.32-1.936 1.861-1.76 3.992-1.52.695.081 1.487.172 2.307.19 2.288.015 4.754-.408 6.273-1.072.983-.428 1.61-.712 2.004-1.07.141-.117.214-.307.29-.512l.054-.135c.064-.166.157-.515.198-.707.017-.084.027-.173-.034-.22l-.21.038c-.667.402-2.335 1.162-3.894 1.195-1.935.04-5.834-1.947-6.24-2.158l-.039-.046c-.096-.234-.68-1.617-.806-1.91 2.806 1.85 5.133 2.872 6.916 3.03 1.985.177 3.53-.906 4.191-1.369h-.002Zm-4.412-2.567c-.492 0-.89-.267-.89-.594 0-.33.398-.595.89-.595.493 0 .892.266.892.595 0 .327-.4.594-.892.594Zm-.328-2.196a1.981 1.981 0 0 0-1.438.536 1.99 1.99 0 0 0-.636 1.398 2.016 2.016 0 0 0 1.937 2.082 2.012 2.012 0 0 0 1.442-.54 2.012 2.012 0 0 0-1.305-3.476Z"/>
  <path fill="#2FB400" d="M21.776 23.328c-1.265 0-1.96 1.07-1.96 1.81v.948c0 1.09.89 1.764 1.715 1.764h2.896c.365 0 .441.239.441.44v.613c0 .065-.013.653-.441.653h-3.949c-.393 0-.676.273-.676.647v.17c0 .372.284.643.676.643h4.163c1.089 0 1.791-.757 1.791-1.93V28.06c0-1.102-.791-1.594-1.577-1.594h-2.849c-.429 0-.623-.322-.623-.55v-.565c0-.356.238-.563.654-.563h3.154c.387 0 .678-.277.678-.645v-.169c0-.369-.296-.647-.69-.647h-3.403ZM33.607 23.329a.676.676 0 0 0-.675.678v4.85c0 .388-.317.7-.701.7h-2.2a.7.7 0 0 1-.7-.7v-4.85a.678.678 0 0 0-.678-.678h-.213c-.38 0-.678.3-.678.678v5.033c0 1.172.922 2.022 2.192 2.022h2.353c1.269 0 2.191-.85 2.191-2.022v-5.033a.671.671 0 0 0-.676-.678h-.215ZM37.832 23.328c-1.265 0-1.962 1.07-1.962 1.81v.948c0 1.09.892 1.764 1.716 1.764h2.895c.365 0 .442.239.442.44v.613c0 .065-.014.653-.442.653H36.53c-.39 0-.676.273-.676.647v.17c0 .372.285.643.676.643h4.165c1.089 0 1.794-.757 1.794-1.93V28.06c0-1.102-.793-1.594-1.58-1.594h-2.848c-.43 0-.624-.322-.624-.55v-.565c0-.356.238-.563.654-.563h3.156c.386 0 .676-.277.676-.645v-.169c0-.369-.296-.647-.693-.647h-3.398ZM44.478 23.328a.639.639 0 0 0-.659.647v6.397a.63.63 0 0 0 .645.644h5.096c.392 0 .676-.271.676-.643v-.17c0-.374-.284-.647-.676-.647h-4.175v-1.628h3.058c.392 0 .677-.275.677-.647v-.17c0-.373-.285-.645-.677-.645h-3.058V24.79h3.962c.39 0 .676-.27.676-.645v-.17c0-.373-.285-.646-.676-.646h-4.87.001ZM.821 29.797v-2.202c0-.259.212-.47.472-.47h1.215c.253 0 .47.216.47.47v2.202a.47.47 0 0 1-.47.471H1.283a.461.461 0 0 1-.462-.471Zm.338-3.426c-.64 0-1.159.497-1.159 1.11v2.412c0 .622.503 1.13 1.12 1.13h1.56c.616 0 1.12-.508 1.12-1.13V27.48c0-.613-.52-1.11-1.16-1.11H1.16ZM5.77 29.75v-2.106c0-.291.228-.518.519-.518h1.14c.29 0 .517.227.517.518v2.106a.52.52 0 0 1-.518.518h-1.14a.519.519 0 0 1-.517-.518Zm1.561-3.406c-.45 0-.789.16-1.06.292-.167.08-.31.148-.422.148a.133.133 0 0 1-.116-.06l-.104-.198a.322.322 0 0 0-.258-.154h-.154c-.149 0-.267.133-.267.295v6.117a.34.34 0 0 0 .343.343h.133c.19 0 .345-.152.345-.343v-2.03c0-.06.039-.125.078-.125.112 0 .255.066.421.142.272.125.612.28 1.061.28h.144c.797 0 1.292-.456 1.292-1.187v-2.336c0-.72-.506-1.185-1.292-1.185h-.144ZM10.737 27.587c0-.259.203-.461.462-.461h1.253c.258 0 .46.202.46.461v.747h-2.175v-.747Zm.337-1.216c-.639 0-1.157.497-1.157 1.11v2.394c0 .621.504 1.148 1.098 1.148h1.61c.199 0 .343-.138.343-.326v-.105c0-.189-.144-.324-.343-.324h-1.322c-.37 0-.566-.182-.566-.528v-.7h2.385c.384 0 .61-.235.61-.631v-.928c0-.613-.518-1.11-1.155-1.11h-1.502ZM17.047 26.343c-.449 0-.787.161-1.06.291-.17.08-.315.15-.433.15-.053 0-.074-.007-.114-.077l-.095-.172a.282.282 0 0 0-.27-.164h-.133c-.16 0-.277.125-.277.296v4.013c0 .19.15.343.344.343h.133c.19 0 .345-.155.345-.343v-3.036a.52.52 0 0 1 .517-.518h1.14a.52.52 0 0 1 .517.518v3.036c0 .19.151.343.343.343h.134c.19 0 .344-.155.344-.343v-3.152c0-.72-.506-1.185-1.292-1.185h-.143ZM51.255 30.08h.082c.093 0 .172-.034.172-.121 0-.062-.045-.125-.172-.125a.505.505 0 0 0-.082.006v.24Zm0 .393h-.113v-.709c.06-.008.116-.017.2-.017.108 0 .178.023.22.054.043.03.066.078.066.147 0 .092-.062.149-.139.172v.006c.063.01.105.067.119.172.017.11.034.152.045.175h-.118a.514.514 0 0 1-.048-.18c-.017-.09-.063-.125-.153-.125h-.079v.305Zm.118-.906c-.279 0-.508.24-.508.536 0 .302.23.539.511.539.282.003.508-.237.508-.536 0-.3-.226-.54-.508-.54h-.002Zm.003-.1c.347 0 .624.283.624.636a.626.626 0 0 1-.627.638.63.63 0 0 1-.629-.638c0-.353.282-.635.63-.635h.002Z"/>
</svg>