<svg xmlns="http://www.w3.org/2000/svg" width="61" height="9" fill="none" viewBox="0 0 61 9">
  <path fill="#ED1C24" d="M25.473 5.811h3.823l-2.019-3.256L23.57 8.44l-1.69.001 4.513-7.068c.191-.288.522-.46.881-.46.355 0 .681.167.873.447l4.529 7.081-1.691-.001-.793-1.316h-3.874l-.845-1.314Zm17.539 1.316V.987h-1.433v6.74c0 .186.075.365.208.497a.74.74 0 0 0 .526.217h6.532l.843-1.314h-6.676Zm-23.7-1.1a2.52 2.52 0 0 0 0-5.04h-6.27v7.454h1.432V2.3h4.738a1.204 1.204 0 0 1 1.115 1.668 1.207 1.207 0 0 1-1.115.745h-4.037l4.276 3.727h2.081l-2.877-2.415.656.002ZM4.224 8.442a3.727 3.727 0 0 1 0-7.454h4.33a3.726 3.726 0 0 1 3.725 3.728 3.726 3.726 0 0 1-3.725 3.727l-4.33-.001ZM8.46 7.128a2.412 2.412 0 0 0 2.411-2.414A2.412 2.412 0 0 0 8.46 2.301H4.32a2.412 2.412 0 0 0 0 4.827H8.46ZM35.664 8.44a3.726 3.726 0 0 1 0-7.454h5.146l-.843 1.314H35.76a2.413 2.413 0 0 0 0 4.827h5.165l-.842 1.313h-4.42ZM53.19 7.128a2.412 2.412 0 0 1-2.32-1.754h6.124l.843-1.314h-6.968a2.411 2.411 0 0 1 2.32-1.759h4.204l.844-1.314H53.09a3.727 3.727 0 0 0 0 7.454h4.42l.843-1.313h-5.164Zm5.815-5.347a.658.658 0 1 1 1.315 0 .658.658 0 0 1-1.316 0Zm.658.84a.838.838 0 1 0 0-1.676.838.838 0 0 0 0 1.676Zm-.08-1.335c.13 0 .183.001.246.025.165.056.183.208.183.264a.372.372 0 0 1-.01.077.253.253 0 0 1-.117.16c-.01.008-.015.013-.042.023l.218.39h-.21l-.192-.359h-.127v.36h-.184v-.94h.236Zm.066.425c.057-.002.12-.006.156-.06a.137.137 0 0 0 .022-.08.122.122 0 0 0-.071-.114c-.042-.016-.085-.016-.172-.016h-.052v.27h.117Z"/>
</svg>