<svg xmlns="http://www.w3.org/2000/svg" width="40" height="49" fill="none" viewBox="0 0 40 49">
  <path fill="#020203" d="M11.26.332c-.245.012-.514.098-.808.33C9.717.382 8.995.283 8.358.86c-.992-.123-1.31.134-1.555.44-.22 0-1.616-.22-2.265.723-1.616-.183-2.118.944-1.542 1.985-.331.502-.674 1.005.097 1.96-.269.54-.097 1.115.54 1.813-.172.747.158 1.286.758 1.703-.11 1.029.955 1.63 1.274 1.838.122.6.38 1.163 1.604 1.482.195.894.93 1.053 1.652 1.237-2.35 1.348-4.37 3.124-4.358 7.473l-.343.6C1.526 23.73-.898 28.924 2.885 33.151c.245 1.323.662 2.266 1.029 3.32.55 4.238 4.163 6.21 5.118 6.456 1.395 1.053 2.877 2.045 4.897 2.744 1.898 1.923 3.955 2.658 6.024 2.658h.085c2.07 0 4.127-.735 6.024-2.658 2.008-.699 3.502-1.69 4.898-2.744.955-.233 4.566-2.218 5.117-6.456.368-1.054.784-1.997 1.029-3.32 3.795-4.227 1.371-9.42-1.335-11.038l-.342-.6c.012-4.349-2.008-6.125-4.36-7.473.711-.184 1.446-.343 1.654-1.237 1.224-.319 1.481-.882 1.604-1.482.318-.209 1.395-.809 1.273-1.838.6-.417.93-.943.76-1.703.648-.698.807-1.286.538-1.813.771-.955.428-1.458.098-1.96.575-1.053.073-2.18-1.555-1.985-.65-.943-2.045-.735-2.265-.722-.245-.307-.563-.564-1.555-.441-.637-.576-1.36-.478-2.094-.196-.87-.686-1.457-.135-2.118.073-1.065-.343-1.298.123-1.824.319-1.151-.245-1.506.281-2.057.833l-.649-.013c-1.739 1.017-2.608 3.075-2.914 4.129-.306-1.066-1.175-3.124-2.914-4.129l-.649.013c-.55-.552-.906-1.078-2.057-.833-.526-.196-.759-.662-1.824-.319-.392-.135-.784-.416-1.261-.404Z"/>
  <path fill="#8DC04D" d="M7.795 4.791c4.628 2.352 7.31 4.251 8.779 5.868-.76 2.977-4.69 3.112-6.122 3.026.294-.135.538-.294.624-.551-.355-.257-1.64-.025-2.534-.527.343-.073.502-.135.66-.392-.844-.27-1.75-.49-2.289-.93.294 0 .564.06.93-.197-.758-.404-1.566-.723-2.19-1.335.391-.012.807 0 .93-.147A8.25 8.25 0 0 1 4.82 8.197c.55.061.783.012.906-.086-.527-.527-1.188-.98-1.506-1.63.404.136.783.197 1.04-.011-.183-.392-.942-.625-1.383-1.556.428.037.881.086.967 0-.196-.796-.539-1.25-.87-1.715.92-.012 2.303 0 2.241-.074l-.563-.575c.894-.233 1.812.036 2.473.245.294-.233 0-.527-.367-.821.76.098 1.445.27 2.07.514.33-.294-.221-.588-.478-.882 1.175.22 1.665.527 2.167.833.355-.343.024-.624-.22-.918.881.318 1.346.735 1.824 1.151.159-.22.416-.38.11-.894.624.355 1.102.772 1.457 1.25.392-.246.233-.576.233-.883.649.527 1.065 1.078 1.579 1.63.098-.074.196-.319.27-.71 1.554 1.494 3.758 5.242.563 6.725-2.694-2.193-5.938-3.798-9.538-4.999ZM32.331 4.791c-4.628 2.352-7.31 4.251-8.779 5.868.76 2.977 4.69 3.112 6.122 3.026-.294-.135-.539-.294-.624-.551.355-.257 1.64-.025 2.534-.527-.343-.073-.502-.135-.661-.392.845-.27 1.75-.49 2.29-.93-.294 0-.564.06-.931-.197.76-.404 1.567-.723 2.192-1.335-.392-.012-.808 0-.93-.147a8.252 8.252 0 0 0 1.762-1.409c-.55.061-.783.012-.906-.086.527-.527 1.188-.98 1.506-1.63-.404.136-.783.197-1.04-.011.183-.392.942-.625 1.383-1.556-.429.037-.882.086-.967 0 .196-.796.538-1.25.869-1.715-.918-.012-2.302 0-2.24-.074l.563-.575c-.894-.233-1.812.036-2.474.245-.293-.233 0-.527.368-.821-.76.098-1.445.27-2.07.514-.33-.294.221-.588.478-.882-1.175.22-1.665.527-2.167.833-.355-.343-.025-.624.22-.918-.881.318-1.346.735-1.824 1.151-.16-.22-.416-.38-.11-.894-.625.355-1.102.772-1.457 1.25-.392-.246-.233-.576-.233-.883-.649.527-1.065 1.078-1.58 1.63-.097-.074-.195-.319-.268-.71-1.555 1.494-3.76 5.242-.564 6.725 2.694-2.193 5.938-3.798 9.538-4.999Z"/>
  <path fill="#C7133F" d="M25.903 35.123c.012 2.78-2.448 5.047-5.51 5.06-3.06.012-5.546-2.23-5.57-5.011v-.049c-.012-2.78 2.448-5.047 5.51-5.06 3.06-.012 5.546 2.23 5.57 5.011v.049ZM17.161 20.741c2.29 1.483 2.706 4.84.919 7.497-1.788 2.659-5.094 3.614-7.383 2.132-2.29-1.482-2.706-4.839-.918-7.497 1.787-2.659 5.093-3.614 7.382-2.132ZM23.356 20.472c-2.29 1.482-2.705 4.839-.918 7.497 1.788 2.658 5.094 3.614 7.383 2.131 2.29-1.482 2.706-4.838.918-7.497-1.775-2.658-5.093-3.614-7.383-2.131ZM5.69 23.166c2.472-.649.832 10.107-1.176 9.225-2.216-1.764-2.939-6.91 1.175-9.224ZM34.327 23.032c-2.474-.65-.833 10.107 1.175 9.225 2.216-1.764 2.938-6.91-1.175-9.225ZM25.903 15.02c4.273-.71 7.836 1.789 7.69 6.358-.136 1.752-9.257-6.1-7.69-6.358ZM14.088 14.886c-4.273-.71-7.836 1.788-7.689 6.358.147 1.752 9.269-6.101 7.69-6.358ZM20.234 13.82c-2.546-.062-4.995 1.861-5.007 2.988-.013 1.36 2.02 2.757 5.02 2.794 3.073.024 5.032-1.115 5.044-2.524.012-1.593-2.792-3.283-5.057-3.259ZM20.393 41.739c2.229-.098 5.216.71 5.216 1.764.037 1.029-2.706 3.368-5.362 3.32-2.755.122-5.449-2.218-5.412-3.026-.049-1.176 3.342-2.107 5.558-2.058ZM12.178 35.442c1.58 1.886 2.302 5.182.98 6.162-1.249.747-4.285.44-6.453-2.622-1.456-2.56-1.273-5.17-.244-5.941 1.53-.92 3.893.318 5.717 2.4ZM28.29 34.841c-1.713 1.985-2.668 5.587-1.42 6.75 1.2.907 4.408.772 6.771-2.462 1.727-2.18 1.139-5.819.16-6.774-1.445-1.127-3.551.306-5.51 2.486Z"/>
</svg>