<svg xmlns="http://www.w3.org/2000/svg" width="53" height="41" fill="none" viewBox="0 0 53 41">
  <path fill="#E00" d="M35.186 23.333c3.417 0 8.362-.705 8.362-4.772a3.832 3.832 0 0 0-.085-.935L41.428 8.78c-.47-1.946-.882-2.83-4.297-4.538C34.48 2.888 28.709.65 27 .65c-1.59 0-2.051 2.05-3.947 2.05-1.825 0-3.18-1.53-4.887-1.53-1.64 0-2.708 1.117-3.533 3.416 0 0-2.297 6.484-2.592 7.424a1.756 1.756 0 0 0-.06.53c0 2.52 9.916 10.783 23.204 10.783v.011Zm8.886-3.121c.473 2.238.473 2.473.473 2.768 0 3.827-4.3 5.951-9.952 5.951C21.819 28.939 10.63 21.45 10.63 16.5c-.001-.69.14-1.371.412-2.004C6.447 14.726.5 15.546.5 20.8c0 8.605 20.377 19.21 36.51 19.21 12.37 0 15.49-5.598 15.49-10.018 0-3.476-3.005-7.423-8.422-9.78"/>
  <path fill="#000" d="M44.072 20.211c.473 2.239.473 2.474.473 2.77 0 3.826-4.3 5.95-9.952 5.95-12.774.008-23.964-7.481-23.964-12.431 0-.69.14-1.371.413-2.004l1-2.476a1.76 1.76 0 0 0-.06.519c0 2.52 9.916 10.783 23.204 10.783 3.417 0 8.362-.705 8.362-4.773a3.828 3.828 0 0 0-.085-.934l.61 2.596Z"/>
</svg>