<svg xmlns="http://www.w3.org/2000/svg" width="49" height="49" fill="none" viewBox="0 0 49 49">
  <path fill="#DD4814" d="M48.486 24.33a24.01 24.01 0 0 1-4.042 13.333A23.973 23.973 0 0 1 7.54 41.3a24.005 24.005 0 0 1-5.2-26.155 23.997 23.997 0 0 1 8.835-10.771 23.976 23.976 0 0 1 30.287 2.985 24.007 24.007 0 0 1 7.026 16.97Z"/>
  <path fill="#fff" d="M8.19 21.13a3.197 3.197 0 0 0-3.137 3.823 3.2 3.2 0 0 0 4.36 2.332 3.199 3.199 0 0 0 1.038-5.219c-.6-.6-1.413-.937-2.262-.937Zm22.867 14.56a3.2 3.2 0 1 0 3.21 5.533 3.2 3.2 0 0 0-3.21-5.534ZM15.146 24.33a9.347 9.347 0 0 1 3.997-7.657L16.8 12.745a13.992 13.992 0 0 0-5.756 8.096 4.489 4.489 0 0 1 0 6.976 13.912 13.912 0 0 0 5.756 8.096l2.343-3.928a9.334 9.334 0 0 1-3.998-7.656Zm9.354-9.36a9.352 9.352 0 0 1 6.322 2.466 9.362 9.362 0 0 1 2.993 6.093l4.565-.064a13.908 13.908 0 0 0-4.133-9.032 4.49 4.49 0 0 1-6.029-3.488c-3.293-.921-6.81-.6-9.882.904l2.222 4a9.296 9.296 0 0 1 3.942-.88Zm0 18.72a9.294 9.294 0 0 1-3.942-.873l-2.222 4a13.936 13.936 0 0 0 9.882.936 4.498 4.498 0 0 1 4.073-3.765 4.492 4.492 0 0 1 1.956.277 13.907 13.907 0 0 0 4.133-9.032l-4.565-.104a9.362 9.362 0 0 1-9.315 8.56Zm6.556-20.72a3.196 3.196 0 0 0 4.623-1.75 3.201 3.201 0 0 0-2.612-4.198 3.196 3.196 0 0 0-3.588 2.755 3.2 3.2 0 0 0 1.578 3.192Z"/>
</svg>