<?xml version="1.0" encoding="iso-8859-1"?>
<!-- Uploaded to: SVG Repo, www.svgrepo.com, Generator: SVG Repo Mixer Tools -->
<svg version="1.1" id="Layer_1" xmlns="http://www.w3.org/2000/svg" xmlns:xlink="http://www.w3.org/1999/xlink" 
	 viewBox="0 0 508 508" xml:space="preserve">
<g>
	<path style="fill:#CCCCCC;" d="M216,72v-2c0-7.6-6.4-12-14-12h-2C208.8,58,216,63.2,216,72z"/>
	<path style="fill:#CCCCCC;" d="M216,432v-2c0-7.6-6.4-12-14-12h-2C208.8,418,216,423.2,216,432z"/>
	<path style="fill:#CCCCCC;" d="M216,252v-2c0-7.6-6.4-12-14-12h-2C208.8,238,216,243.2,216,252z"/>
</g>
<path style="fill:#E8E3E3;" d="M458,10h-2H54C28.8,10,8,28.8,8,54v40c0,25.2,20.8,48,46,48h404c25.2,0,46-22.8,46-48V56v-2
	C504,28.8,483.2,10,458,10z M220,78c0,10-8,20-18,20h-2H66c-10,0-18-10-18-20v-6v-2c0-10,8-16,18-16h136c10,0,18,6,18,16V78z
	 M344,86c-7.6,0-14-6.4-14-14s6.4-14,14-14s14,6.4,14,14S351.6,86,344,86z M384,86c-7.6,0-14-6.4-14-14s6.4-14,14-14s14,6.4,14,14
	S391.6,86,384,86z M440,94c-12,0-22-10-22-22s10-22,22-22s22,10,22,22S452,94,440,94z"/>
<path style="fill:#CDEEF9;" d="M200,58H66c-7.6,0-14,4.4-14,12v8c0,7.6,6.4,16,14,16h136c7.6,0,14-8.4,14-16v-6
	C216,63.2,208.8,58,200,58z"/>
<path style="fill:#AEB1B4;" d="M440,54c-10,0-18,8-18,18s8,18,18,18s18-8,18-18S450,54,440,54z"/>
<g>
	<circle style="fill:#61C2AB;" cx="384" cy="72" r="10"/>
	<circle style="fill:#61C2AB;" cx="344" cy="72" r="10"/>
</g>
<path style="fill:#E8E3E3;" d="M458,190h-2H54c-25.2,0-46,18.8-46,44v40c0,25.2,20.8,48,46,48h404c25.2,0,46-22.8,46-48v-38v-2
	C504,208.8,483.2,190,458,190z M220,258c0,10-8,20-18,20h-2H66c-10,0-18-10-18-20v-6v-2c0-10,8-16,18-16h136c10,0,18,6,18,16V258z
	 M344,266c-7.6,0-14-6.4-14-14s6.4-14,14-14s14,6.4,14,14S351.6,266,344,266z M384,266c-7.6,0-14-6.4-14-14s6.4-14,14-14
	s14,6.4,14,14S391.6,266,384,266z M440,274c-12,0-22-10-22-22s10-22,22-22s22,10,22,22S452,274,440,274z"/>
<path style="fill:#CDEEF9;" d="M200,238H66c-7.6,0-14,4.4-14,12v8c0,7.6,6.4,16,14,16h136c7.6,0,14-8.4,14-16v-6
	C216,243.2,208.8,238,200,238z"/>
<path style="fill:#AEB1B4;" d="M440,234c-10,0-18,8-18,18s8,18,18,18s18-8,18-18S450,234,440,234z"/>
<circle style="fill:#DF5C4E;" cx="384" cy="252" r="10"/>
<circle style="fill:#61C2AB;" cx="344" cy="252" r="10"/>
<path style="fill:#CDEEF9;" d="M52,430v8c0,7.6,6.4,16,14,16h136c7.6,0,14-8.4,14-16v-6c0-8.8-7.2-14-16-14H66
	C58.4,418,52,422.4,52,430z"/>
<path style="fill:#E8E3E3;" d="M458,370h-2H54c-25.2,0-46,18.8-46,44v40c0,25.2,20.8,48,46,48h404c25.2,0,46-22.8,46-48v-38v-2
	C504,388.8,483.2,370,458,370z M220,438c0,10-8,20-18,20h-2H66c-10,0-18-10-18-20v-6v-2c0-10,8-16,18-16h136c10,0,18,6,18,16V438z
	 M344,446c-7.6,0-14-6.4-14-14s6.4-14,14-14s14,6.4,14,14S351.6,446,344,446z M384,446c-7.6,0-14-6.4-14-14s6.4-14,14-14
	s14,6.4,14,14S391.6,446,384,446z M440,454c-12,0-22-10-22-22s10-22,22-22s22,10,22,22S452,454,440,454z"/>
<path style="fill:#AEB1B4;" d="M440,414c-10,0-18,8-18,18s8,18,18,18s18-8,18-18S450,414,440,414z"/>
<circle style="fill:#61C2AB;" cx="384" cy="432" r="10"/>
<circle style="fill:#DF5C4E;" cx="344" cy="432" r="10"/>
<g>
	<rect x="252" y="146" style="fill:#AEB1B4;" width="12" height="40"/>
	<rect x="252" y="326" style="fill:#AEB1B4;" width="12" height="40"/>
</g>
<path d="M456,146H52c-28.8,0-52-23.2-52-52V54C0,25.2,23.2,2,52,2h404c28.8,0,52,23.2,52,52v40C508,122.8,484.8,146,456,146z M52,10
	C27.6,10,8,29.6,8,54v40c0,24.4,19.6,44,44,44h404c24.4,0,44-19.6,44-44V54c0-24.4-19.6-44-44-44H52z"/>
<path d="M456,506H52c-28.8,0-52-23.2-52-52v-40c0-28.8,23.2-52,52-52h404c28.8,0,52,23.2,52,52v40C508,482.8,484.8,506,456,506z
	 M52,370c-24.4,0-44,19.6-44,44v40c0,24.4,19.6,44,44,44h404c24.4,0,44-19.6,44-44v-40c0-24.4-19.6-44-44-44H52z"/>
<path d="M456,326H52c-28.8,0-52-23.2-52-52v-40c0-28.8,23.2-52,52-52h404c28.8,0,52,23.2,52,52v40C508,302.8,484.8,326,456,326z
	 M52,190c-24.4,0-44,19.6-44,44v40c0,24.4,19.6,44,44,44h404c24.4,0,44-19.6,44-44v-40c0-24.4-19.6-44-44-44H52z"/>
<path d="M200,98H64c-11.2,0-20-8.8-20-20v-8c0-11.2,8.8-20,20-20h136c11.2,0,20,8.8,20,20v8C220,89.2,211.2,98,200,98z M64,58
	c-6.8,0-12,5.2-12,12v8c0,6.8,5.2,12,12,12h136c6.8,0,12-5.2,12-12v-8c0-6.8-5.2-12-12-12H64z"/>
<path d="M440,96c-13.2,0-24-10.8-24-24s10.8-24,24-24s24,10.8,24,24S453.2,96,440,96z M440,56c-8.8,0-16,7.2-16,16s7.2,16,16,16
	s16-7.2,16-16S448.8,56,440,56z"/>
<path d="M384,88c-8.8,0-16-7.2-16-16s7.2-16,16-16s16,7.2,16,16S392.8,88,384,88z M384,64c-4.4,0-8,3.6-8,8s3.6,8,8,8s8-3.6,8-8
	S388.4,64,384,64z"/>
<path d="M344,88c-8.8,0-16-7.2-16-16s7.2-16,16-16s16,7.2,16,16S352.8,88,344,88z M344,64c-4.4,0-8,3.6-8,8s3.6,8,8,8s8-3.6,8-8
	S348.4,64,344,64z"/>
<path d="M200,278H64c-11.2,0-20-8.8-20-20v-8c0-11.2,8.8-20,20-20h136c11.2,0,20,8.8,20,20v8C220,269.2,211.2,278,200,278z M64,238
	c-6.8,0-12,5.2-12,12v8c0,6.8,5.2,12,12,12h136c6.8,0,12-5.2,12-12v-8c0-6.8-5.2-12-12-12H64z"/>
<path d="M440,276c-13.2,0-24-10.8-24-24s10.8-24,24-24s24,10.8,24,24S453.2,276,440,276z M440,236c-8.8,0-16,7.2-16,16s7.2,16,16,16
	s16-7.2,16-16S448.8,236,440,236z"/>
<path d="M384,268c-8.8,0-16-7.2-16-16s7.2-16,16-16s16,7.2,16,16S392.8,268,384,268z M384,244c-4.4,0-8,3.6-8,8s3.6,8,8,8s8-3.6,8-8
	S388.4,244,384,244z"/>
<path d="M344,268c-8.8,0-16-7.2-16-16s7.2-16,16-16s16,7.2,16,16S352.8,268,344,268z M344,244c-4.4,0-8,3.6-8,8s3.6,8,8,8s8-3.6,8-8
	S348.4,244,344,244z"/>
<path d="M200,458H64c-11.2,0-20-8.8-20-20v-8c0-11.2,8.8-20,20-20h136c11.2,0,20,8.8,20,20v8C220,449.2,211.2,458,200,458z M64,418
	c-6.8,0-12,5.2-12,12v8c0,6.8,5.2,12,12,12h136c6.8,0,12-5.2,12-12v-8c0-6.8-5.2-12-12-12H64z"/>
<path d="M440,456c-13.2,0-24-10.8-24-24s10.8-24,24-24s24,10.8,24,24S453.2,456,440,456z M440,416c-8.8,0-16,7.2-16,16s7.2,16,16,16
	s16-7.2,16-16S448.8,416,440,416z"/>
<path d="M384,448c-8.8,0-16-7.2-16-16s7.2-16,16-16s16,7.2,16,16S392.8,448,384,448z M384,424c-4.4,0-8,3.6-8,8s3.6,8,8,8s8-3.6,8-8
	S388.4,424,384,424z"/>
<path d="M344,448c-8.8,0-16-7.2-16-16s7.2-16,16-16s16,7.2,16,16S352.8,448,344,448z M344,424c-4.4,0-8,3.6-8,8s3.6,8,8,8s8-3.6,8-8
	S348.4,424,344,424z"/>
<path d="M204,76c-1.2,0-2-0.4-2.8-1.2c-0.8-0.8-1.2-1.6-1.2-2.8c0-1.2,0.4-2,1.2-2.8c1.6-1.6,4-1.6,5.6,0c0.8,0.8,1.2,1.6,1.2,2.8
	c0,1.2-0.4,2-1.2,2.8C206,75.6,205.2,76,204,76z"/>
<path d="M204,256c-1.2,0-2-0.4-2.8-1.2c-0.8-0.8-1.2-1.6-1.2-2.8c0-1.2,0.4-2,1.2-2.8c1.6-1.6,4-1.6,5.6,0c0.8,0.8,1.2,1.6,1.2,2.8
	c0,1.2-0.4,2-1.2,2.8C206,255.6,205.2,256,204,256z"/>
<path d="M204,436c-1.2,0-2-0.4-2.8-1.2c-0.8-0.8-1.2-1.6-1.2-2.8c0-1.2,0.4-2,1.2-2.8c1.6-1.6,4-1.6,5.6,0c0.8,0.8,1.2,1.6,1.2,2.8
	c0,1.2-0.4,2-1.2,2.8C206,435.6,205.2,436,204,436z"/>
<path d="M68,436c-1.2,0-2-0.4-2.8-1.2c-0.8-0.8-1.2-1.6-1.2-2.8c0-1.2,0.4-2,1.2-2.8c1.6-1.6,4-1.6,5.6,0c0.8,0.8,1.2,1.6,1.2,2.8
	c0,1.2-0.4,2-1.2,2.8C70,435.6,69.2,436,68,436z"/>
<path d="M68,256c-1.2,0-2-0.4-2.8-1.2c-0.8-0.8-1.2-1.6-1.2-2.8c0-1.2,0.4-2,1.2-2.8c1.6-1.6,4-1.6,5.6,0c0.8,0.8,1.2,1.6,1.2,2.8
	c0,1.2-0.4,2-1.2,2.8C70,255.6,69.2,256,68,256z"/>
<path d="M68,76c-1.2,0-2-0.4-2.8-1.2C64.4,74,64,73.2,64,72c0-1.2,0.4-2,1.2-2.8c1.6-1.6,4-1.6,5.6,0C71.6,70,72,70.8,72,72
	c0,1.2-0.4,2-1.2,2.8C70,75.6,69.2,76,68,76z"/>
<path d="M248,190c-2.4,0-4-1.6-4-4v-40c0-2.4,1.6-4,4-4s4,1.6,4,4v40C252,188.4,250.4,190,248,190z"/>
<path d="M264,190c-2.4,0-4-1.6-4-4v-40c0-2.4,1.6-4,4-4s4,1.6,4,4v40C268,188.4,266.4,190,264,190z"/>
<path d="M248,370c-2.4,0-4-1.6-4-4v-40c0-2.4,1.6-4,4-4s4,1.6,4,4v40C252,368.4,250.4,370,248,370z"/>
<path d="M264,370c-2.4,0-4-1.6-4-4v-40c0-2.4,1.6-4,4-4s4,1.6,4,4v40C268,368.4,266.4,370,264,370z"/>
</svg>