<svg width="45" height="45" viewBox="0 0 45 45" fill="none" xmlns="http://www.w3.org/2000/svg">
<path d="M39.3 3.6H5.7C3.3804 3.6 1.5 5.4804 1.5 7.8V28.8C1.5 31.1196 3.3804 33 5.7 33H39.3C41.6196 33 43.5 31.1196 43.5 28.8V7.8C43.5 5.4804 41.6196 3.6 39.3 3.6Z" stroke="white" stroke-width="2" stroke-linecap="round" stroke-linejoin="round"/>
<path d="M14.1 41.4H30.9" stroke="white" stroke-width="2" stroke-linecap="round" stroke-linejoin="round"/>
<path d="M22.5 33V41.4" stroke="white" stroke-width="2" stroke-linecap="round" stroke-linejoin="round"/>
<path d="M28.8663 15.2532C28.866 14.9862 28.7955 14.724 28.6619 14.4929C28.5283 14.2617 28.3363 14.0698 28.1051 13.9363L22.7766 10.8915C22.5452 10.7578 22.2826 10.6875 22.0154 10.6875C21.7481 10.6875 21.4856 10.7578 21.2542 10.8915L15.9257 13.9363C15.6945 14.0698 15.5024 14.2617 15.3688 14.4929C15.2352 14.724 15.1647 14.9862 15.1645 15.2532V21.3429C15.1647 21.6099 15.2352 21.8721 15.3688 22.1032C15.5024 22.3344 15.6945 22.5263 15.9257 22.6598L21.2542 25.7047C21.4856 25.8383 21.7481 25.9086 22.0154 25.9086C22.2826 25.9086 22.5452 25.8383 22.7766 25.7047L28.1051 22.6598C28.3363 22.5263 28.5283 22.3344 28.6619 22.1032C28.7955 21.8721 28.866 21.6099 28.8663 21.3429V15.2532Z" stroke="white" stroke-width="2" stroke-linecap="round" stroke-linejoin="round"/>
<path d="M15.3928 14.492L22.0154 18.2981L28.6379 14.492" stroke="white" stroke-width="2" stroke-linecap="round" stroke-linejoin="round"/>
<path d="M22.0154 25.9102V18.2981" stroke="white" stroke-width="2" stroke-linecap="round" stroke-linejoin="round"/>
</svg>
