<svg width="64" height="64" viewBox="0 0 64 64" fill="none" xmlns="http://www.w3.org/2000/svg">
<path fill-rule="evenodd" clip-rule="evenodd" d="M62 32.0624C62 15.4611 48.5344 2 31.9196 2C-7.97769 3.58365 -7.96869 60.5457 31.9196 62.1204C48.5299 62.1204 62 48.6638 62 32.0579V32.0624ZM26.4488 15.3576C26.2103 15.821 26.2103 16.4283 26.2103 17.6431V24.5266C26.2103 24.999 26.2013 25.1474 26.4128 25.4669C26.5972 25.7233 28.3069 27.028 28.5948 27.2845C29.2832 27.7839 29.2832 28.1303 28.5948 28.6297L26.8537 30.0424C26.2913 30.4788 26.1968 30.6767 26.2103 31.3876V46.4683C26.2238 48.2994 26.1338 48.9202 27.3936 49.7031C27.857 49.9415 28.4643 49.9415 29.6791 49.9415H34.1601C35.3748 49.9415 35.9822 49.9415 36.4456 49.7031C37.7053 48.9202 37.6153 48.3039 37.6288 46.4683V39.5848C37.6468 38.8739 37.5523 38.676 36.9855 38.2396L35.2444 36.8269C34.9609 36.5974 34.8169 36.4805 34.7675 36.341C34.655 35.9181 34.8304 35.8281 35.2444 35.4772L36.9855 34.0645C37.5479 33.6281 37.6423 33.4301 37.6288 32.7193V17.6386C37.6153 15.8075 37.7053 15.1866 36.4456 14.4038C35.9822 14.1653 35.3748 14.1653 34.1601 14.1653H29.6791C27.8525 14.1743 27.2226 14.0934 26.4443 15.3486L26.4488 15.3576Z" fill="#1A285F"/>
</svg>
