<svg width="64" height="64" viewBox="0 0 64 64" fill="none" xmlns="http://www.w3.org/2000/svg">
<path d="M57.9243 0.790734C57.4114 0.271815 56.7764 0 56.0681 0H8.63774C7.92946 0 7.29445 0.271815 6.78155 0.790734C6.26866 1.30965 6 1.95212 6 2.66873V34.6687C6 37.0656 6.46405 39.4131 7.36772 41.7606C8.29581 44.1081 9.41929 46.1838 10.787 48.0124C12.1547 49.8409 13.7667 51.5954 15.6473 53.3251C17.5279 55.0548 19.262 56.488 20.8495 57.6247C22.437 58.7614 24.0978 59.8486 25.8319 60.8618C27.5659 61.8749 28.7871 62.5668 29.5198 62.9127C30.2525 63.2834 30.8387 63.5552 31.2783 63.7529C31.5958 63.9259 31.9622 64 32.3529 64C32.7437 64 33.0857 63.9259 33.4276 63.7529C33.8672 63.5552 34.4534 63.2834 35.1861 62.9127C35.9188 62.5421 37.14 61.8749 38.874 60.8618C40.6081 59.8486 42.2689 58.7614 43.8564 57.6247C45.4439 56.488 47.178 55.0548 49.0586 53.3251C50.9392 51.5954 52.5512 49.8409 53.9189 48.0124C55.2866 46.1838 56.4101 44.1081 57.3382 41.7606C58.2663 39.4131 58.7059 37.0409 58.7059 34.6687V2.66873C58.7059 1.95212 58.4372 1.33436 57.9243 0.790734ZM51.8185 34.9652C51.8185 46.5544 32.3774 56.5127 32.3774 56.5127V6.84479H51.8185C51.8185 6.8695 51.8185 23.3761 51.8185 34.9652Z" fill="#175DDC"/>
</svg>
