<svg width="64" height="64" viewBox="0 0 64 64" fill="none" xmlns="http://www.w3.org/2000/svg">
<path fill-rule="evenodd" clip-rule="evenodd" d="M57.292 15.321L58.792 11.645C58.792 11.645 56.883 9.602 54.565 7.287C52.248 4.972 47.34 6.334 47.34 6.334L41.751 0H22.12L16.531 6.334C16.531 6.334 11.623 4.972 9.306 7.287C6.988 9.602 5.08 11.645 5.08 11.645L6.58 15.321L4.67 20.768C4.67 20.768 10.284 42.004 10.942 44.598C12.237 49.704 13.123 51.678 16.804 54.266C20.484 56.853 27.164 61.346 28.254 62.028C29.345 62.708 30.709 63.868 31.936 63.868C33.163 63.868 34.526 62.708 35.616 62.028C36.707 61.347 43.386 56.853 47.068 54.266C50.748 51.679 51.635 49.704 52.93 44.598C53.587 42.004 59.2 20.768 59.2 20.768L57.292 15.321Z" fill="url(#paint0_linear_20_299)"/>
<path fill-rule="evenodd" clip-rule="evenodd" d="M38.888 11.508C39.706 11.508 45.773 10.351 45.773 10.351C45.773 10.351 52.962 19.031 52.962 20.887C52.962 22.421 52.343 23.021 51.615 23.729C51.463 23.877 51.305 24.029 51.148 24.197L45.758 29.914C45.7001 29.9748 45.6415 30.0348 45.582 30.094C45.044 30.634 44.252 31.43 44.81 32.752L44.925 33.021C45.538 34.453 46.295 36.221 45.332 38.011C44.307 39.917 42.552 41.189 41.427 40.978C40.303 40.768 37.661 39.389 36.69 38.76C35.719 38.13 32.64 35.594 32.64 34.623C32.64 33.814 34.854 32.468 35.93 31.813C36.144 31.683 36.313 31.581 36.41 31.515C36.521 31.44 36.707 31.325 36.936 31.183C37.917 30.573 39.69 29.473 39.735 28.986C39.79 28.384 39.769 28.208 38.977 26.722C38.809 26.406 38.612 26.068 38.409 25.718C37.655 24.423 36.811 22.973 36.999 21.934C37.209 20.761 39.049 20.089 40.607 19.519C40.801 19.449 40.992 19.379 41.174 19.31L42.797 18.701C44.353 18.119 46.081 17.472 46.367 17.341C46.761 17.16 46.659 16.986 45.464 16.873C45.2706 16.854 45.0772 16.834 44.884 16.813C43.404 16.656 40.675 16.367 39.349 16.736C39.088 16.809 38.796 16.888 38.489 16.971C36.999 17.374 35.172 17.868 34.996 18.153C34.966 18.203 34.936 18.246 34.907 18.286C34.739 18.524 34.63 18.68 34.816 19.692C34.871 19.994 34.985 20.587 35.126 21.321C35.536 23.469 36.179 26.819 36.26 27.571C36.271 27.677 36.284 27.778 36.296 27.876C36.399 28.716 36.467 29.275 35.491 29.498L35.236 29.556C34.134 29.808 32.519 30.179 31.936 30.179C31.352 30.179 29.736 29.809 28.634 29.556L28.38 29.498C27.404 29.275 27.473 28.716 27.576 27.876C27.588 27.778 27.6 27.676 27.611 27.571C27.692 26.818 28.336 23.459 28.748 21.312C28.888 20.582 29.001 19.992 29.056 19.692C29.241 18.68 29.132 18.524 28.964 18.286C28.9331 18.2423 28.903 18.198 28.874 18.153C28.7 17.868 26.874 17.374 25.383 16.971C25.076 16.888 24.783 16.809 24.523 16.736C23.196 16.366 20.468 16.656 18.988 16.813C18.762 16.837 18.566 16.858 18.408 16.873C17.212 16.986 17.111 17.16 17.505 17.341C17.79 17.472 19.518 18.119 21.073 18.701C21.67 18.924 22.243 19.138 22.697 19.31C22.88 19.379 23.07 19.448 23.265 19.52C24.823 20.09 26.663 20.761 26.873 21.934C27.06 22.973 26.216 24.423 25.463 25.718C25.259 26.068 25.063 26.406 24.894 26.722C24.103 28.208 24.082 28.384 24.137 28.986C24.181 29.474 25.953 30.573 26.935 31.183C27.164 31.325 27.35 31.44 27.461 31.515C27.559 31.581 27.727 31.683 27.941 31.813C29.017 32.467 31.231 33.813 31.231 34.623C31.231 35.593 28.153 38.13 27.181 38.76C26.211 39.39 23.569 40.768 22.444 40.978C21.32 41.188 19.564 39.917 18.54 38.012C17.577 36.221 18.333 34.453 18.946 33.022L19.061 32.752C19.62 31.43 18.828 30.634 18.289 30.094C18.2299 30.0348 18.1715 29.9748 18.114 29.914L12.724 24.197C12.566 24.03 12.408 23.877 12.256 23.729C11.528 23.022 10.91 22.421 10.91 20.887C10.91 19.032 18.099 10.351 18.099 10.351C18.099 10.351 24.165 11.508 24.983 11.508C25.636 11.508 26.896 11.075 28.21 10.623C28.543 10.509 28.879 10.393 29.21 10.283C30.845 9.73801 31.936 9.73401 31.936 9.73401C31.936 9.73401 33.026 9.73801 34.662 10.283C34.992 10.393 35.329 10.509 35.662 10.623C36.975 11.075 38.236 11.508 38.888 11.508ZM37.847 42.214C39.129 42.874 40.039 43.342 40.383 43.557C40.828 43.835 40.557 44.36 40.151 44.647C39.746 44.932 34.298 49.146 33.77 49.612L33.555 49.803C33.046 50.262 32.396 50.847 31.935 50.847C31.475 50.847 30.825 50.261 30.315 49.803L30.102 49.612C29.572 49.146 24.125 44.932 23.72 44.646C23.315 44.36 23.043 43.836 23.488 43.556C23.832 43.342 24.743 42.873 26.027 42.212L27.247 41.583C29.167 40.591 31.562 39.746 31.936 39.746C32.309 39.746 34.703 40.59 36.625 41.583C37.061 41.809 37.47 42.021 37.847 42.214Z" fill="white"/>
<path fill-rule="evenodd" clip-rule="evenodd" d="M47.34 6.334L41.751 0H22.12L16.531 6.334C16.531 6.334 11.623 4.972 9.306 7.287C9.306 7.287 15.85 6.697 18.099 10.351C18.099 10.351 24.165 11.508 24.983 11.508C25.801 11.508 27.573 10.828 29.209 10.283C30.845 9.738 31.936 9.734 31.936 9.734C31.936 9.734 33.026 9.738 34.662 10.283C36.298 10.828 38.07 11.508 38.888 11.508C39.706 11.508 45.773 10.351 45.773 10.351C48.022 6.697 54.565 7.287 54.565 7.287C52.248 4.972 47.34 6.334 47.34 6.334Z" fill="url(#paint1_linear_20_299)"/>
<defs>
<linearGradient id="paint0_linear_20_299" x1="4.671" y1="64.319" x2="59.2" y2="64.319" gradientUnits="userSpaceOnUse">
<stop stop-color="#FF5500"/>
<stop offset="0.41" stop-color="#FF5500"/>
<stop offset="0.582" stop-color="#FF2000"/>
<stop offset="1" stop-color="#FF2000"/>
</linearGradient>
<linearGradient id="paint1_linear_20_299" x1="10.278" y1="11.466" x2="54.565" y2="11.466" gradientUnits="userSpaceOnUse">
<stop stop-color="#FF452A"/>
<stop offset="1" stop-color="#FF2000"/>
</linearGradient>
</defs>
</svg>
