<svg width="64" height="64" viewBox="0 0 64 64" fill="none" xmlns="http://www.w3.org/2000/svg">
<path d="M57.974 17C55.3408 12.4398 51.5538 8.653 46.9933 6.0202C42.4329 3.38739 37.2598 2.00134 31.994 2.00134C26.7282 2.00134 21.5551 3.38739 16.9947 6.0202C12.4342 8.653 8.64715 12.4398 6.014 17L7.814 49.4L57.974 17Z" fill="url(#paint0_linear_20_275)"/>
<path d="M19.01 39.5L6.02 17C3.38698 21.5605 2.0008 26.7338 2.00076 31.9998C2.00073 37.2658 3.38685 42.4391 6.01981 46.9997C8.65277 51.5602 12.4398 55.3474 17.0003 57.9805C21.5607 60.6136 26.734 61.9999 32 62L61.4 32L19.01 39.5Z" fill="url(#paint1_linear_20_275)"/>
<path d="M44.99 39.5L32 62C37.2655 61.9988 42.438 60.6118 46.9976 57.9782C51.5573 55.3447 55.3434 51.5574 57.9757 46.9971C60.6079 42.4367 61.9935 37.2638 61.9932 31.9983C61.9929 26.7328 60.6068 21.5601 57.974 17H32L44.99 39.5Z" fill="url(#paint2_linear_20_275)"/>
<path d="M32 47C33.9698 47 35.9204 46.612 37.7403 45.8582C39.5601 45.1044 41.2137 43.9995 42.6066 42.6066C43.9995 41.2137 45.1044 39.5601 45.8582 37.7403C46.612 35.9204 47 33.9698 47 32C47 30.0302 46.612 28.0796 45.8582 26.2597C45.1044 24.4399 43.9995 22.7863 42.6066 21.3934C41.2137 20.0005 39.5601 18.8956 37.7403 18.1418C35.9204 17.388 33.9698 17 32 17C28.0218 17 24.2064 18.5804 21.3934 21.3934C18.5804 24.2064 17 28.0218 17 32C17 35.9782 18.5804 39.7936 21.3934 42.6066C24.2064 45.4196 28.0218 47 32 47Z" fill="white"/>
<path d="M32 43.88C33.5601 43.88 35.1049 43.5727 36.5463 42.9757C37.9876 42.3787 39.2973 41.5036 40.4004 40.4004C41.5036 39.2973 42.3787 37.9876 42.9757 36.5463C43.5727 35.1049 43.88 33.5601 43.88 32C43.88 30.4399 43.5727 28.8951 42.9757 27.4537C42.3787 26.0124 41.5036 24.7027 40.4004 23.5996C39.2973 22.4964 37.9876 21.6213 36.5463 21.0243C35.1049 20.4273 33.5601 20.12 32 20.12C28.8492 20.12 25.8275 21.3716 23.5996 23.5996C21.3716 25.8275 20.12 28.8492 20.12 32C20.12 35.1508 21.3716 38.1725 23.5996 40.4004C25.8275 42.6284 28.8492 43.88 32 43.88Z" fill="#1A73E8"/>
<defs>
<linearGradient id="paint0_linear_20_275" x1="6.02" y1="20.75" x2="57.974" y2="20.75" gradientUnits="userSpaceOnUse">
<stop stop-color="#D93025"/>
<stop offset="1" stop-color="#EA4335"/>
</linearGradient>
<linearGradient id="paint1_linear_20_275" x1="35.246" y1="60.122" x2="9.266" y2="15.122" gradientUnits="userSpaceOnUse">
<stop stop-color="#1E8E3E"/>
<stop offset="1" stop-color="#34A853"/>
</linearGradient>
<linearGradient id="paint2_linear_20_275" x1="27.62" y1="62" x2="53.6" y2="17.078" gradientUnits="userSpaceOnUse">
<stop stop-color="#FCC934"/>
<stop offset="1" stop-color="#FBBC04"/>
</linearGradient>
</defs>
</svg>
