<svg width="64" height="64" viewBox="0 0 64 64" fill="none" xmlns="http://www.w3.org/2000/svg">
<path d="M34.8757 26.2528L40.9941 28.4971C41.984 28.8469 43.1872 28.3819 43.1872 27.6437V12.1429C43.1872 11.7888 42.8885 11.4731 42.4107 11.2896L36.2923 9.05814C35.3024 8.70827 34.0992 9.17334 34.0992 9.91147V25.3995C34.0992 25.7579 34.3979 26.0821 34.8757 26.2528Z" fill="#10363D"/>
<path d="M34.8757 54.0843L40.9941 56.32C41.984 56.6699 43.1872 56.2048 43.1872 55.4667V39.9787C43.162 39.7736 43.0738 39.5813 42.9347 39.4285C42.7956 39.2756 42.6125 39.1697 42.4107 39.1253L36.2923 36.8811C35.3024 36.5312 34.0992 37.0005 34.0992 37.7344V53.2352C34.1244 53.4403 34.2126 53.6325 34.3517 53.7854C34.4908 53.9382 34.6739 54.0441 34.8757 54.0885" fill="#10363D"/>
<path d="M23.5392 21.0645L29.6619 23.3131C30.6517 23.6629 31.8421 23.1936 31.8421 22.4597V5.5936C31.8421 5.23946 31.5477 4.9152 31.0699 4.74026L24.96 2.50026C23.9659 2.1504 22.7669 2.61546 22.7669 3.3536V20.2155C22.7913 20.4202 22.8787 20.6124 23.017 20.7652C23.1554 20.9181 23.3379 21.0242 23.5392 21.0688" fill="#10363D"/>
<path d="M23.5392 58.2272L29.6619 60.4757C30.6517 60.8256 31.8421 60.3605 31.8421 59.6224V42.8032C31.8166 42.5989 31.7288 42.4074 31.5906 42.2547C31.4525 42.102 31.2706 41.9956 31.0699 41.9499L24.96 39.7056C23.9659 39.3557 22.7669 39.8208 22.7669 40.5589V57.3824C22.7913 57.5872 22.8787 57.7793 23.017 57.9322C23.1554 58.0851 23.3379 58.1912 23.5392 58.2357" fill="#10363D"/>
<path d="M20.5184 6.22934C20.5184 5.8752 20.2197 5.5552 19.7419 5.376L13.6235 3.13174C12.6336 2.78187 11.4304 3.2512 11.4304 3.98507V56.7467C11.4556 56.9518 11.5438 57.144 11.6829 57.2969C11.822 57.4497 12.0051 57.5556 12.2069 57.6L18.3467 59.8443C19.3365 60.1941 20.5397 59.7291 20.5397 58.9909L20.5184 6.22934Z" fill="#10363D"/>
<path d="M53.76 20.2368L47.6373 17.9883C46.6517 17.6427 45.4571 18.1077 45.4571 18.8416V44.3051C45.4571 44.6592 45.7515 44.9835 46.2336 45.1584L52.352 47.4027C53.3419 47.7525 54.5451 47.2875 54.5451 46.5493V21.0859C54.5451 20.7317 54.2464 20.4075 53.7685 20.2325" fill="#10363D"/>
</svg>
