<svg width="64" height="64" viewBox="0 0 64 64" fill="none" xmlns="http://www.w3.org/2000/svg">
<path d="M56.1641 46.6484C55.3595 47.0666 54.5298 47.4345 53.6797 47.75C50.988 48.7519 48.1377 49.26 45.2656 49.25C34.1797 49.25 24.5234 41.6328 24.5234 31.8359C24.5378 30.5241 24.9016 29.2398 25.5771 28.1152C26.2527 26.9906 27.2158 26.0663 28.3672 25.4375C18.3359 25.8594 15.7578 36.3125 15.7578 42.4297C15.7578 59.7734 31.7188 61.5078 35.1641 61.5078C37.0156 61.5078 39.8047 60.9688 41.4922 60.4297L41.7969 60.3359C48.2548 58.1042 53.7602 53.7396 57.4062 47.9609C57.5122 47.7854 57.5577 47.5799 57.5357 47.376C57.5137 47.1721 57.4255 46.981 57.2845 46.8321C57.1435 46.6831 56.9576 46.5845 56.7552 46.5514C56.5529 46.5182 56.3452 46.5523 56.1641 46.6484Z" fill="url(#paint0_linear_20_293)"/>
<path opacity="0.35" d="M56.1641 46.6484C55.3595 47.0666 54.5298 47.4345 53.6797 47.75C50.988 48.7519 48.1377 49.26 45.2656 49.25C34.1797 49.25 24.5234 41.6328 24.5234 31.8359C24.5378 30.5241 24.9016 29.2398 25.5771 28.1152C26.2527 26.9906 27.2158 26.0663 28.3672 25.4375C18.3359 25.8594 15.7578 36.3125 15.7578 42.4297C15.7578 59.7734 31.7188 61.5078 35.1641 61.5078C37.0156 61.5078 39.8047 60.9688 41.4922 60.4297L41.7969 60.3359C48.2548 58.1042 53.7602 53.7396 57.4062 47.9609C57.5122 47.7854 57.5577 47.5799 57.5357 47.376C57.5137 47.1721 57.4255 46.981 57.2845 46.8321C57.1435 46.6831 56.9576 46.5845 56.7552 46.5514C56.5529 46.5182 56.3452 46.5523 56.1641 46.6484Z" fill="url(#paint1_radial_20_293)"/>
<path d="M26.7734 58.5547C24.6872 57.259 22.8789 55.5621 21.4531 53.5625C19.825 51.334 18.7043 48.7763 18.1697 46.0687C17.635 43.3611 17.6994 40.5694 18.3582 37.8893C19.0171 35.2093 20.2544 32.7059 21.9835 30.5548C23.7126 28.4037 25.8914 26.6571 28.3672 25.4375C29.1172 25.0859 30.3594 24.4766 32.0234 24.5C33.1944 24.5091 34.3474 24.7888 35.3923 25.3174C36.4372 25.8459 37.3458 26.609 38.0469 27.5469C38.9899 28.815 39.5068 30.3494 39.5234 31.9297C39.5234 31.8828 45.2656 13.2734 20.7734 13.2734C10.4844 13.2734 2.02344 23.0234 2.02344 31.6016C1.98251 36.1329 2.95128 40.6164 4.85938 44.7266C7.98423 51.3805 13.4434 56.6556 20.2007 59.5503C26.958 62.445 34.5429 62.758 41.5156 60.4297C39.0728 61.2012 36.4915 61.4331 33.9502 61.1094C31.409 60.7857 28.9683 59.914 26.7969 58.5547H26.7734Z" fill="url(#paint2_linear_20_293)"/>
<path opacity="0.41" d="M26.7734 58.5547C24.6872 57.259 22.8789 55.5621 21.4531 53.5625C19.825 51.334 18.7043 48.7763 18.1697 46.0687C17.635 43.3611 17.6994 40.5694 18.3582 37.8893C19.0171 35.2093 20.2544 32.7059 21.9835 30.5548C23.7126 28.4037 25.8914 26.6571 28.3672 25.4375C29.1172 25.0859 30.3594 24.4766 32.0234 24.5C33.1944 24.5091 34.3474 24.7888 35.3923 25.3174C36.4372 25.8459 37.3458 26.609 38.0469 27.5469C38.9899 28.815 39.5068 30.3494 39.5234 31.9297C39.5234 31.8828 45.2656 13.2734 20.7734 13.2734C10.4844 13.2734 2.02344 23.0234 2.02344 31.6016C1.98251 36.1329 2.95128 40.6164 4.85938 44.7266C7.98423 51.3805 13.4434 56.6556 20.2007 59.5503C26.958 62.445 34.5429 62.758 41.5156 60.4297C39.0728 61.2012 36.4915 61.4331 33.9502 61.1094C31.409 60.7857 28.9683 59.914 26.7969 58.5547H26.7734Z" fill="url(#paint3_radial_20_293)"/>
<path d="M37.7187 36.875C37.5078 37.1094 36.9219 37.4609 36.9219 38.1875C36.9219 38.7969 37.3203 39.4062 38.0469 39.8984C41.3984 42.2422 47.75 41.9141 47.7734 41.9141C50.272 41.9124 52.7244 41.2406 54.875 39.9688C57.0402 38.7023 58.8367 36.892 60.0865 34.7172C61.3363 32.5424 61.9959 30.0786 62 27.5703C62.0703 22.3203 60.125 18.8281 59.3516 17.2812C54.3594 7.57812 43.6484 2 32 2C24.1161 1.99922 16.5487 5.10195 10.9346 10.6371C5.32045 16.1723 2.11087 23.695 2 31.5781C2.11719 23.0234 10.625 16.1094 20.75 16.1094C21.5703 16.1094 26.2578 16.1797 30.5938 18.4531C33.64 19.9668 36.1625 22.3588 37.8359 25.3203C39.2656 27.8047 39.5234 30.9687 39.5234 32.2344C39.5234 33.5 38.8906 35.3516 37.6953 36.8984L37.7187 36.875Z" fill="url(#paint4_radial_20_293)"/>
<path d="M37.7187 36.875C37.5078 37.1094 36.9219 37.4609 36.9219 38.1875C36.9219 38.7969 37.3203 39.4062 38.0469 39.8984C41.3984 42.2422 47.75 41.9141 47.7734 41.9141C50.272 41.9124 52.7244 41.2406 54.875 39.9688C57.0402 38.7023 58.8367 36.892 60.0865 34.7172C61.3363 32.5424 61.9959 30.0786 62 27.5703C62.0703 22.3203 60.125 18.8281 59.3516 17.2812C54.3594 7.57812 43.6484 2 32 2C24.1161 1.99922 16.5487 5.10195 10.9346 10.6371C5.32045 16.1723 2.11087 23.695 2 31.5781C2.11719 23.0234 10.625 16.1094 20.75 16.1094C21.5703 16.1094 26.2578 16.1797 30.5938 18.4531C33.64 19.9668 36.1625 22.3588 37.8359 25.3203C39.2656 27.8047 39.5234 30.9687 39.5234 32.2344C39.5234 33.5 38.8906 35.3516 37.6953 36.8984L37.7187 36.875Z" fill="url(#paint5_radial_20_293)"/>
<defs>
<linearGradient id="paint0_linear_20_293" x1="15.7578" y1="43.4844" x2="57.5703" y2="43.4844" gradientUnits="userSpaceOnUse">
<stop stop-color="#0C59A4"/>
<stop offset="1" stop-color="#114A8B"/>
</linearGradient>
<radialGradient id="paint1_radial_20_293" cx="0" cy="0" r="1" gradientUnits="userSpaceOnUse" gradientTransform="translate(38.8438 43.7996) scale(22.3594 21.2414)">
<stop offset="0.7" stop-opacity="0"/>
<stop offset="0.9" stop-opacity="0.5"/>
<stop offset="1"/>
</radialGradient>
<linearGradient id="paint2_linear_20_293" x1="37.7891" y1="25.3437" x2="11.7031" y2="53.7734" gradientUnits="userSpaceOnUse">
<stop stop-color="#1B9DE2"/>
<stop offset="0.2" stop-color="#1595DF"/>
<stop offset="0.7" stop-color="#0680D7"/>
<stop offset="1" stop-color="#0078D4"/>
</linearGradient>
<radialGradient id="paint3_radial_20_293" cx="0" cy="0" r="1" gradientUnits="userSpaceOnUse" gradientTransform="translate(18.5363 48.6259) rotate(-81.3844) scale(33.6061 27.1504)">
<stop offset="0.8" stop-opacity="0"/>
<stop offset="0.9" stop-opacity="0.5"/>
<stop offset="1"/>
</radialGradient>
<radialGradient id="paint4_radial_20_293" cx="0" cy="0" r="1" gradientUnits="userSpaceOnUse" gradientTransform="translate(8.06797 13.0897) rotate(92.2906) scale(47.4754 101.113)">
<stop stop-color="#35C1F1"/>
<stop offset="0.1" stop-color="#34C1ED"/>
<stop offset="0.2" stop-color="#2FC2DF"/>
<stop offset="0.3" stop-color="#2BC3D2"/>
<stop offset="0.7" stop-color="#36C752"/>
</radialGradient>
<radialGradient id="paint5_radial_20_293" cx="0" cy="0" r="1" gradientUnits="userSpaceOnUse" gradientTransform="translate(58.2641 20.1172) rotate(73.7398) scale(22.8047 18.5448)">
<stop stop-color="#66EB6E"/>
<stop offset="1" stop-color="#66EB6E" stop-opacity="0"/>
</radialGradient>
</defs>
</svg>
