<svg width="64" height="64" viewBox="0 0 64 64" fill="none" xmlns="http://www.w3.org/2000/svg">
<path d="M52.7705 15.5686C50.3684 12.3827 47.281 9.7773 43.7364 7.94514C40.1919 6.11298 36.281 5.10087 32.2927 4.98362C26.0271 4.85814 21.6989 6.74092 19.2501 8.2547C22.5266 6.35438 27.2683 5.27639 31.4197 5.32968C42.0985 5.4646 53.5679 12.7373 55.2712 25.846C57.2275 40.8934 46.7464 53.4522 32.0026 53.4907C15.7821 53.5318 5.91619 39.1698 8.49515 26.2696C8.54311 25.6371 8.63621 25.0088 8.77375 24.3895C9.09198 21.0833 10.0528 17.8711 11.6023 14.9331C9.73437 15.8998 7.35577 18.9571 6.18198 21.789C4.47332 26.1098 3.87089 30.7889 4.4294 35.4015C4.46987 35.751 4.5063 36.0997 4.55217 36.4465C5.25166 40.4742 6.85576 44.2908 9.24373 47.6088C11.6317 50.9269 14.7413 53.66 18.3384 55.6023C21.9355 57.5447 25.9264 58.6457 30.0106 58.8224C34.0948 58.9992 38.1658 58.247 41.9173 56.6227C45.6687 54.9984 49.0028 52.5442 51.6685 49.4448C54.3342 46.3455 56.262 42.6817 57.3069 38.7295C58.3517 34.7773 58.4863 30.6395 57.7005 26.6277C56.9148 22.6159 55.2291 18.8346 52.7705 15.5686Z" fill="url(#paint0_radial_19_231)"/>
<path opacity="0.67" d="M52.7705 15.5686C50.3684 12.3827 47.281 9.7773 43.7364 7.94514C40.1919 6.11298 36.281 5.10087 32.2927 4.98362C26.0271 4.85814 21.6989 6.74092 19.2501 8.2547C22.5266 6.35438 27.2683 5.27639 31.4197 5.32968C42.0985 5.4646 53.5679 12.7373 55.2712 25.846C57.2275 40.8934 46.7464 53.4522 32.0026 53.4907C15.7821 53.5318 5.91619 39.1698 8.49515 26.2696C8.54311 25.6371 8.63621 25.0088 8.77375 24.3895C9.09198 21.0833 10.0528 17.8711 11.6023 14.9331C9.73437 15.8998 7.35577 18.9571 6.18198 21.789C4.47332 26.1098 3.87089 30.7889 4.4294 35.4015C4.46987 35.751 4.5063 36.0997 4.55217 36.4465C5.25166 40.4742 6.85576 44.2908 9.24373 47.6088C11.6317 50.9269 14.7413 53.66 18.3384 55.6023C21.9355 57.5447 25.9264 58.6457 30.0106 58.8224C34.0948 58.9992 38.1658 58.247 41.9173 56.6227C45.6687 54.9984 49.0028 52.5442 51.6685 49.4448C54.3342 46.3455 56.262 42.6817 57.3069 38.7295C58.3517 34.7773 58.4863 30.6395 57.7005 26.6277C56.9148 22.6159 55.2291 18.8346 52.7705 15.5686Z" fill="url(#paint1_radial_19_231)"/>
<path d="M52.7705 15.5686C50.3684 12.3827 47.281 9.7773 43.7364 7.94514C40.1919 6.11298 36.281 5.10087 32.2927 4.98362C26.0271 4.85814 21.6989 6.74092 19.2501 8.2547C22.5266 6.35438 27.2683 5.27639 31.4197 5.32968C42.0985 5.4646 53.5679 12.7373 55.2712 25.846C57.2275 40.8934 46.7464 53.4522 32.0026 53.4907C15.7821 53.5318 5.91619 39.1698 8.49515 26.2696C8.54311 25.6371 8.63621 25.0088 8.77375 24.3895C9.09198 21.0833 10.0528 17.8711 11.6023 14.9331C9.73437 15.8998 7.35577 18.9571 6.18198 21.789C4.47332 26.1098 3.87089 30.7889 4.4294 35.4015C4.46987 35.751 4.5063 36.0997 4.55217 36.4465C5.25166 40.4742 6.85576 44.2908 9.24373 47.6088C11.6317 50.9269 14.7413 53.66 18.3384 55.6023C21.9355 57.5447 25.9264 58.6457 30.0106 58.8224C34.0948 58.9992 38.1658 58.247 41.9173 56.6227C45.6687 54.9984 49.0028 52.5442 51.6685 49.4448C54.3342 46.3455 56.262 42.6817 57.3069 38.7295C58.3517 34.7773 58.4863 30.6395 57.7005 26.6277C56.9148 22.6159 55.2291 18.8346 52.7705 15.5686Z" fill="url(#paint2_radial_19_231)"/>
<path d="M52.7705 15.5686C50.3684 12.3827 47.281 9.7773 43.7364 7.94514C40.1919 6.11298 36.281 5.10087 32.2927 4.98362C26.0271 4.85814 21.6989 6.74092 19.2501 8.2547C22.5266 6.35438 27.2683 5.27639 31.4197 5.32968C42.0985 5.4646 53.5679 12.7373 55.2712 25.846C57.2275 40.8934 46.7464 53.4522 32.0026 53.4907C15.7821 53.5318 5.91619 39.1698 8.49515 26.2696C8.54311 25.6371 8.63621 25.0088 8.77375 24.3895C9.09198 21.0833 10.0528 17.8711 11.6023 14.9331C9.73437 15.8998 7.35577 18.9571 6.18198 21.789C4.47332 26.1098 3.87089 30.7889 4.4294 35.4015C4.46987 35.751 4.5063 36.0997 4.55217 36.4465C5.25166 40.4742 6.85576 44.2908 9.24373 47.6088C11.6317 50.9269 14.7413 53.66 18.3384 55.6023C21.9355 57.5447 25.9264 58.6457 30.0106 58.8224C34.0948 58.9992 38.1658 58.247 41.9173 56.6227C45.6687 54.9984 49.0028 52.5442 51.6685 49.4448C54.3342 46.3455 56.262 42.6817 57.3069 38.7295C58.3517 34.7773 58.4863 30.6395 57.7005 26.6277C56.9148 22.6159 55.2291 18.8346 52.7705 15.5686Z" fill="url(#paint3_radial_19_231)"/>
<path d="M52.7705 15.5686C50.3684 12.3827 47.281 9.7773 43.7364 7.94514C40.1919 6.11298 36.281 5.10087 32.2927 4.98362C26.0271 4.85814 21.6989 6.74092 19.2501 8.2547C22.5266 6.35438 27.2683 5.27639 31.4197 5.32968C42.0985 5.4646 53.5679 12.7373 55.2712 25.846C57.2275 40.8934 46.7464 53.4522 32.0026 53.4907C15.7821 53.5318 5.91619 39.1698 8.49515 26.2696C8.54311 25.6371 8.63621 25.0088 8.77375 24.3895C9.09198 21.0833 10.0528 17.8711 11.6023 14.9331C9.73437 15.8998 7.35577 18.9571 6.18198 21.789C4.47332 26.1098 3.87089 30.7889 4.4294 35.4015C4.46987 35.751 4.5063 36.0997 4.55217 36.4465C5.25166 40.4742 6.85576 44.2908 9.24373 47.6088C11.6317 50.9269 14.7413 53.66 18.3384 55.6023C21.9355 57.5447 25.9264 58.6457 30.0106 58.8224C34.0948 58.9992 38.1658 58.247 41.9173 56.6227C45.6687 54.9984 49.0028 52.5442 51.6685 49.4448C54.3342 46.3455 56.262 42.6817 57.3069 38.7295C58.3517 34.7773 58.4863 30.6395 57.7005 26.6277C56.9148 22.6159 55.2291 18.8346 52.7705 15.5686Z" fill="url(#paint4_radial_19_231)"/>
<path d="M55.2712 25.846C55.4829 27.4664 55.5506 29.1024 55.4736 30.7347C56.3685 30.5998 57.2651 30.4806 58.1632 30.3772C57.8789 25.0144 56.0013 19.8584 52.7705 15.5686C50.3684 12.3827 47.281 9.7773 43.7364 7.94514C40.1919 6.11298 36.281 5.10087 32.2926 4.98362C26.0271 4.85814 21.6989 6.74092 19.2501 8.2547C22.5266 6.35438 27.2683 5.27639 31.4197 5.32968C42.0985 5.46595 53.5679 12.7353 55.2712 25.846Z" fill="url(#paint5_linear_19_231)"/>
<path d="M55.9282 25.0979C54.4097 11.3983 42.1923 5.24064 31.4197 5.32969C27.2676 5.36342 22.5266 6.35439 19.2501 8.25471C18.3831 8.7688 17.5774 9.37986 16.8486 10.0761C16.9356 10.0039 17.1953 9.79007 17.6257 9.4946L17.6682 9.4656L17.706 9.43996C19.296 8.36497 21.0478 7.55146 22.8949 7.03033C25.7886 6.23049 28.7879 5.87944 31.7881 5.98944C37.3562 6.32195 42.6008 8.71703 46.4985 12.7074C50.3962 16.6978 52.6674 21.9971 52.869 27.5716C53.1166 36.4809 45.8249 43.5843 37.4195 43.9958C31.3064 44.2953 25.5468 41.3373 22.7337 35.4198C22.0756 34.0721 21.6288 32.6312 21.4088 31.1476C20.0758 22.1418 26.1235 14.4616 31.6693 12.5599C28.6775 9.94658 21.1808 10.124 15.6013 14.2289C11.5834 17.1849 8.9768 21.6824 8.11333 27.0461C7.49211 31.1616 8.03905 35.3688 9.69187 39.1887C11.4087 43.2396 14.2142 46.7356 17.7971 49.289C21.38 51.8424 25.6002 53.3532 29.9896 53.6539C30.6592 53.7052 31.3302 53.7306 32.0026 53.7301C49.8536 53.7301 57.5979 40.1797 55.9282 25.0979Z" fill="url(#paint6_radial_19_231)"/>
<path d="M55.9282 25.0979C54.4097 11.3983 42.1923 5.24064 31.4197 5.32969C27.2676 5.36342 22.5266 6.35439 19.2501 8.25471C18.3831 8.7688 17.5774 9.37986 16.8486 10.0761C16.9356 10.0039 17.1953 9.79007 17.6257 9.4946L17.6682 9.4656L17.706 9.43996C19.296 8.36497 21.0478 7.55146 22.8949 7.03033C25.7886 6.23049 28.7879 5.87944 31.7881 5.98944C37.3562 6.32195 42.6008 8.71703 46.4985 12.7074C50.3962 16.6978 52.6674 21.9971 52.869 27.5716C53.1166 36.4809 45.8249 43.5843 37.4195 43.9958C31.3064 44.2953 25.5468 41.3373 22.7337 35.4198C22.0756 34.0721 21.6288 32.6312 21.4088 31.1476C20.0758 22.1418 26.1235 14.4616 31.6693 12.5599C28.6775 9.94658 21.1808 10.124 15.6013 14.2289C11.5834 17.1849 8.9768 21.6824 8.11333 27.0461C7.49211 31.1616 8.03905 35.3688 9.69187 39.1887C11.4087 43.2396 14.2142 46.7356 17.7971 49.289C21.38 51.8424 25.6002 53.3532 29.9896 53.6539C30.6592 53.7052 31.3302 53.7306 32.0026 53.7301C49.8536 53.7301 57.5979 40.1797 55.9282 25.0979Z" fill="url(#paint7_radial_19_231)"/>
<path opacity="0.53" d="M55.9282 25.0979C54.4097 11.3983 42.1923 5.24064 31.4197 5.32969C27.2676 5.36342 22.5266 6.35439 19.2501 8.25471C18.3831 8.7688 17.5774 9.37986 16.8486 10.0761C16.9356 10.0039 17.1953 9.79007 17.6257 9.4946L17.6682 9.4656L17.706 9.43996C19.296 8.36497 21.0478 7.55146 22.8949 7.03033C25.7886 6.23049 28.7879 5.87944 31.7881 5.98944C37.3562 6.32195 42.6008 8.71703 46.4985 12.7074C50.3962 16.6978 52.6674 21.9971 52.869 27.5716C53.1166 36.4809 45.8249 43.5843 37.4195 43.9958C31.3064 44.2953 25.5468 41.3373 22.7337 35.4198C22.0756 34.0721 21.6288 32.6312 21.4088 31.1476C20.0758 22.1418 26.1235 14.4616 31.6693 12.5599C28.6775 9.94658 21.1808 10.124 15.6013 14.2289C11.5834 17.1849 8.9768 21.6824 8.11333 27.0461C7.49211 31.1616 8.03905 35.3688 9.69187 39.1887C11.4087 43.2396 14.2142 46.7356 17.7971 49.289C21.38 51.8424 25.6002 53.3532 29.9896 53.6539C30.6592 53.7052 31.3302 53.7306 32.0026 53.7301C49.8536 53.7301 57.5979 40.1797 55.9282 25.0979Z" fill="url(#paint8_radial_19_231)"/>
<path opacity="0.53" d="M55.9282 25.0979C54.4097 11.3983 42.1923 5.24064 31.4197 5.32969C27.2676 5.36342 22.5266 6.35439 19.2501 8.25471C18.3831 8.7688 17.5774 9.37986 16.8486 10.0761C16.9356 10.0039 17.1953 9.79007 17.6257 9.4946L17.6682 9.4656L17.706 9.43996C19.296 8.36497 21.0478 7.55146 22.8949 7.03033C25.7886 6.23049 28.7879 5.87944 31.7881 5.98944C37.3562 6.32195 42.6008 8.71703 46.4985 12.7074C50.3962 16.6978 52.6674 21.9971 52.869 27.5716C53.1166 36.4809 45.8249 43.5843 37.4195 43.9958C31.3064 44.2953 25.5468 41.3373 22.7337 35.4198C22.0756 34.0721 21.6288 32.6312 21.4088 31.1476C20.0758 22.1418 26.1235 14.4616 31.6693 12.5599C28.6775 9.94658 21.1808 10.124 15.6013 14.2289C11.5834 17.1849 8.9768 21.6824 8.11333 27.0461C7.49211 31.1616 8.03905 35.3688 9.69187 39.1887C11.4087 43.2396 14.2142 46.7356 17.7971 49.289C21.38 51.8424 25.6002 53.3532 29.9896 53.6539C30.6592 53.7052 31.3302 53.7306 32.0026 53.7301C49.8536 53.7301 57.5979 40.1797 55.9282 25.0979Z" fill="url(#paint9_radial_19_231)"/>
<path d="M37.4195 43.9958C48.955 43.2943 53.893 33.7421 54.2026 26.9658C54.6857 16.3781 48.4045 4.96409 31.7881 5.98946C28.7878 5.88012 25.7885 6.23186 22.8949 7.03238C21.0561 7.57563 19.3075 8.38761 17.706 9.44201L17.6682 9.46765L17.6257 9.49665C17.3676 9.67654 17.1151 9.86588 16.8682 10.0647C21.1692 7.65963 26.1387 6.72717 31.019 7.40947C40.5591 8.66151 49.2815 16.0827 49.2815 25.875C49.2815 33.4095 43.4591 39.1644 36.6411 38.7509C26.5121 38.1438 23.9588 27.7551 29.228 23.2664C27.8073 22.9608 25.1373 23.5598 23.2781 26.3391C21.6098 28.8351 21.7043 32.687 22.7337 35.4198C24.0168 38.1748 26.1107 40.4724 28.7352 42.005C31.3596 43.5376 34.3895 44.2322 37.4195 43.9958Z" fill="url(#paint10_radial_19_231)"/>
<path d="M52.7705 15.5686C52.0477 14.6223 51.263 13.725 50.4216 12.8824C49.7534 12.176 49.0373 11.5165 48.2784 10.9086C48.7151 11.2888 49.1315 11.6919 49.5257 12.1161C51.0024 13.6918 52.1252 15.5649 52.8191 17.6099C54.2283 21.8794 54.1365 27.2228 51.4456 31.4195C49.9515 33.7711 47.865 35.6882 45.3955 36.9782C42.9261 38.2683 40.1607 38.8859 37.377 38.7691C37.1335 38.7691 36.888 38.7691 36.6411 38.7509C26.5121 38.1438 23.9588 27.7551 29.2287 23.2664C27.8073 22.9608 25.1373 23.5598 23.2781 26.3391C21.6098 28.8351 21.7043 32.687 22.7337 35.4198C22.0759 34.072 21.6292 32.6311 21.4095 31.1476C20.0758 22.1418 26.1235 14.4616 31.6693 12.56C28.6775 9.94661 21.1808 10.124 15.6013 14.2289C12.3197 16.6819 9.93006 20.1407 8.79669 24.0779C9.1579 20.8829 10.1092 17.7828 11.6023 14.9352C9.73437 15.9019 7.35577 18.9591 6.18198 21.7911C4.47365 26.1112 3.87123 30.7896 4.4294 35.4016C4.46987 35.751 4.5063 36.0998 4.55217 36.4465C5.25166 40.4742 6.85576 44.2908 9.24373 47.6089C11.6317 50.9269 14.7413 53.66 18.3384 55.6023C21.9355 57.5447 25.9264 58.6457 30.0106 58.8224C34.0948 58.9992 38.1658 58.2471 41.9173 56.6228C45.6687 54.9984 49.0028 52.5442 51.6685 49.4448C54.3342 46.3455 56.262 42.6818 57.3069 38.7295C58.3517 34.7773 58.4863 30.6395 57.7005 26.6277C56.9148 22.6159 55.2291 18.8347 52.7705 15.5686Z" fill="url(#paint11_linear_19_231)"/>
<path d="M52.8191 17.6099C52.1254 15.5649 51.0025 13.6917 49.5257 12.1161C47.7708 10.2874 45.6904 8.80203 43.391 7.73598C41.4713 6.78973 39.4472 6.07223 37.3602 5.5982C33.6812 4.7929 29.874 4.76992 26.1856 5.53074C22.3519 6.34025 18.981 7.99907 16.8486 10.0728C18.5489 9.1122 20.3713 8.38605 22.2662 7.91407C25.9485 6.98875 29.8042 7.00422 33.4789 7.95905C37.1536 8.91388 40.5292 10.7774 43.2952 13.3782C44.4163 14.4414 45.3976 15.6428 46.2155 16.9536C49.5176 22.3226 49.2053 29.0726 46.6304 33.0533C44.7179 36.0107 40.6218 38.7873 36.8003 38.755C39.6765 38.972 42.5577 38.4046 45.1369 37.1131C47.716 35.8217 49.8964 33.8546 51.4456 31.4215C54.1365 27.2228 54.2283 21.8794 52.8191 17.6099Z" fill="url(#paint12_linear_19_231)"/>
<path d="M52.8191 17.6099C52.1254 15.5649 51.0025 13.6917 49.5257 12.1161C47.7708 10.2874 45.6904 8.80203 43.391 7.73598C41.4713 6.78973 39.4472 6.07223 37.3602 5.5982C33.6812 4.7929 29.874 4.76992 26.1856 5.53074C22.3519 6.34025 18.981 7.99907 16.8486 10.0728C18.5489 9.1122 20.3713 8.38605 22.2662 7.91407C25.9485 6.98875 29.8042 7.00422 33.4789 7.95905C37.1536 8.91388 40.5292 10.7774 43.2952 13.3782C44.4163 14.4414 45.3976 15.6428 46.2155 16.9536C49.5176 22.3226 49.2053 29.0726 46.6304 33.0533C44.7179 36.0107 40.6218 38.7873 36.8003 38.755C39.6765 38.972 42.5577 38.4046 45.1369 37.1131C47.716 35.8217 49.8964 33.8546 51.4456 31.4215C54.1365 27.2228 54.2283 21.8794 52.8191 17.6099Z" fill="url(#paint13_linear_19_231)"/>
<defs>
<radialGradient id="paint0_radial_19_231" cx="0" cy="0" r="1" gradientUnits="userSpaceOnUse" gradientTransform="translate(52.4919 16.0307) scale(61.2393 61.2392)">
<stop stop-color="#FFF36E"/>
<stop offset="0.5" stop-color="#FC4055"/>
<stop offset="1" stop-color="#E31587"/>
</radialGradient>
<radialGradient id="paint1_radial_19_231" cx="0" cy="0" r="1" gradientUnits="userSpaceOnUse" gradientTransform="translate(8.70967 18.5638) scale(36.243 36.243)">
<stop offset="0.001" stop-color="#C60084"/>
<stop offset="1" stop-color="#FC4055" stop-opacity="0"/>
</radialGradient>
<radialGradient id="paint2_radial_19_231" cx="0" cy="0" r="1" gradientUnits="userSpaceOnUse" gradientTransform="translate(57.7267 12.5458) scale(71.9106 71.9106)">
<stop stop-color="#FFDE67" stop-opacity="0.6"/>
<stop offset="0.093" stop-color="#FFD966" stop-opacity="0.581"/>
<stop offset="0.203" stop-color="#FFCA65" stop-opacity="0.525"/>
<stop offset="0.321" stop-color="#FEB262" stop-opacity="0.432"/>
<stop offset="0.446" stop-color="#FE8F5E" stop-opacity="0.302"/>
<stop offset="0.573" stop-color="#FD6459" stop-opacity="0.137"/>
<stop offset="0.664" stop-color="#FC4055" stop-opacity="0"/>
</radialGradient>
<radialGradient id="paint3_radial_19_231" cx="0" cy="0" r="1" gradientUnits="userSpaceOnUse" gradientTransform="translate(32.7628 34.932) scale(92.7702 92.7702)">
<stop offset="0.153" stop-color="#810220"/>
<stop offset="0.167" stop-color="#920B27" stop-opacity="0.861"/>
<stop offset="0.216" stop-color="#CB2740" stop-opacity="0.398"/>
<stop offset="0.253" stop-color="#EF394F" stop-opacity="0.11"/>
<stop offset="0.272" stop-color="#FC4055" stop-opacity="0"/>
</radialGradient>
<radialGradient id="paint4_radial_19_231" cx="0" cy="0" r="1" gradientUnits="userSpaceOnUse" gradientTransform="translate(25.7424 33.7657) scale(92.7702 92.7702)">
<stop offset="0.113" stop-color="#810220"/>
<stop offset="0.133" stop-color="#920B27" stop-opacity="0.861"/>
<stop offset="0.204" stop-color="#CB2740" stop-opacity="0.398"/>
<stop offset="0.257" stop-color="#EF394F" stop-opacity="0.11"/>
<stop offset="0.284" stop-color="#FC4055" stop-opacity="0"/>
</radialGradient>
<linearGradient id="paint5_linear_19_231" x1="35.1549" y1="10.2306" x2="51.0469" y2="37.7565" gradientUnits="userSpaceOnUse">
<stop stop-color="#FFBD4F"/>
<stop offset="0.508" stop-color="#FF9640" stop-opacity="0"/>
</linearGradient>
<radialGradient id="paint6_radial_19_231" cx="0" cy="0" r="1" gradientUnits="userSpaceOnUse" gradientTransform="translate(51.0923 13.1343) scale(57.4883 57.6082)">
<stop stop-color="#FF9640"/>
<stop offset="0.8" stop-color="#FC4055"/>
</radialGradient>
<radialGradient id="paint7_radial_19_231" cx="0" cy="0" r="1" gradientUnits="userSpaceOnUse" gradientTransform="translate(51.0923 13.1343) scale(57.4883 57.6082)">
<stop offset="0.084" stop-color="#FFDE67"/>
<stop offset="0.147" stop-color="#FFDC66" stop-opacity="0.968"/>
<stop offset="0.246" stop-color="#FFD562" stop-opacity="0.879"/>
<stop offset="0.369" stop-color="#FFCB5D" stop-opacity="0.734"/>
<stop offset="0.511" stop-color="#FFBC55" stop-opacity="0.533"/>
<stop offset="0.667" stop-color="#FFAA4B" stop-opacity="0.28"/>
<stop offset="0.822" stop-color="#FF9640" stop-opacity="0"/>
</radialGradient>
<radialGradient id="paint8_radial_19_231" cx="0" cy="0" r="1" gradientUnits="userSpaceOnUse" gradientTransform="translate(37.925 31.0525) rotate(75.728) scale(28.2453 29.4216)">
<stop offset="0.363" stop-color="#FC4055"/>
<stop offset="0.443" stop-color="#FD604D" stop-opacity="0.633"/>
<stop offset="0.545" stop-color="#FE8644" stop-opacity="0.181"/>
<stop offset="0.59" stop-color="#FF9640" stop-opacity="0"/>
</radialGradient>
<radialGradient id="paint9_radial_19_231" cx="0" cy="0" r="1" gradientUnits="userSpaceOnUse" gradientTransform="translate(33.0677 33.3764) scale(28.1911 28.1911)">
<stop offset="0.216" stop-color="#FC4055" stop-opacity="0.8"/>
<stop offset="0.267" stop-color="#FD5251" stop-opacity="0.633"/>
<stop offset="0.41" stop-color="#FE8345" stop-opacity="0.181"/>
<stop offset="0.474" stop-color="#FF9640" stop-opacity="0"/>
</radialGradient>
<radialGradient id="paint10_radial_19_231" cx="0" cy="0" r="1" gradientUnits="userSpaceOnUse" gradientTransform="translate(62.5656 6.62687) scale(97.1659 97.3685)">
<stop offset="0.054" stop-color="#FFF36E"/>
<stop offset="0.457" stop-color="#FF9640"/>
<stop offset="0.639" stop-color="#FF9640"/>
</radialGradient>
<linearGradient id="paint11_linear_19_231" x1="44.0737" y1="9.7557" x2="16.485" y2="57.5416" gradientUnits="userSpaceOnUse">
<stop stop-color="#FFF36E" stop-opacity="0.8"/>
<stop offset="0.094" stop-color="#FFF36E" stop-opacity="0.699"/>
<stop offset="0.752" stop-color="#FFF36E" stop-opacity="0"/>
</linearGradient>
<linearGradient id="paint12_linear_19_231" x1="31.616" y1="4.5256" x2="46.2647" y2="46.9391" gradientUnits="userSpaceOnUse">
<stop stop-color="#B833E1"/>
<stop offset="0.371" stop-color="#9059FF"/>
<stop offset="0.614" stop-color="#5B6DF8"/>
<stop offset="1" stop-color="#0090ED"/>
</linearGradient>
<linearGradient id="paint13_linear_19_231" x1="22.9307" y1="5.19615" x2="50.1578" y2="32.4233" gradientUnits="userSpaceOnUse">
<stop offset="0.805" stop-color="#722291" stop-opacity="0"/>
<stop offset="1" stop-color="#592ACB" stop-opacity="0.5"/>
</linearGradient>
</defs>
</svg>
