<svg width="64" height="64" viewBox="0 0 64 64" fill="none" xmlns="http://www.w3.org/2000/svg">
<g clip-path="url(#clip0_20_305)">
<path d="M9.00002 3.71858V60.2814C9.00002 61.2676 9.39075 62.2135 10.0863 62.9109C10.7818 63.6082 11.7251 64 12.7086 64H52.2054C53.1878 63.9982 54.1294 63.6056 54.8234 62.9084C55.5174 62.2113 55.9072 61.2665 55.9072 60.2814V16.5978L39.3539 0H12.7086C11.7251 0 10.7818 0.391778 10.0863 1.08915C9.39075 1.78652 9.00002 2.73235 9.00002 3.71858V3.71858Z" fill="url(#paint0_linear_20_305)"/>
<g clip-path="url(#clip1_20_305)">
<path d="M32.457 50.3647C42.6713 50.3647 50.9516 42.0844 50.9516 31.8702C50.9516 21.6559 42.6713 13.3756 32.457 13.3756C22.2428 13.3756 13.9625 21.6559 13.9625 31.8702C13.9625 42.0844 22.2428 50.3647 32.457 50.3647Z" fill="black"/>
<path d="M32.457 48.4593C41.6189 48.4593 49.0461 41.0321 49.0461 31.8702C49.0461 22.7083 41.6189 15.2811 32.457 15.2811C23.2951 15.2811 15.8679 22.7083 15.8679 31.8702C15.8679 41.0321 23.2951 48.4593 32.457 48.4593Z" fill="url(#paint1_linear_20_305)"/>
<path d="M32.457 46.7254C40.6613 46.7254 47.3123 40.0745 47.3123 31.8701C47.3123 23.6658 40.6613 17.0149 32.457 17.0149C24.2527 17.0149 17.6018 23.6658 17.6018 31.8701C17.6018 40.0745 24.2527 46.7254 32.457 46.7254Z" fill="url(#paint2_linear_20_305)"/>
<path d="M26.1808 29.5764V26.8401C26.1808 23.3739 28.9908 20.5639 32.457 20.5639C35.9233 20.5639 38.7332 23.3739 38.7332 26.8401V29.5764" stroke="black" stroke-width="2.45336"/>
<path d="M23.4174 31.2561H41.4966M23.4174 39.9706H41.4966M23.4174 34.1609H31.2018M23.4174 37.0658H31.2018M34.0012 34.1609H41.4966M34.0012 37.0658H41.4966" stroke="black" stroke-width="1.95011"/>
</g>
<path d="M55.9072 16.6337L39.3538 0.0358887V12.9151C39.3538 13.4035 39.4498 13.887 39.6361 14.3382C39.8225 14.7893 40.0957 15.1993 40.4401 15.5446C40.7844 15.8899 41.1933 16.1638 41.6432 16.3507C42.0932 16.5375 42.5754 16.6337 43.0625 16.6337H55.9072Z" fill="white"/>
</g>
<defs>
<linearGradient id="paint0_linear_20_305" x1="15.7955" y1="42.6689" x2="55.3962" y2="17.4475" gradientUnits="userSpaceOnUse">
<stop stop-color="white"/>
<stop offset="1" stop-color="#E4E4E4"/>
</linearGradient>
<linearGradient id="paint1_linear_20_305" x1="20.7267" y1="20.1399" x2="44.1873" y2="43.6005" gradientUnits="userSpaceOnUse">
<stop stop-color="#FDFDFE"/>
<stop offset="1" stop-color="#D0DAF8"/>
</linearGradient>
<linearGradient id="paint2_linear_20_305" x1="21.9528" y1="21.3659" x2="42.9613" y2="42.3744" gradientUnits="userSpaceOnUse">
<stop stop-color="#EEF1FC"/>
<stop offset="1" stop-color="#4971E4"/>
</linearGradient>
<clipPath id="clip0_20_305">
<rect width="46.914" height="64" fill="white" transform="translate(9)"/>
</clipPath>
<clipPath id="clip1_20_305">
<rect width="36.9891" height="36.9891" fill="white" transform="translate(13.9625 13.3756)"/>
</clipPath>
</defs>
</svg>
