<svg width="64" height="64" viewBox="0 0 64 64" fill="none" xmlns="http://www.w3.org/2000/svg">
<path d="M5.85351 38.1025C9.08632 38.1025 11.707 35.4818 11.707 32.249C11.707 29.0162 9.08632 26.3954 5.85351 26.3954C2.62071 26.3954 0 29.0162 0 32.249C0 35.4818 2.62071 38.1025 5.85351 38.1025Z" fill="#D32D27"/>
<path d="M25.3085 38.1025C28.5413 38.1025 31.162 35.4818 31.162 32.249C31.162 29.0162 28.5413 26.3954 25.3085 26.3954C22.0757 26.3954 19.455 29.0162 19.455 32.249C19.455 35.4818 22.0757 38.1025 25.3085 38.1025Z" fill="#D32D27"/>
<path d="M44.7757 38.1025C48.0085 38.1025 50.6292 35.4818 50.6292 32.249C50.6292 29.0162 48.0085 26.3954 44.7757 26.3954C41.5429 26.3954 38.9222 29.0162 38.9222 32.249C38.9222 35.4818 41.5429 38.1025 44.7757 38.1025Z" fill="#D32D27"/>
<path d="M62.1541 16C61.1704 16 60.3567 16.8137 60.3567 17.7973V45.2918C60.3567 46.2755 61.1704 47.0892 62.1541 47.0892C63.1378 47.0892 63.9514 46.2755 63.9514 45.2918V17.7973C63.9514 16.7772 63.1378 16 62.1541 16Z" fill="#D32D27"/>
</svg>
