<svg width="64" height="64" viewBox="0 0 64 64" fill="none" xmlns="http://www.w3.org/2000/svg">
<g clip-path="url(#clip0_19_218)">
<path d="M27.097 28.041C27.044 28.148 27.031 28.243 27.008 28.334C26.66 29.715 26.313 31.096 25.965 32.477C25.753 33.32 25.539 34.163 25.326 35.006C25.299 35.112 25.299 35.113 25.195 35.113C24.635 35.113 24.076 35.113 23.516 35.113C23.41 35.113 23.41 35.113 23.384 35.007C22.998 33.492 22.612 31.977 22.225 30.461C22.034 29.711 21.842 28.962 21.65 28.212C21.637 28.16 21.619 28.109 21.585 28.062V28.189C21.585 30.446 21.585 32.704 21.585 34.961C21.585 35.0617 21.534 35.112 21.432 35.112C20.96 35.112 20.489 35.112 20.017 35.112C19.985 35.112 19.953 35.112 19.921 35.112C19.892 35.112 19.878 35.097 19.878 35.067C19.878 35.039 19.878 35.011 19.878 34.983C19.878 32.406 19.879 29.829 19.877 27.252C19.877 26.868 20.022 26.571 20.348 26.367C20.5 26.272 20.668 26.224 20.848 26.223C21.396 26.222 21.943 26.223 22.491 26.223C22.592 26.223 22.592 26.223 22.618 26.321C22.897 27.402 23.176 28.484 23.456 29.565C23.742 30.669 24.029 31.773 24.315 32.878C24.321 32.901 24.322 32.925 24.354 32.945C24.402 32.761 24.449 32.582 24.496 32.403C24.735 31.48 24.973 30.557 25.211 29.634C25.495 28.537 25.779 27.441 26.063 26.344C26.069 26.321 26.075 26.298 26.081 26.274C26.09 26.238 26.112 26.22 26.15 26.223C26.174 26.224 26.198 26.223 26.222 26.223C27.037 26.223 27.853 26.223 28.668 26.223C28.82 26.223 28.802 26.21 28.802 26.358C28.802 29.231 28.802 32.103 28.802 34.976C28.802 35 28.8 35.024 28.802 35.048C28.805 35.093 28.788 35.115 28.741 35.112C28.697 35.11 28.653 35.112 28.609 35.112C28.149 35.112 27.69 35.112 27.23 35.112C27.202 35.112 27.174 35.112 27.146 35.112C27.111 35.112 27.096 35.094 27.097 35.06C27.097 35.024 27.097 34.988 27.097 34.952C27.097 32.703 27.097 30.453 27.097 28.204V28.039V28.041Z" fill="#0172BC"/>
<path d="M40.078 25.996C40.722 25.993 41.333 26.088 41.916 26.334C42.893 26.747 43.592 27.44 44.007 28.417C44.22 28.917 44.34 29.439 44.392 29.979C44.419 30.257 44.434 30.536 44.427 30.816C44.41 31.552 44.302 32.27 44.004 32.95C43.626 33.812 43.027 34.468 42.178 34.885C41.74 35.1 41.276 35.224 40.792 35.282C40.466 35.321 40.139 35.334 39.812 35.318C39.266 35.292 38.733 35.199 38.227 34.987C37.191 34.553 36.505 33.787 36.117 32.743C35.955 32.307 35.867 31.853 35.824 31.39C35.8 31.132 35.785 30.872 35.789 30.613C35.802 29.87 35.898 29.142 36.183 28.448C36.373 27.985 36.629 27.564 36.976 27.203C37.231 26.937 37.526 26.716 37.848 26.535C38.379 26.237 38.95 26.077 39.554 26.019C39.733 26.002 39.913 25.998 40.078 25.995V25.996ZM42.594 30.63C42.598 30.426 42.579 30.176 42.542 29.927C42.475 29.482 42.348 29.056 42.113 28.667C41.835 28.208 41.446 27.887 40.935 27.722C40.416 27.555 39.889 27.556 39.363 27.686C38.994 27.777 38.675 27.963 38.409 28.234C38.083 28.568 37.884 28.974 37.771 29.423C37.587 30.15 37.58 30.884 37.7 31.621C37.766 32.022 37.891 32.404 38.118 32.746C38.388 33.155 38.745 33.456 39.215 33.614C39.6 33.744 39.997 33.773 40.398 33.735C40.739 33.703 41.064 33.609 41.361 33.432C41.845 33.143 42.157 32.715 42.352 32.195C42.535 31.706 42.597 31.198 42.595 30.631L42.594 30.63Z" fill="#F58025"/>
<path d="M13.168 35.789C13.203 35.773 13.239 35.78 13.274 35.78C13.826 35.78 14.377 35.781 14.929 35.778C15.005 35.778 15.047 35.801 15.092 35.865C15.348 36.224 15.704 36.425 16.141 36.458C16.72 36.502 17.248 36.162 17.485 35.624C17.602 35.357 17.655 35.077 17.681 34.789C17.695 34.631 17.69 34.473 17.692 34.314C17.647 34.314 17.639 34.345 17.624 34.366C17.216 34.939 16.652 35.212 15.958 35.23C15.019 35.254 14.287 34.856 13.718 34.128C13.323 33.623 13.119 33.044 13.041 32.413C12.997 32.055 12.984 31.697 13.005 31.338C13.039 30.748 13.149 30.174 13.407 29.637C13.663 29.105 14.021 28.667 14.567 28.408C14.869 28.264 15.188 28.178 15.519 28.14C16.124 28.07 16.723 28.104 17.309 28.281C17.728 28.408 18.123 28.588 18.481 28.841C18.889 29.129 19.135 29.533 19.279 30.004C19.397 30.389 19.444 30.785 19.445 31.185C19.448 32.439 19.448 33.694 19.445 34.948C19.445 35.32 19.4 35.688 19.303 36.049C19.125 36.712 18.733 37.194 18.118 37.505C17.635 37.749 17.132 37.919 16.594 37.977C16.046 38.035 15.502 38.013 14.97 37.851C14.22 37.624 13.7 37.139 13.375 36.434C13.293 36.256 13.228 36.072 13.176 35.883C13.168 35.853 13.154 35.823 13.166 35.79L13.168 35.789ZM14.761 31.742C14.761 31.836 14.759 31.9 14.761 31.964C14.774 32.341 14.823 32.712 14.982 33.059C15.099 33.314 15.274 33.515 15.534 33.633C15.667 33.693 15.809 33.716 15.951 33.734C16.203 33.766 16.453 33.762 16.697 33.678C17.132 33.528 17.393 33.21 17.528 32.785C17.676 32.32 17.719 31.843 17.674 31.355C17.632 30.901 17.499 30.481 17.234 30.107C17.07 29.875 16.852 29.724 16.574 29.666C16.292 29.608 16.009 29.617 15.733 29.699C15.436 29.787 15.212 29.971 15.074 30.252C15.03 30.341 14.992 30.434 14.957 30.527C14.809 30.929 14.748 31.344 14.761 31.741V31.742Z" fill="#0172BC"/>
<path d="M35.415 33.008C35.424 33.034 35.419 33.057 35.412 33.08C35.278 33.533 35.077 33.951 34.75 34.299C34.383 34.69 33.94 34.956 33.426 35.103C32.968 35.234 32.501 35.265 32.027 35.233C31.657 35.208 31.3 35.13 30.961 34.978C30.409 34.731 29.998 34.331 29.699 33.811C29.473 33.418 29.351 32.991 29.281 32.546C29.219 32.158 29.205 31.767 29.22 31.376C29.24 30.859 29.319 30.351 29.522 29.871C29.928 28.911 30.639 28.325 31.674 28.156C32.301 28.054 32.925 28.086 33.532 28.282C34.374 28.555 34.937 29.122 35.249 29.945C35.409 30.366 35.49 30.803 35.519 31.253C35.534 31.492 35.537 31.732 35.535 31.971C35.534 32.156 35.531 32.156 35.35 32.156C33.971 32.156 32.593 32.156 31.214 32.156C31.186 32.156 31.158 32.159 31.13 32.156C31.066 32.148 31.05 32.175 31.054 32.238C31.071 32.531 31.118 32.818 31.258 33.08C31.484 33.504 31.842 33.721 32.321 33.742C32.563 33.753 32.799 33.733 33.027 33.643C33.216 33.568 33.376 33.459 33.496 33.288C33.631 33.096 33.83 33.003 34.062 33.001C34.501 32.996 34.941 32.999 35.381 33C35.392 33 35.404 33.005 35.414 33.008H35.415ZM31.06 30.983C31.081 30.986 31.092 30.989 31.104 30.989C31.931 30.989 32.757 30.989 33.584 30.989C33.673 30.989 33.678 30.984 33.666 30.891C33.639 30.669 33.595 30.45 33.499 30.245C33.407 30.048 33.274 29.883 33.083 29.78C32.672 29.558 32.243 29.544 31.813 29.712C31.384 29.879 31.057 30.321 31.06 30.983Z" fill="#0172BC"/>
<path d="M63.891 33.005C63.855 33.189 63.792 33.352 63.722 33.512C63.353 34.355 62.709 34.883 61.828 35.117C61.111 35.307 60.388 35.305 59.679 35.076C59.024 34.864 58.535 34.437 58.186 33.849C57.947 33.445 57.816 33.003 57.748 32.541C57.692 32.161 57.669 31.779 57.686 31.395C57.709 30.874 57.786 30.363 57.986 29.877C58.214 29.323 58.565 28.869 59.076 28.547C59.455 28.308 59.871 28.18 60.314 28.133C60.823 28.079 61.328 28.1 61.823 28.233C62.572 28.433 63.153 28.855 63.528 29.544C63.743 29.938 63.867 30.36 63.936 30.801C63.998 31.197 64.004 31.596 64 31.995C64 32.011 64 32.027 63.998 32.043C63.986 32.156 63.984 32.158 63.865 32.158C62.466 32.158 61.068 32.158 59.669 32.158C59.519 32.158 59.509 32.12 59.525 32.313C59.548 32.597 59.603 32.874 59.749 33.125C59.969 33.502 60.298 33.706 60.731 33.741C61.06 33.768 61.375 33.723 61.67 33.562C61.782 33.5 61.869 33.413 61.942 33.315C62.079 33.13 62.256 33.012 62.485 33.007C62.948 32.998 63.411 33.004 63.892 33.004L63.891 33.005ZM60.82 30.99C61.227 30.99 61.635 30.99 62.042 30.99C62.138 30.99 62.143 30.986 62.133 30.899C62.11 30.705 62.073 30.513 62.001 30.33C61.862 29.973 61.607 29.748 61.237 29.651C61.14 29.626 61.041 29.614 60.942 29.607C60.661 29.587 60.391 29.631 60.147 29.776C59.728 30.025 59.56 30.42 59.522 30.885C59.514 30.988 59.517 30.99 59.623 30.99C60.022 30.99 60.422 30.99 60.821 30.99H60.82Z" fill="#F58025"/>
<path d="M6.422 31.412C6.425 31.011 6.509 30.403 6.752 29.83C7.153 28.887 7.863 28.324 8.88 28.155C9.097 28.119 9.317 28.099 9.535 28.098C10.095 28.098 10.641 28.178 11.146 28.444C11.608 28.687 11.962 29.039 12.218 29.492C12.522 30.03 12.682 30.61 12.725 31.223C12.766 31.807 12.741 32.388 12.587 32.957C12.434 33.52 12.192 34.035 11.765 34.448C11.44 34.763 11.061 34.98 10.622 35.095C10.253 35.191 9.881 35.261 9.499 35.244C8.867 35.217 8.267 35.067 7.727 34.726C7.191 34.386 6.85 33.896 6.667 33.295C6.502 32.753 6.422 32.198 6.422 31.412ZM10.981 31.566C10.987 31.41 10.967 31.192 10.932 30.975C10.889 30.713 10.815 30.462 10.665 30.239C10.534 30.045 10.383 29.87 10.173 29.758C9.856 29.589 9.525 29.577 9.187 29.684C8.905 29.773 8.663 29.913 8.505 30.177C8.364 30.413 8.272 30.665 8.224 30.935C8.155 31.32 8.167 31.707 8.206 32.093C8.238 32.411 8.292 32.726 8.418 33.023C8.531 33.289 8.697 33.506 8.967 33.629C9.073 33.677 9.179 33.723 9.292 33.749C9.696 33.842 10.061 33.767 10.372 33.484C10.618 33.26 10.778 32.984 10.86 32.662C10.946 32.323 10.981 31.979 10.982 31.566H10.981Z" fill="#0172BC"/>
<path d="M46.779 32.79C46.779 33.521 46.779 34.252 46.779 34.983C46.779 35.125 46.786 35.114 46.651 35.114C46.131 35.114 45.612 35.114 45.092 35.114C45.072 35.114 45.052 35.113 45.032 35.114C44.987 35.117 44.965 35.097 44.968 35.051C44.97 35.023 44.968 34.995 44.968 34.967C44.968 33.645 44.964 32.322 44.97 31C44.972 30.527 45.028 30.061 45.204 29.616C45.37 29.195 45.647 28.877 46.042 28.651C46.571 28.348 47.135 28.164 47.741 28.118C48.362 28.072 48.956 28.194 49.524 28.446C49.644 28.499 49.759 28.564 49.875 28.626C50.306 28.856 50.579 29.218 50.741 29.67C50.867 30.022 50.925 30.388 50.939 30.761C50.965 31.424 50.947 32.087 50.95 32.75C50.953 33.485 50.95 34.22 50.95 34.955C50.95 34.987 50.949 35.019 50.95 35.051C50.952 35.097 50.932 35.115 50.886 35.115C50.558 35.113 50.23 35.127 49.903 35.106C49.488 35.08 49.176 34.718 49.168 34.284C49.165 34.116 49.168 33.948 49.168 33.781C49.168 32.79 49.168 31.8 49.168 30.809C49.168 30.621 49.156 30.435 49.092 30.255C49.033 30.088 48.936 29.951 48.798 29.842C48.356 29.493 47.714 29.461 47.248 29.756C46.961 29.938 46.822 30.201 46.786 30.527C46.778 30.598 46.777 30.67 46.777 30.742C46.777 31.425 46.777 32.108 46.777 32.791L46.779 32.79Z" fill="#F58025"/>
<path d="M-4.83516e-07 31.07C-4.83516e-07 29.78 -4.83516e-07 28.489 -4.83516e-07 27.199C-4.83516e-07 26.8 0.187 26.515 0.538 26.334C0.65 26.276 0.772 26.251 0.896 26.249C1.18 26.245 1.464 26.247 1.747 26.249C1.831 26.249 1.831 26.251 1.833 26.337C1.833 26.365 1.833 26.393 1.833 26.421C1.833 28.718 1.833 31.015 1.833 33.312C1.833 33.486 1.812 33.464 1.987 33.464C3.33 33.464 4.673 33.464 6.016 33.464C6.182 33.464 6.163 33.446 6.163 33.611C6.163 34.066 6.163 34.522 6.163 34.977C6.163 35.005 6.163 35.033 6.163 35.061C6.163 35.094 6.152 35.114 6.115 35.113C6.087 35.113 6.059 35.113 6.031 35.113C4.065 35.113 2.098 35.113 0.132 35.113C-0.0200005 35.113 -0.00100048 35.123 -0.00100048 34.976C-0.00100048 33.674 -0.00100048 32.371 -0.00100048 31.069L-4.83516e-07 31.07Z" fill="#0172BC"/>
<path d="M57.407 33.007C57.418 33.093 57.38 33.166 57.355 33.239C56.995 34.287 56.264 34.924 55.187 35.159C54.562 35.295 53.933 35.29 53.315 35.111C52.557 34.891 52.008 34.412 51.643 33.718C51.413 33.281 51.3 32.81 51.247 32.322C51.218 32.052 51.204 31.781 51.211 31.509C51.227 30.911 51.306 30.323 51.56 29.773C51.979 28.864 52.681 28.317 53.671 28.158C54.303 28.057 54.93 28.091 55.541 28.29C56.307 28.54 56.842 29.046 57.168 29.779C57.241 29.943 57.303 30.111 57.356 30.283C57.372 30.336 57.358 30.357 57.302 30.356C57.17 30.354 57.038 30.356 56.906 30.356C56.498 30.356 56.091 30.354 55.683 30.357C55.604 30.357 55.556 30.34 55.515 30.261C55.34 29.922 55.067 29.704 54.687 29.635C54.252 29.557 53.842 29.607 53.494 29.907C53.284 30.088 53.175 30.333 53.098 30.592C52.977 30.999 52.959 31.417 52.969 31.837C52.975 32.109 53.006 32.378 53.074 32.642C53.16 32.975 53.317 33.265 53.584 33.489C53.772 33.646 53.996 33.715 54.234 33.739C54.566 33.773 54.886 33.729 55.187 33.57C55.293 33.514 55.369 33.429 55.452 33.348C55.472 33.328 55.489 33.306 55.507 33.284C55.667 33.088 55.873 32.998 56.125 33C56.537 33.003 56.948 33 57.36 33.001C57.376 33.001 57.391 33.005 57.409 33.008L57.407 33.007Z" fill="#F58025"/>
</g>
<defs>
<clipPath id="clip0_19_218">
<rect width="64" height="14" fill="white" transform="translate(0 25)"/>
</clipPath>
</defs>
</svg>
