<svg width="64" height="64" viewBox="0 0 64 64" fill="none" xmlns="http://www.w3.org/2000/svg">
<g clip-path="url(#clip0_19_265)">
<g opacity="0.53" filter="url(#filter0_f_19_265)">
<path d="M59.3657 32.784C59.3657 36.2444 58.6579 39.6709 57.2827 42.8678C55.9075 46.0648 53.8918 48.9696 51.3508 51.4164C48.8098 53.8633 45.7932 55.8042 42.4732 57.1284C39.1532 58.4527 35.5949 59.1342 32.0014 59.1342C28.4078 59.1342 24.8495 58.4527 21.5295 57.1284C18.2095 55.8042 15.1929 53.8633 12.6519 51.4164C10.1109 48.9696 8.09525 46.0648 6.72007 42.8678C5.34488 39.6709 4.63708 36.2444 4.63708 32.784C4.63708 25.7955 7.5201 19.0933 12.6519 14.1516C17.7837 9.21001 24.7439 6.43384 32.0014 6.43384C35.5949 6.43384 39.1532 7.1154 42.4732 8.43963C45.7932 9.76385 48.8098 11.7048 51.3508 14.1516C53.8918 16.5985 55.9075 19.5033 57.2827 22.7002C58.6579 25.8972 59.3657 29.3237 59.3657 32.784Z" fill="black"/>
</g>
<path d="M60.4061 30.4573C60.4061 34.1877 59.6713 37.8815 58.2438 41.3279C56.8163 44.7743 54.7239 47.9057 52.0861 50.5435C49.4484 53.1812 46.3169 55.2736 42.8705 56.7011C39.4242 58.1287 35.7303 58.8634 32 58.8634C24.4662 58.8634 17.2411 55.8706 11.9139 50.5435C6.58672 45.2163 3.59395 37.9911 3.59395 30.4573C3.59395 22.9236 6.58672 15.6984 11.9139 10.3712C17.2411 5.04405 24.4662 2.05127 32 2.05127C35.7303 2.05127 39.4242 2.78602 42.8705 4.21356C46.3169 5.64109 49.4484 7.73347 52.0861 10.3712C54.7239 13.009 56.8163 16.1404 58.2438 19.5868C59.6713 23.0332 60.4061 26.727 60.4061 30.4573Z" fill="url(#paint0_linear_19_265)" stroke="#CDCDCD" stroke-width="0.351543" stroke-linecap="round" stroke-linejoin="round"/>
<path d="M58.1802 30.4573C58.1802 37.4007 55.4219 44.0597 50.5122 48.9695C45.6025 53.8792 38.9434 56.6375 32 56.6375C25.0566 56.6375 18.3975 53.8792 13.4878 48.9695C8.57806 44.0597 5.8198 37.4007 5.8198 30.4573C5.8198 23.5139 8.57806 16.8548 13.4878 11.9451C18.3975 7.03536 25.0566 4.2771 32 4.2771C38.9434 4.2771 45.6025 7.03536 50.5122 11.9451C55.4219 16.8548 58.1802 23.5139 58.1802 30.4573Z" fill="url(#paint1_radial_19_265)"/>
<path d="M32 5.6424C31.7885 5.6424 31.6183 5.81262 31.6183 6.02409V10.4268C31.6183 10.6383 31.7885 10.8085 32 10.8085C32.2115 10.8085 32.3817 10.6383 32.3817 10.4268V6.02409C32.3817 5.81262 32.2115 5.6424 32 5.6424ZM29.5029 5.80022C29.4776 5.7975 29.4516 5.7975 29.4253 5.80053C29.215 5.82248 29.0633 6.00946 29.0853 6.21979L29.2777 8.0617C29.2997 8.27202 29.4867 8.42368 29.697 8.40172C29.9073 8.37977 30.059 8.19279 30.037 7.98246L29.8447 6.14056C29.8255 5.95652 29.6799 5.8174 29.5029 5.80022ZM34.5145 5.80203C34.3375 5.81908 34.1919 5.95819 34.1725 6.1422L33.9788 7.98396C33.9567 8.19426 34.1083 8.38142 34.3187 8.40354C34.529 8.42567 34.716 8.27416 34.7381 8.06385L34.9318 6.22194C34.9539 6.01163 34.8023 5.82463 34.592 5.80252C34.5657 5.7998 34.5398 5.79978 34.5145 5.80203ZM26.9378 6.17219C26.9124 6.17239 26.8866 6.17491 26.8608 6.18035C26.6539 6.22415 26.5226 6.426 26.5664 6.63288L27.4782 10.9401C27.522 11.1469 27.7238 11.2782 27.9307 11.2345C28.1376 11.1907 28.2689 10.989 28.2251 10.7821L27.3133 6.47474C27.2749 6.29371 27.1157 6.1708 26.9378 6.17219ZM37.0795 6.17582C36.9016 6.174 36.7423 6.29728 36.7039 6.47827L35.7889 10.7849C35.7449 10.9918 35.8762 11.1937 36.083 11.2376C36.2898 11.2816 36.4917 11.1504 36.5357 10.9436L37.4506 6.6369C37.4946 6.43005 37.3634 6.22814 37.1566 6.18421C37.1307 6.17877 37.1049 6.17582 37.0795 6.17582ZM24.4899 6.86243C24.4404 6.8579 24.3894 6.86334 24.3391 6.88002C24.138 6.9454 24.0287 7.15977 24.094 7.36089L24.6663 9.12224C24.7317 9.32336 24.9462 9.43272 25.1473 9.36737C25.3484 9.30199 25.4576 9.08746 25.3923 8.88634L24.82 7.12499C24.771 6.97415 24.6381 6.87503 24.4899 6.86243ZM39.5136 6.86334C39.3654 6.87594 39.2325 6.97509 39.1835 7.12592L38.6108 8.88712C38.5455 9.08822 38.6547 9.30277 38.8558 9.36814C39.0569 9.43352 39.2715 9.32425 39.3368 9.12319L39.9095 7.36183C39.9748 7.16072 39.8656 6.94617 39.6645 6.8808C39.6143 6.86448 39.563 6.85917 39.5136 6.86334ZM22.0691 7.74829C22.0195 7.7492 21.9693 7.76008 21.921 7.78157C21.7278 7.86745 21.6413 8.0921 21.7272 8.28534L23.5154 12.3085C23.6013 12.5017 23.826 12.5881 24.0192 12.5022C24.2123 12.4164 24.299 12.1917 24.2131 11.9985L22.4247 7.97531C22.3603 7.83037 22.2178 7.74541 22.0691 7.74829ZM41.9617 7.76181C41.813 7.75909 41.6704 7.84351 41.6058 7.98832L39.8121 12.009C39.726 12.2021 39.8121 12.427 40.0052 12.5131C40.1983 12.5993 40.4231 12.5132 40.5093 12.3201L42.3029 8.29935C42.3891 8.10622 42.303 7.88141 42.1098 7.79525C42.0616 7.77376 42.0113 7.76289 41.9617 7.76181ZM19.8221 8.9372C19.7488 8.93176 19.6733 8.94808 19.6046 8.9878C19.4215 9.09353 19.3592 9.32606 19.4649 9.50919L20.3909 11.1131C20.4966 11.2962 20.7291 11.3585 20.9123 11.2528C21.0954 11.147 21.1577 10.9145 21.052 10.7314L20.126 9.1275C20.0599 9.01304 19.9442 8.94574 19.8221 8.9372ZM44.1779 8.9372C44.0558 8.94536 43.9402 9.01301 43.8742 9.12747L42.948 10.7313C42.8423 10.9145 42.9048 11.147 43.0879 11.2527C43.271 11.3585 43.5035 11.2962 43.6093 11.113L44.5353 9.50916C44.641 9.32603 44.5787 9.09351 44.3956 8.98777C44.3269 8.94814 44.2512 8.93212 44.1779 8.9372ZM17.6401 10.2981C17.5667 10.3008 17.4931 10.3244 17.429 10.3709C17.2578 10.4951 17.2199 10.7328 17.3442 10.904L19.9294 14.4677C20.0535 14.6389 20.2914 14.6767 20.4626 14.5526C20.6338 14.4284 20.6716 14.1907 20.5474 14.0195L17.962 10.4558C17.8844 10.3488 17.7625 10.2939 17.6401 10.2981ZM46.3872 10.3175C46.2649 10.313 46.1429 10.3678 46.0651 10.4746L43.475 14.0349C43.3506 14.2059 43.3881 14.4438 43.5592 14.5682C43.7302 14.6926 43.968 14.6551 44.0924 14.4842L46.6824 10.9239C46.8068 10.7529 46.7692 10.5151 46.5983 10.3907C46.5341 10.3441 46.4606 10.3201 46.3872 10.3175ZM15.6898 11.9337C15.5924 11.9283 15.493 11.9608 15.4144 12.0316C15.2572 12.173 15.2446 12.4134 15.3861 12.5706L16.6252 13.9471C16.7667 14.1043 17.0071 14.1169 17.1643 13.9754C17.3214 13.8339 17.3341 13.5934 17.1926 13.4362L15.9536 12.0599C15.8828 11.9812 15.7873 11.9388 15.6898 11.9337ZM48.313 11.9364C48.2155 11.9419 48.12 11.984 48.0492 12.0626L46.8101 13.4388C46.6686 13.596 46.6811 13.8365 46.8383 13.978C46.9954 14.1195 47.2358 14.1068 47.3773 13.9497L48.6166 12.5735C48.7581 12.4163 48.7454 12.1758 48.5883 12.0343C48.5097 11.9636 48.4104 11.9313 48.313 11.9364ZM13.8206 13.7292C13.7231 13.7347 13.6277 13.7768 13.557 13.8554C13.4155 14.0126 13.4282 14.253 13.5853 14.3945L16.8574 17.3401C17.0146 17.4816 17.255 17.4689 17.3964 17.3118C17.5379 17.1546 17.5255 16.9143 17.3682 16.7728L14.0959 13.8271C14.0173 13.7564 13.918 13.7241 13.8206 13.7292ZM50.1913 13.7421C50.0939 13.7367 49.9943 13.7691 49.9157 13.8398L46.6416 16.7831C46.4843 16.9245 46.4714 17.1649 46.6127 17.3222C46.7541 17.4794 46.9946 17.4922 47.1519 17.3508L50.4262 14.4075C50.5835 14.2661 50.5962 14.0257 50.4549 13.8685C50.3841 13.7898 50.2887 13.7473 50.1913 13.7421ZM12.2661 15.728C12.1438 15.7235 12.0218 15.7786 11.9441 15.8855C11.8198 16.0566 11.8575 16.2943 12.0286 16.4186L13.5269 17.5072C13.6979 17.6315 13.9356 17.5939 14.0599 17.4228C14.1842 17.2518 14.1466 17.0139 13.9756 16.8896L12.4773 15.801C12.4132 15.7544 12.3395 15.7306 12.2661 15.728ZM51.7443 15.7419C51.6708 15.7446 51.5973 15.7681 51.5331 15.8147L50.0341 16.9023C49.863 17.0265 49.8251 17.2644 49.9493 17.4356C50.0734 17.6067 50.3112 17.6444 50.4823 17.5202L51.9815 16.4327C52.1526 16.3085 52.1903 16.0707 52.0661 15.8996C51.9885 15.7926 51.8666 15.7377 51.7443 15.7419ZM10.8135 17.8601C10.6914 17.8682 10.5758 17.9359 10.5097 18.0503C10.404 18.2335 10.4663 18.466 10.6494 18.5717L14.4622 20.7731C14.6454 20.8788 14.8779 20.8165 14.9836 20.6334C15.0893 20.4503 15.027 20.2177 14.8439 20.112L11.0311 17.9106C10.9625 17.871 10.8868 17.855 10.8135 17.8601ZM53.1865 17.8601C53.1132 17.8546 53.0376 17.871 52.9689 17.9107L49.1561 20.112C48.973 20.2178 48.9107 20.4503 49.0164 20.6334C49.1221 20.8166 49.3547 20.8789 49.5378 20.7731L53.3508 18.5718C53.5339 18.466 53.5962 18.2335 53.4905 18.0504C53.4243 17.9359 53.3087 17.8686 53.1865 17.8601ZM9.7152 20.1326C9.56645 20.129 9.42381 20.2141 9.3592 20.3589C9.27305 20.5521 9.35914 20.7769 9.55228 20.863L11.2438 21.6175C11.4369 21.7037 11.6617 21.6176 11.7479 21.4245C11.834 21.2313 11.7478 21.0065 11.5546 20.9204L9.8633 20.1659C9.81505 20.1443 9.76477 20.1336 9.7152 20.1326ZM54.2922 20.1483C54.2426 20.1492 54.1923 20.1601 54.144 20.1816L52.4521 20.9347C52.2589 21.0208 52.1726 21.2455 52.2586 21.4387C52.3446 21.6318 52.5695 21.7182 52.7627 21.6322L54.4545 20.8789C54.6477 20.7929 54.7339 20.5681 54.6479 20.375C54.5834 20.2301 54.441 20.1453 54.2922 20.1483ZM8.73634 22.5078C8.58808 22.5202 8.45517 22.6193 8.40604 22.7701C8.34057 22.9711 8.44957 23.1857 8.65067 23.2512L12.8368 24.6153C13.0378 24.6807 13.2525 24.5716 13.318 24.3706C13.3834 24.1696 13.2744 23.9549 13.0733 23.8894L8.88724 22.5254C8.837 22.509 8.78575 22.5036 8.73634 22.5078ZM55.2693 22.5241C55.2199 22.5196 55.1688 22.525 55.1185 22.5417L50.9315 23.9028C50.7303 23.9681 50.6211 24.1827 50.6865 24.3838C50.7519 24.5849 50.9664 24.6941 51.1675 24.6288L55.3544 23.2677C55.5556 23.2023 55.6649 22.9878 55.5996 22.7867C55.5505 22.6359 55.4175 22.5367 55.2693 22.5241ZM8.12649 25.0011C7.94866 24.9993 7.78919 25.1227 7.75072 25.3037C7.70674 25.5106 7.83796 25.7124 8.04477 25.7564L9.85638 26.1414C10.0632 26.1854 10.2651 26.0542 10.3091 25.8473C10.353 25.6405 10.2218 25.4386 10.015 25.3946L8.20358 25.0097C8.17773 25.0042 8.15188 25.0011 8.12649 25.0011ZM55.8744 25.0047C55.849 25.0049 55.8233 25.0084 55.7975 25.0129L53.9858 25.3977C53.779 25.4417 53.6479 25.6434 53.6918 25.8502C53.7358 26.0571 53.9376 26.1884 54.1445 26.1445L55.9559 25.7596C56.1628 25.7157 56.2941 25.5138 56.2501 25.3069C56.2117 25.1259 56.0522 25.0032 55.8744 25.0047ZM7.66489 27.509C7.48788 27.526 7.34219 27.6649 7.32274 27.8489C7.30053 28.0592 7.4518 28.2464 7.66209 28.2686L12.0404 28.7315C12.2507 28.7538 12.438 28.6023 12.4602 28.392C12.4824 28.1817 12.331 27.9945 12.1207 27.9723L7.74233 27.5094C7.71603 27.5066 7.69019 27.5066 7.66489 27.509ZM56.3392 27.542C56.3139 27.5392 56.2879 27.5392 56.2616 27.5423L51.8828 27.9993C51.6724 28.0212 51.5208 28.2082 51.5427 28.4185C51.5647 28.6288 51.7517 28.7805 51.962 28.7585L56.3408 28.3015C56.5512 28.2796 56.7028 28.0926 56.6809 27.8823C56.6616 27.6983 56.5162 27.5592 56.3392 27.542ZM7.59076 30.0763C7.37929 30.0763 7.20907 30.2465 7.20907 30.458C7.20907 30.6694 7.37929 30.8396 7.59076 30.8396H9.44273C9.65419 30.8396 9.82458 30.6694 9.82458 30.458C9.82458 30.2465 9.65419 30.0763 9.44273 30.0763H7.59076ZM54.5573 30.0763C54.3458 30.0763 54.1756 30.2465 54.1756 30.458C54.1756 30.6694 54.3458 30.8396 54.5573 30.8396H56.4092C56.6207 30.8396 56.7909 30.6694 56.7909 30.458C56.7909 30.2465 56.6207 30.0763 56.4092 30.0763H54.5573ZM12.1156 32.157C12.0903 32.1543 12.0644 32.1543 12.0381 32.1574L7.65911 32.6143C7.44878 32.6363 7.29717 32.8233 7.3191 33.0336C7.34104 33.2439 7.52803 33.3956 7.73834 33.3736L12.1174 32.9166C12.3277 32.8947 12.4793 32.7077 12.4574 32.4974C12.4381 32.3133 12.2926 32.1742 12.1156 32.157ZM51.8821 32.1841C51.7051 32.201 51.5594 32.3399 51.54 32.5239C51.5178 32.7342 51.669 32.9214 51.8793 32.9437L56.2577 33.4066C56.468 33.4288 56.6552 33.2773 56.6774 33.067C56.6997 32.8568 56.5482 32.6695 56.3379 32.6473L51.9597 32.1844C51.9334 32.1817 51.9074 32.1817 51.8821 32.1841ZM9.93281 34.7627C9.90742 34.7629 9.88158 34.7654 9.85573 34.7708L8.04413 35.1556C7.83728 35.1996 7.70615 35.4015 7.75008 35.6083C7.79406 35.8152 7.99592 35.9463 8.20278 35.9024L10.0144 35.5177C10.2212 35.4738 10.3524 35.2719 10.3084 35.0651C10.27 34.8841 10.1106 34.7612 9.93281 34.7627ZM54.0667 34.7663C53.8889 34.7645 53.7296 34.8878 53.6911 35.0687C53.6471 35.2756 53.7782 35.4775 53.985 35.5215L55.7966 35.9064C56.0034 35.9504 56.2053 35.8194 56.2493 35.6125C56.2933 35.4057 56.162 35.2036 55.9552 35.1597L54.1438 34.7747C54.1179 34.7693 54.0921 34.7663 54.0667 34.7663ZM12.9834 36.2697C12.934 36.2651 12.8829 36.2706 12.8327 36.2873L8.64557 37.6483C8.44446 37.7137 8.33524 37.9282 8.40061 38.1293C8.46599 38.3305 8.68052 38.4397 8.88164 38.3743L13.0686 37.0133C13.2697 36.9479 13.3791 36.7333 13.3137 36.5322C13.2646 36.3814 13.1316 36.2823 12.9834 36.2697ZM51.0125 36.2832C50.8642 36.2956 50.7313 36.3947 50.6822 36.5455C50.6167 36.7465 50.7257 36.9611 50.9268 37.0266L55.1129 38.3907C55.314 38.4561 55.5286 38.347 55.5941 38.146C55.6597 37.945 55.5506 37.7303 55.3495 37.6648L51.1634 36.3008C51.1132 36.2844 51.0619 36.279 51.0125 36.2832ZM11.3856 39.2507C11.336 39.2517 11.2858 39.2623 11.2375 39.2838L9.54552 40.0372C9.35233 40.1231 9.26611 40.3479 9.35212 40.5411C9.43817 40.7343 9.66286 40.8205 9.85604 40.7345L11.5481 39.9813C11.7412 39.8954 11.8275 39.6706 11.7415 39.4774C11.677 39.3325 11.5344 39.2478 11.3856 39.2507ZM52.6083 39.2653C52.4595 39.2616 52.3169 39.3468 52.2523 39.4916C52.1662 39.6847 52.2522 39.9096 52.4454 39.9957L54.1367 40.7502C54.3298 40.8363 54.5547 40.7502 54.6408 40.5571C54.727 40.364 54.6409 40.1392 54.4477 40.053L52.7564 39.2985C52.7082 39.2769 52.6579 39.2662 52.6083 39.2653ZM14.6798 40.0924C14.6066 40.087 14.5309 40.1033 14.4622 40.143L10.6494 42.3444C10.4663 42.4501 10.404 42.6826 10.5097 42.8657C10.6155 43.0489 10.848 43.1112 11.0311 43.0054L14.8439 40.8042C15.027 40.6985 15.0893 40.4658 14.9836 40.2827C14.9175 40.1682 14.802 40.1009 14.6798 40.0924ZM49.3203 40.0924C49.1982 40.1006 49.0825 40.1682 49.0164 40.2827C48.9107 40.4658 48.973 40.6985 49.1561 40.8042L52.9689 43.0054C53.152 43.1111 53.3847 43.0488 53.4905 42.8657C53.5962 42.6826 53.5339 42.4501 53.3508 42.3443L49.5378 40.143C49.4691 40.1033 49.3936 40.0873 49.3203 40.0924ZM13.7288 43.3229C13.6554 43.3256 13.5818 43.3492 13.5176 43.3959L12.0187 44.4834C11.8475 44.6076 11.8097 44.8454 11.9338 45.0165C12.058 45.1877 12.2957 45.2255 12.4669 45.1013L13.966 44.0137C14.1372 43.8896 14.175 43.6518 14.0509 43.4807C13.9733 43.3737 13.8512 43.3187 13.7288 43.3229ZM50.2621 43.3357C50.1398 43.3312 50.0178 43.3863 49.9401 43.4932C49.8158 43.6643 49.8535 43.9022 50.0246 44.0265L51.5229 45.115C51.6939 45.2393 51.9317 45.2016 52.0559 45.0305C52.1802 44.8594 52.1426 44.6217 51.9716 44.4974L50.4733 43.4089C50.4092 43.3623 50.3355 43.3384 50.2621 43.3357ZM17.1237 43.4675C17.0263 43.4621 16.9269 43.4945 16.8483 43.5652L13.574 46.5085C13.4167 46.6499 13.4039 46.8903 13.5453 47.0476C13.6867 47.2048 13.9271 47.2176 14.0843 47.0762L17.3586 44.1329C17.5159 43.9915 17.5287 43.7511 17.3873 43.5939C17.3166 43.5152 17.2211 43.4727 17.1237 43.4675ZM46.8672 43.478C46.7698 43.4835 46.6743 43.5256 46.6035 43.6042C46.462 43.7614 46.4747 44.0018 46.6318 44.1432L49.904 47.0889C50.0611 47.2304 50.3017 47.2177 50.4431 47.0606C50.5846 46.9034 50.572 46.663 50.4148 46.5216L47.1425 43.5759C47.0639 43.5052 46.9647 43.4729 46.8672 43.478ZM20.23 46.2743C20.1076 46.2697 19.9855 46.3245 19.9077 46.4314L17.3178 49.9917C17.1934 50.1627 17.2308 50.4005 17.4017 50.5249C17.5727 50.6493 17.8106 50.6119 17.935 50.4409L20.525 46.8806C20.6493 46.7096 20.6119 46.4718 20.441 46.3474C20.3769 46.3007 20.3034 46.2768 20.23 46.2743ZM43.7488 46.2902C43.6753 46.2929 43.6018 46.3164 43.5376 46.363C43.3664 46.4872 43.3286 46.725 43.4527 46.8961L46.0379 50.4599C46.1621 50.631 46.3998 50.6689 46.571 50.5447C46.7422 50.4206 46.78 50.1828 46.6559 50.0117L44.0707 46.4479C43.9931 46.3409 43.8712 46.286 43.7488 46.2902ZM16.8865 46.8401C16.789 46.8456 16.6935 46.8877 16.6227 46.9663L15.3836 48.3425C15.2421 48.4997 15.2546 48.7402 15.4118 48.8817C15.5689 49.0232 15.8093 49.0105 15.9508 48.8533L17.1901 47.4771C17.3316 47.32 17.3189 47.0794 17.1618 46.9379C17.0832 46.8672 16.9839 46.835 16.8865 46.8401ZM47.1112 46.8419C47.0138 46.8365 46.9145 46.869 46.836 46.9398C46.6788 47.0812 46.6661 47.3216 46.8076 47.4788L48.0465 48.8553C48.188 49.0125 48.4284 49.0251 48.5856 48.8836C48.7427 48.7421 48.7554 48.5016 48.6139 48.3444L47.3749 46.9681C47.3042 46.8895 47.2087 46.8471 47.1112 46.8419ZM23.8467 48.3687C23.698 48.3651 23.5555 48.4502 23.4909 48.595L21.6971 52.6158C21.6109 52.8089 21.697 53.0337 21.8902 53.1198C22.0833 53.206 22.3081 53.1199 22.3943 52.9268L24.1881 48.9061C24.2742 48.7129 24.1881 48.4881 23.995 48.402C23.9467 48.3804 23.8963 48.3697 23.8467 48.3687ZM40.1291 48.3798C40.0795 48.3807 40.0291 48.3914 39.9808 48.4129C39.7877 48.4987 39.7012 48.7234 39.7871 48.9166L41.5753 52.9398C41.6611 53.1329 41.886 53.2194 42.0792 53.1335C42.2723 53.0477 42.3588 52.823 42.2729 52.6298L40.4847 48.6066C40.4203 48.4617 40.2778 48.3769 40.1291 48.3798ZM20.6947 49.6118C20.5725 49.62 20.457 49.6876 20.3909 49.8021L19.4649 51.406C19.3592 51.5891 19.4215 51.8216 19.6046 51.9273C19.7878 52.0331 20.0203 51.9708 20.126 51.7877L21.052 50.1838C21.1577 50.0007 21.0954 49.7681 20.9123 49.6624C20.8436 49.6228 20.768 49.6067 20.6947 49.6118ZM43.3053 49.6118C43.2321 49.6064 43.1566 49.6228 43.0879 49.6624C42.9047 49.7682 42.8425 50.0007 42.9482 50.1838L43.8742 51.7877C43.9799 51.9708 44.2124 52.0331 44.3956 51.9274C44.5787 51.8216 44.641 51.5891 44.5353 51.406L43.6093 49.8021C43.5432 49.6877 43.4275 49.6204 43.3053 49.6118ZM27.8401 49.6693C27.6623 49.6675 27.5029 49.7908 27.4645 49.9718L26.5496 54.2785C26.5056 54.4853 26.6368 54.6872 26.8436 54.7311C27.0505 54.7751 27.2524 54.6439 27.2963 54.4371L28.2112 50.1304C28.2552 49.9236 28.124 49.7217 27.9172 49.6777C27.8913 49.6723 27.8655 49.6693 27.8401 49.6693ZM36.1464 49.672C36.121 49.6722 36.0954 49.6748 36.0695 49.6802C35.8626 49.724 35.7313 49.9257 35.7751 50.1326L36.6869 54.4399C36.7307 54.6468 36.9326 54.7781 37.1395 54.7343C37.3463 54.6905 37.4776 54.4886 37.4338 54.2818L36.5219 49.9747C36.4835 49.7937 36.3242 49.6707 36.1464 49.672ZM32 50.1064C31.7885 50.1064 31.6183 50.2767 31.6183 50.4881V54.8909C31.6183 55.1023 31.7885 55.2726 32 55.2726C32.2115 55.2726 32.3817 55.1023 32.3817 54.8909V50.4881C32.3817 50.2767 32.2115 50.1064 32 50.1064ZM24.9935 51.5291C24.8452 51.5417 24.7122 51.6409 24.6632 51.7917L24.0907 53.553C24.0253 53.7542 24.1346 53.9687 24.3357 54.0341C24.5368 54.0995 24.7513 53.99 24.8167 53.7889L25.3891 52.0278C25.4545 51.8267 25.3453 51.6121 25.1442 51.5467C25.094 51.5304 25.0429 51.5249 24.9935 51.5291ZM39.0036 51.53C38.9542 51.5255 38.9031 51.5309 38.8529 51.5475C38.6517 51.6129 38.5424 51.8274 38.6077 52.0285L39.18 53.7899C39.2454 53.991 39.4599 54.1002 39.661 54.0349C39.8622 53.9695 39.9715 53.7551 39.9062 53.554L39.3337 51.7926C39.2847 51.6418 39.1518 51.5426 39.0036 51.53ZM29.6041 52.511C29.4271 52.5281 29.2813 52.667 29.2619 52.851L29.0684 54.6929C29.0462 54.9032 29.1977 55.0902 29.4081 55.1124C29.6184 55.1345 29.8055 54.983 29.8276 54.7727L30.0212 52.9309C30.0433 52.7206 29.8918 52.5335 29.6815 52.5113C29.6552 52.5086 29.6294 52.5086 29.6041 52.511ZM34.3806 52.5128C34.3553 52.5101 34.3293 52.5101 34.303 52.5131C34.0927 52.5351 33.941 52.7221 33.963 52.9324L34.1554 54.7745C34.1773 54.9848 34.3643 55.1363 34.5746 55.1143C34.7849 55.0924 34.9366 54.9054 34.9146 54.6951L34.7224 52.8532C34.7032 52.6691 34.5576 52.53 34.3806 52.5128Z" fill="#F4F2F3"/>
<g opacity="0.409" filter="url(#filter1_f_19_265)">
<path d="M49.8894 15.1895L29.0062 27.3227L15.8023 48.1093L35.1185 33.802L49.8894 15.1895Z" fill="black"/>
</g>
<path d="M34.9929 33.5916L29.0071 27.323L50.2411 13.0389L34.9929 33.5916Z" fill="#FF5150"/>
<path d="M34.9929 33.5916L29.0071 27.3231L13.7589 47.8757L34.9929 33.5916Z" fill="#F1F1F1"/>
<path opacity="0.243" d="M13.7589 47.8757L34.9929 33.5916L50.2411 13.0389L13.7589 47.8757Z" fill="black"/>
</g>
<defs>
<filter id="filter0_f_19_265" x="-4.31644" y="-2.51969" width="72.6356" height="70.6074" filterUnits="userSpaceOnUse" color-interpolation-filters="sRGB">
<feFlood flood-opacity="0" result="BackgroundImageFix"/>
<feBlend mode="normal" in="SourceGraphic" in2="BackgroundImageFix" result="shape"/>
<feGaussianBlur stdDeviation="4.47676" result="effect1_foregroundBlur_19_265"/>
</filter>
<filter id="filter1_f_19_265" x="13.2575" y="12.6447" width="39.1767" height="38.0095" filterUnits="userSpaceOnUse" color-interpolation-filters="sRGB">
<feFlood flood-opacity="0" result="BackgroundImageFix"/>
<feBlend mode="normal" in="SourceGraphic" in2="BackgroundImageFix" result="shape"/>
<feGaussianBlur stdDeviation="1.27242" result="effect1_foregroundBlur_19_265"/>
</filter>
<linearGradient id="paint0_linear_19_265" x1="31.999" y1="58.8628" x2="31.999" y2="2.05112" gradientUnits="userSpaceOnUse">
<stop stop-color="#BDBDBD"/>
<stop offset="1" stop-color="white"/>
</linearGradient>
<radialGradient id="paint1_radial_19_265" cx="0" cy="0" r="1" gradientUnits="userSpaceOnUse" gradientTransform="translate(32.118 26.6399) scale(28.406 28.406)">
<stop stop-color="#06C2E7"/>
<stop offset="0.25" stop-color="#0DB8EC"/>
<stop offset="0.5" stop-color="#12AEF1"/>
<stop offset="0.75" stop-color="#1F86F9"/>
<stop offset="1" stop-color="#107DDD"/>
</radialGradient>
<clipPath id="clip0_19_265">
<rect width="60" height="59.6717" fill="white" transform="translate(2 2)"/>
</clipPath>
</defs>
</svg>
