<svg width="64" height="64" viewBox="0 0 64 64" fill="none" xmlns="http://www.w3.org/2000/svg">
<path d="M18.0223 26.7701C18.0035 27.415 18.0808 28.059 18.2518 28.6811C18.441 29.2069 18.669 29.7179 18.9339 30.21C19.0284 30.3563 19.0793 30.5264 19.0806 30.7005C19.0678 30.8305 19.0248 30.9558 18.9551 31.0664C18.8854 31.177 18.7908 31.2698 18.6789 31.3375L17.3401 32.2293C17.1779 32.3459 16.9851 32.4124 16.7855 32.4204C16.5438 32.4058 16.3163 32.3012 16.1479 32.1274C15.8607 31.8199 15.6045 31.4849 15.3829 31.1273C15.1661 30.7642 14.9558 30.3629 14.7454 29.8533C13.9957 30.786 13.0423 31.535 11.9583 32.0429C10.8743 32.5508 9.68832 32.8041 8.49121 32.7835C7.71625 32.8245 6.9409 32.7103 6.21068 32.4478C5.48047 32.1852 4.81009 31.7796 4.2389 31.2547C3.70844 30.7196 3.29466 30.0806 3.02364 29.3778C2.75262 28.675 2.63024 27.9238 2.66421 27.1714C2.63126 26.345 2.78624 25.5218 3.11751 24.7638C3.44878 24.0058 3.94771 23.3327 4.57679 22.7951C6.05779 21.6393 7.90934 21.0619 9.7854 21.1708C10.5405 21.1775 11.2943 21.2328 12.0422 21.3364C12.8264 21.4447 13.6361 21.6167 14.4904 21.8078V20.2216C14.4904 18.61 14.1461 17.4824 13.4894 16.8199C12.8328 16.1575 11.6597 15.8453 10.0213 15.8453C9.24594 15.8447 8.4733 15.9366 7.71981 16.1192C6.93841 16.3063 6.17142 16.549 5.4247 16.8454C5.18205 16.9522 4.93292 17.0437 4.6788 17.1193C4.56979 17.1566 4.456 17.1781 4.34091 17.183C4.04127 17.183 3.89464 16.9728 3.89464 16.546V15.4822C3.87114 15.2249 3.92203 14.9662 4.04127 14.7369C4.20507 14.5453 4.40987 14.3929 4.64054 14.291C5.49231 13.8682 6.39108 13.5475 7.31816 13.3355C8.40348 13.0597 9.51985 12.9248 10.6397 12.9342C13.1898 12.9342 15.0195 13.5075 16.2117 14.6541C17.4039 15.8007 17.9776 17.5461 17.9776 19.8967V26.7701H18.0223ZM9.38375 29.9998C10.1286 29.9916 10.8671 29.8625 11.5705 29.6176C12.3517 29.3506 13.0488 28.8826 13.5914 28.2607C13.9352 27.8705 14.1839 27.4061 14.3182 26.9039C14.4633 26.2989 14.534 25.6786 14.5286 25.0565V24.1647C13.2354 23.844 11.9084 23.6793 10.5759 23.6742C9.44744 23.5813 8.32146 23.8806 7.38829 24.5214C7.04076 24.8214 6.76772 25.1979 6.5907 25.6213C6.41369 26.0447 6.33753 26.5034 6.36825 26.9612C6.3364 27.3708 6.38962 27.7825 6.52456 28.1706C6.6595 28.5586 6.87325 28.9146 7.1524 29.2162C7.45136 29.4937 7.80441 29.7065 8.18945 29.8413C8.5745 29.9761 8.98325 30.0301 9.39013 29.9998H9.38375ZM26.4631 32.2994C26.1776 32.3308 25.8908 32.2534 25.6599 32.0828C25.4333 31.8554 25.2762 31.5681 25.2072 31.2547L20.209 14.8006C20.1118 14.5246 20.0476 14.2381 20.0177 13.947C20.0076 13.8769 20.0137 13.8054 20.0354 13.738C20.0572 13.6706 20.0941 13.609 20.1433 13.558C20.1925 13.507 20.2527 13.4679 20.3193 13.4437C20.386 13.4195 20.4572 13.4108 20.5277 13.4183H22.6125C22.9053 13.3823 23.201 13.4573 23.4413 13.6285C23.6569 13.8602 23.8047 14.1467 23.8684 14.4566L27.4449 28.5283L30.7601 14.4821C30.8058 14.1701 30.9485 13.8805 31.1681 13.654C31.4226 13.4991 31.7185 13.4257 32.016 13.4438H33.7182C34.0189 13.4104 34.3217 13.4849 34.5725 13.654C34.7927 13.8792 34.9336 14.1699 34.9741 14.4821L38.3339 28.7257L42.0188 14.4821C42.0873 14.1751 42.232 13.8904 42.4396 13.654C42.6894 13.4989 42.9813 13.4255 43.2748 13.4438H45.2575C45.3292 13.4344 45.4021 13.4416 45.4706 13.4648C45.5391 13.4881 45.6013 13.5267 45.6525 13.5778C45.7036 13.6289 45.7423 13.6911 45.7656 13.7595C45.7888 13.828 45.796 13.9008 45.7866 13.9725C45.7823 14.0879 45.7695 14.2029 45.7484 14.3165C45.7127 14.4968 45.6615 14.6737 45.5954 14.8452L40.4951 31.2802C40.431 31.594 40.2758 31.882 40.0489 32.1083C39.8075 32.2609 39.5244 32.3344 39.2392 32.3185H37.3776C37.079 32.3504 36.7788 32.2759 36.5297 32.1083C36.3075 31.8735 36.1648 31.5749 36.1217 31.2547L32.8257 17.5461L29.5488 31.2356C29.5034 31.552 29.3634 31.8473 29.1471 32.0828C28.8961 32.2516 28.5941 32.3282 28.2928 32.2994H26.4631ZM53.8004 32.8727C52.6989 32.874 51.6012 32.7458 50.5298 32.4905C49.6792 32.3168 48.8558 32.0297 48.0817 31.6369C47.8167 31.5047 47.5954 31.299 47.4442 31.0445C47.3624 30.8553 47.319 30.6517 47.3167 30.4457V29.3628C47.3167 28.9168 47.4888 28.7257 47.8076 28.7257C47.9378 28.7251 48.0671 28.7467 48.1901 28.7894C48.3176 28.8277 48.5089 28.9168 48.7256 28.9997C49.4768 29.3305 50.2611 29.5803 51.0654 29.745C51.9045 29.9164 52.759 30.0018 53.6155 29.9998C54.6957 30.0617 55.7715 29.8189 56.7202 29.299C57.0658 29.0893 57.3498 28.7922 57.5434 28.4376C57.7371 28.083 57.8336 27.6835 57.8232 27.2797C57.8307 27.0057 57.7839 26.7329 57.6854 26.4771C57.5869 26.2213 57.4387 25.9874 57.2494 25.7891C56.6273 25.262 55.8922 24.8849 55.1009 24.6871L51.9706 23.7188C50.6362 23.373 49.4462 22.6123 48.5726 21.5466C47.8846 20.6657 47.51 19.5808 47.5079 18.4634C47.491 17.6413 47.6888 16.829 48.0817 16.1065C48.4617 15.4225 48.9833 14.8275 49.6118 14.3611C50.2758 13.8607 51.0255 13.4851 51.824 13.2527C52.6962 13.0016 53.6004 12.8793 54.508 12.8896C54.9832 12.8854 55.4582 12.9131 55.9297 12.9724C56.4206 13.0361 56.8669 13.1253 57.3131 13.2081C57.7594 13.2909 58.1419 13.4183 58.5244 13.5457C58.8361 13.6401 59.1356 13.7705 59.417 13.9343C59.6678 14.0585 59.8861 14.2396 60.0545 14.463C60.1926 14.6697 60.2597 14.9156 60.2458 15.1637V16.1638C60.2458 16.6097 60.0736 16.8454 59.7549 16.8454C59.4715 16.8112 59.197 16.7249 58.9452 16.5906C57.6591 16.0221 56.2648 15.7396 54.8586 15.7625C53.8792 15.7058 52.9023 15.9102 52.028 16.3549C51.7012 16.55 51.4351 16.832 51.2595 17.1695C51.0839 17.507 51.0056 17.8866 51.0335 18.266C51.0279 18.5482 51.0817 18.8285 51.1915 19.0886C51.3014 19.3487 51.4647 19.5828 51.671 19.7757C52.3604 20.324 53.1576 20.7212 54.0107 20.9414L57.0326 21.9033C58.3146 22.2288 59.4653 22.9405 60.3286 23.9418C60.975 24.7934 61.3203 25.8351 61.3104 26.9039C61.3214 27.757 61.1337 28.6009 60.7622 29.3691C60.3861 30.099 59.8553 30.7381 59.2066 31.2419C58.5036 31.7857 57.7029 32.1901 56.8477 32.4332C55.8601 32.7336 54.8328 32.8839 53.8004 32.8791V32.8727Z" fill="white"/>
<path d="M57.8233 43.205C50.8232 48.3712 40.6546 51.1104 31.9141 51.1104C20.2332 51.1699 8.95045 46.8722 0.273576 39.0581C-0.363952 38.4593 0.209823 37.6567 1.00036 38.1217C10.6405 43.6249 21.5511 46.5189 32.6536 46.5175C40.9496 46.4758 49.1559 44.8004 56.8032 41.587C57.9763 41.0583 58.9708 42.3514 57.8233 43.205V43.205Z" fill="#FF9900"/>
<path d="M60.7368 39.8862C59.8443 38.7396 54.827 39.332 52.551 39.6123C51.8688 39.6951 51.7604 39.1027 52.3788 38.6504C56.3762 35.8221 62.9491 36.6566 63.746 37.593C64.5429 38.5294 63.5292 45.1161 59.7869 48.263C59.2132 48.7535 58.6585 48.4987 58.9135 47.8553C59.7359 45.7531 61.6294 41.0138 60.7368 39.8862Z" fill="#FF9900"/>
</svg>
