<svg width="64" height="64" viewBox="0 0 64 64" fill="none" xmlns="http://www.w3.org/2000/svg">
<path d="M61.3055 28.3247C59.1909 25.5727 56.0777 23.7642 52.6396 23.2905C52.2211 23.2232 51.7981 23.1861 51.3743 23.1799C50.9474 23.1799 50.5092 23.1419 50.2043 23.1533H46.2866C45.8935 23.1533 45.5166 23.3094 45.2386 23.5875C44.9605 23.8655 44.8043 24.2426 44.8043 24.6358V27.0365C44.8043 27.4297 44.9605 27.8068 45.2386 28.0848C45.5166 28.3629 45.8935 28.519 46.2866 28.519H50.2043C50.488 28.5154 50.7717 28.5269 51.0542 28.5533C51.3046 28.567 51.5532 28.6028 51.7973 28.6601C53.7524 29.0424 55.4801 30.1751 56.6105 31.8155C57.7089 33.4236 58.1782 35.3793 57.9291 37.3107C57.6799 39.257 56.7086 41.0388 55.2079 42.303C54.4504 42.9449 53.5662 43.4201 52.6128 43.6977C51.5391 43.9852 50.4258 44.0959 49.3165 44.0255L41.2258 44.0559C35.8334 44.0788 30.4373 44.1017 25.0449 44.0559L16.9544 44.0255H14.9345H13.4103L13.0291 44.0027C12.033 43.9396 11.0591 43.6805 10.1633 43.2405C8.40783 42.3229 7.0753 40.7621 6.44402 38.8846C5.81451 37.0461 5.8754 35.0414 6.61545 33.2446C7.35648 31.401 8.79409 29.9236 10.6168 29.1326C11.552 28.7358 12.5582 28.5335 13.5741 28.5381H17.6176C21.9429 28.5381 25.8412 28.5 29.9913 28.5381L25.1477 33.8962C25.0388 34.0162 24.9553 34.1571 24.9023 34.3102C24.8493 34.4634 24.8279 34.6256 24.8393 34.7873C24.8507 34.9489 24.8946 35.1066 24.9686 35.2508C25.0426 35.395 25.1451 35.5228 25.2698 35.6264L26.8475 36.9411C27.1033 37.1532 27.4326 37.2549 27.7635 37.2242C28.0943 37.1935 28.3994 37.0327 28.6118 36.7771L36.3517 27.4444C36.7139 27.0064 36.912 26.4559 36.912 25.8876C36.912 25.3193 36.7139 24.7688 36.3517 24.3308L28.6118 14.998C28.3994 14.7424 28.0943 14.5816 27.7635 14.5509C27.4326 14.5202 27.1033 14.622 26.8475 14.8341L25.2698 16.1489C25.1457 16.2524 25.0436 16.3799 24.97 16.5238C24.8964 16.6677 24.8527 16.8249 24.8413 16.9861C24.83 17.1473 24.8512 17.3091 24.9039 17.4619C24.9566 17.6147 25.0394 17.7553 25.1477 17.8752L29.9913 23.2333C25.8374 23.26 21.9391 23.2333 17.6176 23.2333H13.5741C11.8846 23.2155 10.206 23.5047 8.61998 24.087C5.35845 25.2973 2.69787 27.7323 1.20406 30.8742C0.471745 32.4572 0.0647156 34.1711 0.0071095 35.9143C-0.0504966 37.6576 0.242445 39.3946 0.868652 41.0225C2.14817 44.257 4.6491 46.858 7.831 48.2632C9.3846 48.9619 11.0598 49.3503 12.7623 49.4065L13.395 49.4331H14.9194H16.9391L25.0295 49.4027C30.4219 49.3646 35.8183 49.4027 41.2107 49.4027L49.3011 49.4331C50.8883 49.5125 52.4787 49.3702 54.0266 49.0102C55.6837 48.5773 57.2451 47.8379 58.6301 46.8303C60.0331 45.8097 61.2182 44.5192 62.1154 43.0343C63.0126 41.5494 63.604 39.9001 63.855 38.1834C64.1157 36.4531 64.0242 34.688 63.5861 32.9939C63.148 31.2999 62.3723 29.7117 61.3055 28.3247V28.3247Z" fill="#5457FF"/>
</svg>
