<svg width="64" height="64" viewBox="0 0 64 64" fill="none" xmlns="http://www.w3.org/2000/svg">
<path d="M4.36364 56.0062H14.5455V31.2789L0 20.3698V51.6426C0 54.0571 1.95636 56.0062 4.36364 56.0062Z" fill="#4285F4"/>
<path d="M49.4546 56.0062H59.6364C62.051 56.0062 64 54.0498 64 51.6426V20.3698L49.4546 31.2789" fill="#34A853"/>
<path d="M49.4546 12.3698V31.2789L64 20.3698V14.5516C64 9.15527 57.84 6.07891 53.5273 9.31527" fill="#FBBC04"/>
<path d="M14.5454 31.2789V12.3698L32 25.4608L49.4545 12.3698V31.2789L32 44.3698" fill="#EA4335"/>
<path d="M0 14.5516V20.3698L14.5455 31.2789V12.3698L10.4727 9.31527C6.15273 6.07891 0 9.15527 0 14.5516" fill="#C5221F"/>
</svg>
