<svg width="64" height="64" viewBox="0 0 64 64" fill="none" xmlns="http://www.w3.org/2000/svg">
<g clip-path="url(#clip0_1_42)">
<path d="M32.0002 19.9014C25.3175 19.9014 19.8978 25.3211 19.8978 32.0038C19.8978 38.6864 25.3175 44.1062 32.0002 44.1062C38.6828 44.1062 44.1026 38.6864 44.1026 32.0038C44.1026 25.3211 38.6903 19.9014 32.0002 19.9014ZM13.1324 32.0038C13.1324 21.5777 21.5816 13.136 32.0002 13.136C42.4263 13.136 50.8754 21.5852 50.8754 32.0038C50.8754 32.6953 50.8379 33.3719 50.7702 34.0409C50.6274 35.8826 51.9805 37.2883 53.8071 37.2883C56.9116 37.2883 57.2424 33.2892 57.2424 32.0038C57.2424 18.0672 45.9443 6.77663 32.0152 6.77663C18.0862 6.77663 6.77303 18.0747 6.77303 32.0038C6.77303 45.9404 18.0711 57.2309 32.0002 57.2309C39.3969 57.2309 46.057 54.0437 50.6725 48.9697L55.8592 53.3221C50.0035 59.8694 41.4792 63.9963 32.0002 63.9963C14.3276 63.9963 0.000183105 49.6688 0.000183105 31.9963C0.000183105 14.3237 14.3276 0.00378418 32.0002 0.00378418C49.6727 0.00378418 64.0002 14.3312 64.0002 32.0038C64.0002 39.1074 60.6175 44.8729 53.8221 44.8729C50.8303 44.8729 49.0112 43.5048 48.019 41.9714C44.6964 47.3235 38.7655 50.879 32.0002 50.879C21.5816 50.879 13.1324 42.4299 13.1324 32.0038ZM32.0002 26.4712C35.0596 26.4712 37.5402 28.9519 37.5402 32.0113C37.5402 35.0707 35.0596 37.5513 32.0002 37.5513C28.9408 37.5513 26.4601 35.0707 26.4601 32.0113C26.4601 28.9519 28.9408 26.4712 32.0002 26.4712Z" fill="#C12126"/>
</g>
<defs>
<clipPath id="clip0_1_42">
<rect width="64" height="64" fill="white"/>
</clipPath>
</defs>
</svg>
