<svg width="64" height="64" viewBox="0 0 64 64" fill="none" xmlns="http://www.w3.org/2000/svg">
<circle cx="32" cy="32" r="32" fill="#FFE01B"/>
<path fill-rule="evenodd" clip-rule="evenodd" d="M43.4479 30.6735H44.5145C44.6923 30.3179 44.6923 29.6068 44.5145 28.8068C44.3367 27.6513 43.9812 27.029 43.359 27.029C42.6479 27.2068 42.6479 28.0068 42.9145 29.1624C43.0034 29.7846 43.2701 30.3179 43.5367 30.6735H43.4479ZM37.8479 31.5624C38.2923 31.829 38.559 31.9179 38.7367 31.829L38.6479 31.3846C38.3812 31.029 37.9368 30.6735 37.4034 30.4957C36.8707 30.268 36.2884 30.181 35.7125 30.2433C35.1365 30.3056 34.5862 30.5149 34.1145 30.8513C33.8479 31.029 33.4923 31.3846 33.5812 31.5624L33.759 31.6513C34.0256 31.6513 34.9145 31.2957 35.9812 31.2068C36.6923 31.2068 37.3145 31.3846 37.759 31.5624H37.8479ZM36.8701 32.1846C36.2479 32.1846 35.9812 32.4513 35.7145 32.629L35.359 33.0735V33.2513H35.5368L35.9812 33.1624C36.8701 32.8068 37.4034 32.8957 37.9367 32.8957H38.4701V32.7179C38.3812 32.4513 37.6701 32.0068 36.8701 32.1846ZM41.5812 34.1401C42.0256 34.3179 42.4701 34.3179 42.6479 33.9624C42.7367 33.6957 42.559 33.2513 42.1145 33.0735C41.759 32.8068 41.2256 32.8957 41.1367 33.2513C40.959 33.5179 41.1367 33.9624 41.5812 34.1401ZM44.2479 31.7401C43.9812 31.7401 43.7145 32.1846 43.6256 32.629C43.6256 33.0735 43.8923 33.5179 44.2479 33.5179C44.6034 33.5179 44.8701 33.0735 44.8701 32.629C44.8701 32.1846 44.6034 31.7401 44.3367 31.7401H44.2479ZM21.0479 40.1846C20.8701 40.1846 20.7812 40.2735 20.6923 40.1846C20.5819 40.2063 20.468 40.2015 20.3598 40.1706C20.2516 40.1397 20.1523 40.0835 20.0701 40.0068V38.9401L20.2479 38.7624C20.5145 38.1401 20.959 37.1624 20.4256 36.0957C20.2538 35.7586 20.0019 35.4688 19.6919 35.2518C19.3819 35.0349 19.0234 34.8973 18.6479 34.8513C17.9367 34.7624 17.1367 35.029 16.6923 35.5624C15.8923 36.4513 15.8034 37.5179 15.9812 37.9624L16.159 38.1401C16.2479 38.1401 16.5145 38.0513 16.6034 37.6957C16.6034 37.429 16.7812 37.1624 16.959 36.8068C17.1367 36.5401 17.4034 36.3624 17.8479 36.2735C18.2034 36.2735 18.559 36.2735 18.8256 36.4513C19.359 36.8068 19.5367 37.5179 19.359 38.1401C19.2701 38.4068 19.0034 39.029 19.0923 39.5624C19.0923 40.5401 19.8034 40.9846 20.3367 40.9846C20.8701 40.9846 21.2256 40.7179 21.4034 40.5401V40.2735C21.3145 40.1846 21.1367 40.2735 21.0479 40.2735V40.1846ZM53.0479 41.7846C52.6034 43.829 51.7145 45.6068 50.2034 47.1179C49.3145 48.1846 48.159 49.0735 46.9145 49.6957L44.7812 50.5846C39.0923 52.4513 33.2256 50.4068 31.359 45.9624C30.7142 44.3852 30.5224 42.6593 30.805 40.979C31.0877 39.2988 31.8337 37.7307 32.959 36.4513L33.2256 35.9179L33.0479 35.4735C32.2479 34.3179 29.6701 32.5401 30.2034 28.8957C30.559 26.4068 32.8701 24.5401 34.9145 24.629H35.4479L37.8479 24.8957C39.0923 24.8957 40.2479 24.8068 41.5812 23.6513C42.0256 23.2957 42.3812 22.9401 43.0034 22.8513H43.5367C43.8034 22.8513 44.159 22.8513 44.4256 23.1179C45.4923 23.829 45.6701 25.5179 45.6701 26.7624L45.8479 29.6957C45.8479 30.8513 46.2034 31.029 46.7367 31.2068L47.8923 31.5624C48.9389 31.7562 49.9182 32.2153 50.7367 32.8957C51.0034 33.2513 51.1812 33.5179 51.1812 33.8735C51.359 35.1179 50.2923 36.5401 47.359 37.9624C44.2911 39.3262 40.9238 39.8772 37.5812 39.5624L36.6923 39.3846C34.4701 39.1179 33.3145 41.9624 34.559 43.829C35.4479 45.0735 37.6701 45.8735 39.8923 45.8735C45.1367 45.8735 49.0479 43.6513 50.559 41.6957L50.6479 41.5179C50.7367 41.429 50.6479 41.3401 50.6479 41.5179C49.4034 42.229 43.9812 45.6068 38.2034 44.5401C38.2034 44.5401 37.5812 44.5401 36.959 44.1846C36.4256 44.0068 35.359 43.5624 35.1812 42.4068C39.8923 43.829 42.8256 42.4957 42.8256 42.4957V42.4068L42.7367 42.229C42.7367 42.229 38.9145 42.8513 35.359 41.5179C35.7145 40.1846 36.7812 40.629 38.2923 40.8068C41.1367 40.9846 43.7145 40.5401 45.5812 40.0068C47.1812 39.5624 49.3145 38.5846 51.0034 37.3401C51.5367 38.4957 51.8034 39.9179 51.8034 39.9179C51.8034 39.9179 52.2479 39.829 52.6034 40.0068C52.8701 40.2735 53.1367 40.7179 52.959 41.7846H53.0479ZM26.559 21.5179C28.3367 19.3846 30.559 17.6068 32.5145 16.629H32.6034L32.0701 18.0513C32.0701 18.1401 32.0701 18.229 32.159 18.1401C33.4034 17.2513 35.5368 16.3624 37.4034 16.3624C37.4034 16.3624 37.4923 16.3624 37.4034 16.4513C37.0979 16.7102 36.8288 17.0092 36.6034 17.3401H36.6923C38.0256 17.3401 39.8923 17.8735 41.1367 18.5846C41.1367 18.5846 41.1367 18.7624 40.959 18.7624C38.522 18.2045 35.9944 18.1696 33.5429 18.6599C31.0914 19.1502 28.7717 20.1546 26.7368 21.6068C26.559 21.6068 26.4701 21.6068 26.559 21.5179ZM17.3145 31.2957C15.7248 31.6127 14.3216 32.5376 13.4034 33.8735C12.7838 33.4033 12.2175 32.8668 11.7145 32.2735C10.3812 29.6068 13.2256 24.4513 15.2701 21.5179C20.3367 14.4068 28.159 8.8957 31.8923 9.87348C32.4256 10.0513 34.3812 12.2735 34.3812 12.2735C34.3812 12.2735 30.8256 14.3179 27.4479 17.1624C22.8495 20.8836 19.3727 25.8066 17.4034 31.3846L17.3145 31.2957ZM19.9812 43.4735H19.2701C16.8701 43.4735 14.2034 41.2513 13.9367 38.6735C13.6701 35.829 15.0923 33.6068 17.759 33.0735C18.1096 33.001 18.4678 32.9711 18.8256 32.9846C20.2479 32.9846 22.3812 34.1401 22.9145 37.429C23.359 40.0957 22.6479 43.029 19.9812 43.4735ZM52.8701 38.4068L52.6034 37.2513L52.159 36.1846C52.7006 35.5142 52.9654 34.6621 52.8993 33.8029C52.8332 32.9436 52.4412 32.142 51.8034 31.5624C50.812 30.6932 49.6211 30.0825 48.3367 29.7846L47.4479 29.6068V26.5846C47.4479 25.9624 47.359 24.9846 47.0034 23.9179C46.7002 22.7144 46.0873 21.6112 45.2256 20.7179C47.4479 18.4068 48.7812 15.829 48.7812 13.6068C48.7812 9.51792 43.6256 8.27348 37.3145 10.9401L35.9812 11.3846L33.6701 8.98459C26.4701 2.76237 3.98119 27.829 11.1812 33.8735L12.6923 35.2957C12.301 36.4376 12.1794 37.6545 12.3367 38.8513C12.5449 40.6083 13.4006 42.2247 14.7367 43.3846C16.0247 44.5758 17.6949 45.2692 19.4479 45.3401C20.9064 48.5415 23.2605 51.2522 26.2259 53.145C29.1912 55.0377 32.6411 56.0317 36.159 56.0068C44.159 56.2735 51.0034 52.4513 53.759 45.6068C53.9367 45.1624 54.7367 42.9401 54.7367 41.1624C54.7367 39.2068 53.6701 38.4068 52.959 38.4068H52.8701Z" fill="#241C15"/>
</svg>
