<svg width="64" height="64" viewBox="0 0 64 64" fill="none" xmlns="http://www.w3.org/2000/svg">
<g clip-path="url(#clip0_1_63)">
<path fill-rule="evenodd" clip-rule="evenodd" d="M55.7931 45.8034C54.1605 48.6531 51.4889 50.7607 48.3126 51.6513C48.7579 50.1077 48.9954 48.5047 48.9954 46.9017C48.9954 38.8869 43.474 32.1485 36.0529 30.308C37.5965 28.7941 39.4963 27.7255 41.5742 27.1615C44.8098 26.2709 48.2829 26.7459 51.1623 28.4379C57.218 31.9407 59.2959 39.7477 55.7931 45.8034ZM32.0158 59.6067C28.7208 59.6067 25.5742 58.3006 23.2291 56.0446C24.7727 55.6587 26.2866 55.065 27.6521 54.2635C34.5686 50.2561 37.5965 42.0631 35.4592 34.7014C40.743 36.2153 44.6317 41.1132 44.6317 46.9017C44.6614 53.9073 38.9917 59.6067 32.0158 59.6067V59.6067ZM8.2384 45.8034C6.57607 42.924 6.16048 39.54 6.93228 36.3934C8.03061 37.5511 9.30705 38.5604 10.6725 39.3618C13.2551 40.8461 16.1642 41.6476 19.1327 41.6476C23.7635 41.6476 28.2161 39.7477 31.4221 36.3934C32.7579 41.7663 30.4722 47.5845 25.4852 50.4639C23.5853 51.5919 21.3887 52.1559 19.192 52.1559C14.68 52.1559 10.4944 49.7515 8.2384 45.8034ZM8.2384 18.1967C9.87106 15.347 12.5427 13.2394 15.7189 12.3489C15.2737 13.8925 15.0362 15.4954 15.0362 17.0984C15.0362 25.1132 20.5575 31.8516 27.9787 33.6921C24.0306 37.5214 17.8562 38.4713 12.8692 35.5622C9.93043 33.8702 7.8525 31.1095 6.99165 27.8442C6.10111 24.5789 6.54638 21.1058 8.2384 18.1967ZM32.0158 4.39338C35.3108 4.39338 38.4573 5.6995 40.7727 7.95553C39.2291 8.34143 37.7152 8.93513 36.3497 9.73661C32.4314 12.0223 29.6113 15.7032 28.4239 20.1262C27.6224 23.1541 27.6521 26.3303 28.5427 29.2988C23.2588 27.7848 19.3701 22.8869 19.3701 17.0984C19.3701 10.0928 25.0399 4.39338 32.0158 4.39338V4.39338ZM55.7931 18.1967C57.4555 21.0761 57.8711 24.4602 57.0993 27.6364C56.0009 26.4787 54.7245 25.4695 53.359 24.668C49.4406 22.3823 44.8395 21.7886 40.4462 22.9463C37.4481 23.7477 34.7171 25.3804 32.5798 27.6364C32.0455 25.5288 32.0751 23.3618 32.6391 21.2542C33.5 17.9889 35.6076 15.2283 38.5167 13.5362C41.4555 11.8442 44.8395 11.3989 48.1048 12.2598C51.3998 13.1503 54.1308 15.2579 55.7931 18.1967ZM59.5928 16.0001C57.3367 12.052 53.6558 9.20229 49.2625 8.04459C48.2236 7.77743 47.1549 7.59932 46.0863 7.51027C42.9397 2.84978 37.6558 6.10352e-05 32.0158 6.10352e-05C26.1679 6.10352e-05 21.0325 2.96852 17.9453 7.51027C12.3646 7.92585 7.25881 11.1021 4.43877 16.0001C2.15306 19.9481 1.55937 24.5492 2.74675 28.9722C3.01391 30.0112 3.39981 31.0205 3.87477 32.0001C1.44063 37.0761 1.61874 43.1021 4.43877 48.0001C7.34786 53.0761 12.4833 56.0743 17.9156 56.4899C21.0622 61.1503 26.346 64.0001 31.9861 64.0001C37.834 64.0001 42.9694 61.0316 46.0566 56.4899C51.6373 56.0743 56.743 52.898 59.5631 48.0001C62.4722 42.924 62.5019 36.9277 60.1271 32.0001C62.5909 26.924 62.4128 20.9277 59.5928 16.0001" fill="#0092FF"/>
</g>
<defs>
<clipPath id="clip0_1_63">
<rect width="64" height="64" fill="white"/>
</clipPath>
</defs>
</svg>
