<svg width="64" height="64" viewBox="0 0 64 64" fill="none" xmlns="http://www.w3.org/2000/svg">
<g clip-path="url(#clip0_1_12)">
<path d="M64 25.7128V40.8929L61.9038 42.9381V28.0934L64 25.7128Z" fill="#E79225"/>
<path d="M61.9376 28.0934H48.0576V42.9563H61.9376V28.0934Z" fill="url(#paint0_linear_1_12)"/>
<path d="M50.2316 25.7223L48.0576 28.0934H61.9376L64.0001 25.7128L50.2316 25.7223Z" fill="#FFF16D"/>
<path d="M33.0408 26.3732L46.6943 24.4758L45.5515 27.7494L32.6172 29.8007L32.6725 27.4607L33.0408 26.3732Z" fill="#91C9ED"/>
<path d="M45.5516 27.7494L47.4438 41.0649L33.9805 42.9563L32.1626 30.0833L32.9492 29.4687L45.5516 27.7494Z" fill="url(#paint1_linear_1_12)"/>
<path d="M46.6945 24.4758L46.7049 24.5562L48.4752 38.1907L47.444 41.0649L45.5518 27.7494" fill="#009ADA"/>
<path d="M21.5092 25.2383L33.5955 30.6919L28.1419 43.0739L16.0547 37.6202L21.5092 25.2383Z" fill="url(#paint2_linear_1_12)"/>
<path d="M20.2544 21L21.5095 25.2383L33.5959 30.6919L32.5802 26.6421L20.2544 21Z" fill="#98D0A0"/>
<path d="M20.2541 21L15.3892 32.5461L16.0548 37.6202L21.5093 25.2383L20.2541 21Z" fill="#66BF6B"/>
<path d="M13.5109 27.7304L15.5034 40.8324L2.14549 42.9269L0 29.799L13.5109 27.7304Z" fill="url(#paint3_linear_1_12)"/>
<path d="M0 29.799L0.937897 25.1207L14.4255 22.9588L13.5109 27.7304L0 29.799Z" fill="#EF463E"/>
<path d="M14.4253 22.9588L16.4031 36.1879L15.5032 40.8324L13.5107 27.7304L14.4253 22.9588Z" fill="#760D16"/>
<path d="M59.8196 33.4399C59.5448 32.7501 59.1385 32.1311 58.6008 31.5848C58.0865 31.0601 57.5073 30.6642 56.8685 30.398C56.2288 30.1317 55.5382 29.9995 54.7956 29.9995C54.0479 29.9995 53.3503 30.1317 52.7055 30.398C52.0615 30.6642 51.4832 31.0601 50.9732 31.5848C50.4363 32.1251 50.0309 32.7423 49.7621 33.4321C49.4933 34.1228 49.3584 34.8757 49.3584 35.6908C49.3584 36.506 49.4933 37.2459 49.7664 37.9409C50.0378 38.6359 50.4407 39.26 50.9732 39.8115C51.4719 40.3267 52.0442 40.7166 52.6856 40.9802C53.327 41.243 54.0315 41.3744 54.7956 41.3744C55.5598 41.3744 56.2228 41.243 56.8642 40.9802C57.5056 40.7174 58.0856 40.3276 58.6008 39.8124C59.1385 39.2609 59.5456 38.6385 59.8205 37.9452C60.0954 37.2528 60.2328 36.5008 60.2328 35.6908C60.2328 34.8809 60.0954 34.1305 59.8205 33.4399H59.8196ZM56.967 38.3377C56.4354 38.9799 55.7188 39.2989 54.7948 39.3006C53.8638 39.2998 53.1446 38.9817 52.6104 38.342C52.077 37.7023 51.8073 36.8223 51.8073 35.6925C51.8073 34.542 52.0762 33.649 52.6069 33.0042C53.1385 32.3593 53.8595 32.0395 54.7956 32.0386C55.7197 32.0395 56.4363 32.3593 56.9679 33.0042C57.4987 33.649 57.7675 34.542 57.7675 35.6925C57.7675 36.8431 57.4987 37.6954 56.9679 38.3377H56.967ZM12.0768 38.7465C11.9713 38.6203 11.8296 38.5278 11.6567 38.4673C11.4795 38.4051 11.2642 38.3757 11.0118 38.3757C10.7733 38.3757 10.501 38.4025 10.1941 38.4552L6.66812 39.0577C6.70529 38.7863 6.84014 38.4293 7.07785 37.9936C7.34323 37.5061 7.73481 36.9209 8.2526 36.2389C8.42981 36.0011 8.56552 35.8196 8.65974 35.6951C8.72717 35.6122 8.82053 35.4894 8.94241 35.3269C9.74891 34.2688 10.2485 33.407 10.4396 32.731C10.5494 32.3472 10.6159 31.9617 10.6401 31.5718C10.647 31.4655 10.6496 31.3601 10.6496 31.2546C10.6496 30.9754 10.6272 30.7014 10.5805 30.4308C10.5381 30.1845 10.4776 29.9796 10.3964 29.8153C10.3151 29.6511 10.2122 29.5266 10.0843 29.448C9.94082 29.3607 9.73854 29.3235 9.47403 29.3226C9.25619 29.3226 8.99428 29.3494 8.68827 29.4013L4.61339 30.0989C4.1198 30.1836 3.75588 30.3288 3.52335 30.5475C3.33837 30.7213 3.24328 30.9451 3.24415 31.2027C3.24415 31.2702 3.2502 31.3393 3.2623 31.4119C3.31935 31.7586 3.50002 32.0118 3.79133 32.1415C3.96334 32.2193 4.17081 32.2556 4.41284 32.2556C4.57795 32.2556 4.75861 32.2383 4.95656 32.2046L8.36671 31.6298C8.37276 31.6903 8.37621 31.7499 8.37621 31.8096C8.37621 32.0222 8.33904 32.2305 8.26557 32.4354C8.16443 32.7172 7.91116 33.1209 7.50834 33.6344C7.39423 33.7744 7.21875 33.9922 6.98363 34.2879C6.06389 35.4021 5.4052 36.3521 5.0067 37.1422C4.72404 37.6868 4.52695 38.2227 4.41976 38.75C4.35666 39.0577 4.32554 39.3525 4.32554 39.636C4.32554 39.8392 4.34196 40.0354 4.37394 40.2256C4.42062 40.4987 4.48805 40.7235 4.57881 40.9015C4.66958 41.0787 4.78541 41.2119 4.92804 41.2905C5.06116 41.3623 5.25652 41.3908 5.52535 41.3917C5.8668 41.3917 6.32667 41.3415 6.90756 41.2421L10.6047 40.6102C11.2591 40.4979 11.7146 40.3414 11.9791 40.1244C12.1909 39.9507 12.2998 39.7121 12.299 39.4312C12.299 39.3603 12.292 39.2868 12.2791 39.2107C12.248 39.0283 12.1805 38.8719 12.0751 38.7465H12.0768ZM28.844 29.8914C28.3694 29.3909 27.792 28.9967 27.116 28.7097C26.4443 28.4245 25.7658 28.2819 25.0811 28.2819H25.05C24.355 28.2862 23.6687 28.4409 22.9918 28.7443C22.2839 29.0521 21.6658 29.4843 21.142 30.0384C20.6181 30.5925 20.1911 31.2581 19.8626 32.0343C19.5376 32.8011 19.3578 33.5687 19.3241 34.3354C19.3198 34.4218 19.3181 34.5091 19.3181 34.5956C19.3181 35.2724 19.4339 35.9363 19.6664 36.5846C19.9128 37.2692 20.2758 37.8614 20.7539 38.3601C21.2319 38.8598 21.8206 39.2565 22.5173 39.5513C23.1837 39.834 23.8597 39.9757 24.5452 39.9757H24.5625C25.2532 39.9723 25.9387 39.8245 26.6164 39.5332H26.6172C27.3304 39.2142 27.9519 38.7777 28.4818 38.2236C29.0117 37.6695 29.4396 37.0056 29.7672 36.2337C30.0948 35.4626 30.2729 34.6941 30.3023 33.93C30.3048 33.8565 30.3066 33.783 30.3066 33.7096C30.3066 33.0223 30.1856 32.3498 29.9427 31.6911C29.6859 30.9918 29.3194 30.3902 28.844 29.8897V29.8914ZM27.5197 35.2845C27.0641 36.3573 26.4634 37.0929 25.7191 37.5009C25.3206 37.7196 24.9117 37.8277 24.489 37.8277C24.1216 37.8277 23.743 37.7455 23.3523 37.5804C22.506 37.22 21.9796 36.6399 21.7514 35.8231C21.6753 35.549 21.6364 35.2603 21.6364 34.9578C21.6364 34.3579 21.7868 33.6992 22.0911 32.9834C22.557 31.8856 23.1647 31.1362 23.909 30.7256C24.3066 30.506 24.7155 30.398 25.1391 30.398C25.5099 30.398 25.8937 30.4809 26.2913 30.6495C27.1316 31.0074 27.6537 31.5883 27.8776 32.4095C27.9502 32.6783 27.9873 32.961 27.9873 33.2583C27.9873 33.8712 27.8326 34.5472 27.5188 35.2863L27.5197 35.2845ZM43.2625 30.3003C43.202 29.8871 43.0602 29.5716 42.8312 29.3641C42.6496 29.199 42.4206 29.116 42.1595 29.116C42.093 29.116 42.0247 29.1212 41.9529 29.1316C41.6037 29.1817 41.3357 29.3434 41.1715 29.6113C41.0522 29.8041 40.9943 30.0375 40.9943 30.3055C40.9943 30.4083 41.0029 30.5164 41.0193 30.6296L41.5103 34.0942L37.6395 34.6639L37.1485 31.1984C37.0888 30.7956 36.9496 30.4835 36.724 30.2709C36.5416 30.0989 36.3143 30.0107 36.0576 30.0116C35.9971 30.0116 35.9348 30.0168 35.8717 30.0254C35.5078 30.0781 35.2303 30.2363 35.0618 30.5C34.9399 30.6893 34.8802 30.9235 34.8802 31.1958C34.8802 31.3004 34.8889 31.4111 34.9062 31.5269L36.2305 40.5376C36.291 40.9517 36.4362 41.2663 36.6739 41.4703C36.8597 41.6294 37.0923 41.7089 37.3594 41.7089C37.432 41.7089 37.5081 41.7029 37.5859 41.6916C37.9195 41.6432 38.1763 41.4824 38.3319 41.2153C38.4434 41.0252 38.497 40.7978 38.497 40.5368C38.497 40.4322 38.4883 40.3232 38.4719 40.2083L37.9308 36.6486L41.8016 36.0798L42.3428 39.6395C42.4024 40.0484 42.5459 40.3613 42.781 40.5679C42.9677 40.7321 43.1985 40.8142 43.4596 40.8142C43.527 40.8142 43.5953 40.809 43.6671 40.7987C44.0154 40.7477 44.2817 40.5886 44.4407 40.3232C44.5557 40.1339 44.611 39.9049 44.611 39.6404C44.611 39.5358 44.6024 39.426 44.5859 39.3101L43.2617 30.2994L43.2625 30.3003Z" fill="white"/>
</g>
<defs>
<linearGradient id="paint0_linear_1_12" x1="54.9981" y1="28.2992" x2="54.9981" y2="42.5016" gradientUnits="userSpaceOnUse">
<stop stop-color="#FFE513"/>
<stop offset="1" stop-color="#FDB924"/>
</linearGradient>
<linearGradient id="paint1_linear_1_12" x1="32.8524" y1="29.8007" x2="46.7774" y2="40.9828" gradientUnits="userSpaceOnUse">
<stop stop-color="#008CD2"/>
<stop offset="1" stop-color="#00649D"/>
</linearGradient>
<linearGradient id="paint2_linear_1_12" x1="24.8251" y1="30.1914" x2="24.8251" y2="42.6339" gradientUnits="userSpaceOnUse">
<stop stop-color="#26A146"/>
<stop offset="1" stop-color="#008A52"/>
</linearGradient>
<linearGradient id="paint3_linear_1_12" x1="6.7762" y1="28.9743" x2="8.91564" y2="41.8922" gradientUnits="userSpaceOnUse">
<stop stop-color="#D92231"/>
<stop offset="1" stop-color="#BA2234"/>
</linearGradient>
<clipPath id="clip0_1_12">
<rect width="64" height="64" fill="white"/>
</clipPath>
</defs>
</svg>
